/* XPM */
static char * g1_xpm[] = {
"48 48 271 2",
"  	c None",
". 	c #B6B9AB",
"+ 	c #AEAF9E",
"@ 	c #9A9A8C",
"# 	c #979985",
"$ 	c #979883",
"% 	c #ADAE9C",
"& 	c #E9E8D8",
"* 	c #8B8C7D",
"= 	c #7F7F6E",
"- 	c #6D6D5E",
"; 	c #57574C",
"> 	c #68695C",
", 	c #9F9E8D",
"' 	c #3C3C36",
") 	c #2E2E27",
"! 	c #47473D",
"~ 	c #535347",
"{ 	c #636355",
"] 	c #9B9B87",
"^ 	c #898978",
"/ 	c #89897A",
"( 	c #070706",
"_ 	c #35352E",
": 	c #6A695B",
"< 	c #6D6D5F",
"[ 	c #727163",
"} 	c #AEAE98",
"| 	c #C4C3AA",
"1 	c #B3B29D",
"2 	c #B2B4A5",
"3 	c #383931",
"4 	c #050504",
"5 	c #2A2A24",
"6 	c #757465",
"7 	c #777667",
"8 	c #797868",
"9 	c #AEAE99",
"0 	c #D2D2BB",
"a 	c #D2D2BF",
"b 	c #CFCEB8",
"c 	c #474844",
"d 	c #22221D",
"e 	c #787767",
"f 	c #7C7B6A",
"g 	c #7D7C6B",
"h 	c #A7A794",
"i 	c #D6D6C1",
"j 	c #DBDBC9",
"k 	c #41433C",
"l 	c #151512",
"m 	c #1C1C18",
"n 	c #757464",
"o 	c #7F7F6F",
"p 	c #A0A18E",
"q 	c #D6D6C5",
"r 	c #383830",
"s 	c #0D0D0B",
"t 	c #5E5E51",
"u 	c #76776A",
"v 	c #90917F",
"w 	c #C6C6B3",
"x 	c #BABAA6",
"y 	c #ABAB9A",
"z 	c #2B2D26",
"A 	c #3B3B32",
"B 	c #060605",
"C 	c #090908",
"D 	c #21211C",
"E 	c #24241F",
"F 	c #1A1A16",
"G 	c #72756C",
"H 	c #393B32",
"I 	c #49493E",
"J 	c #2C2C26",
"K 	c #12120F",
"L 	c #080806",
"M 	c #191915",
"N 	c #35352D",
"O 	c #4C4C41",
"P 	c #3C3D34",
"Q 	c #57564A",
"R 	c #616153",
"S 	c #616154",
"T 	c #636558",
"U 	c #8D8E7E",
"V 	c #ADAD9D",
"W 	c #BABAA9",
"X 	c #30312A",
"Y 	c #686759",
"Z 	c #92917F",
"` 	c #D4D4C0",
" .	c #2A2B25",
"..	c #626154",
"+.	c #7B7A6A",
"@.	c #989886",
"#.	c #D5D5C0",
"$.	c #CECEBD",
"%.	c #21231E",
"&.	c #44443B",
"*.	c #646356",
"=.	c #646457",
"-.	c #737365",
";.	c #AFB09D",
">.	c #ACAC99",
",.	c #B2B4A4",
"'.	c #1E201B",
").	c #20201B",
"!.	c #4C4D41",
"~.	c #565649",
"{.	c #5A5A4D",
"].	c #7E7F6E",
"^.	c #92937F",
"/.	c #8A8C7A",
"(.	c #303029",
"_.	c #0B0B09",
":.	c #4F4E43",
"<.	c #5C5B4E",
"[.	c #59594C",
"}.	c #5F6053",
"|.	c #969683",
"1.	c #989A87",
"2.	c #A4A590",
"3.	c #43443E",
"4.	c #37372F",
"5.	c #59594D",
"6.	c #676658",
"7.	c #92927F",
"8.	c #999A86",
"9.	c #999A85",
"0.	c #242421",
"a.	c #2B2B25",
"b.	c #6E6D5F",
"c.	c #757566",
"d.	c #7D7D6D",
"e.	c #A9A998",
"f.	c #B7B7A2",
"g.	c #A8AA94",
"h.	c #B3B5A2",
"i.	c #5F6257",
"j.	c #272721",
"k.	c #888877",
"l.	c #8C8C7B",
"m.	c #B1B09F",
"n.	c #CDCDB8",
"o.	c #C5C6B4",
"p.	c #828272",
"q.	c #A8A895",
"r.	c #D7D8CB",
"s.	c #C0C0AB",
"t.	c #9B9C89",
"u.	c #464640",
"v.	c #161613",
"w.	c #78796B",
"x.	c #868677",
"y.	c #868777",
"z.	c #A4A493",
"A.	c #E9E8DD",
"B.	c #DEDED1",
"C.	c #BBBEB0",
"D.	c #606057",
"E.	c #0E0E0C",
"F.	c #6A6A5D",
"G.	c #808171",
"H.	c #818171",
"I.	c #949485",
"J.	c #E4E4D7",
"K.	c #D8D9CF",
"L.	c #D6D7CB",
"M.	c #6E6E63",
"N.	c #11110E",
"O.	c #5D5D50",
"P.	c #717061",
"Q.	c #858575",
"R.	c #B9BAA8",
"S.	c #9FA18E",
"T.	c #999A88",
"U.	c #686A5E",
"V.	c #141411",
"W.	c #3C3C33",
"X.	c #3E3F36",
"Y.	c #3D3E35",
"Z.	c #515146",
"`.	c #7C7C6D",
" +	c #7A7A6A",
".+	c #828273",
"++	c #BBBCAE",
"@+	c #4A4B41",
"#+	c #151511",
"$+	c #35362E",
"%+	c #414238",
"&+	c #3F4036",
"*+	c #424239",
"=+	c #767667",
"-+	c #807F70",
";+	c #B4B7A9",
">+	c #5F5F52",
",+	c #32322B",
"'+	c #373830",
")+	c #33332B",
"!+	c #393931",
"~+	c #666658",
"{+	c #767566",
"]+	c #BCBCAF",
"^+	c #282722",
"/+	c #646456",
"(+	c #161713",
"_+	c #2F3029",
":+	c #37382F",
"<+	c #676659",
"[+	c #7A7969",
"}+	c #7A7A6B",
"|+	c #B5B8A7",
"1+	c #292A23",
"2+	c #0F0F0C",
"3+	c #282923",
"4+	c #36372F",
"5+	c #4A4B40",
"6+	c #505246",
"7+	c #626255",
"8+	c #C5C5B8",
"9+	c #3B3C33",
"0+	c #181814",
"a+	c #1D1D19",
"b+	c #2B2B24",
"c+	c #48493E",
"d+	c #424339",
"e+	c #515145",
"f+	c #43433D",
"g+	c #0C0C0A",
"h+	c #080807",
"i+	c #131310",
"j+	c #4D4D41",
"k+	c #3A3B38",
"l+	c #060604",
"m+	c #0A0A08",
"n+	c #10100D",
"o+	c #282822",
"p+	c #3A3A31",
"q+	c #2C2D26",
"r+	c #58594F",
"s+	c #5E6056",
"t+	c #171814",
"u+	c #181815",
"v+	c #31312A",
"w+	c #191A17",
"x+	c #0C0D0A",
"y+	c #69695E",
"z+	c #34342D",
"A+	c #21201C",
"B+	c #0A0A09",
"C+	c #56594E",
"D+	c #868577",
"E+	c #747363",
"F+	c #606053",
"G+	c #9A9C8B",
"H+	c #B0AF9B",
"I+	c #B8B7A3",
"J+	c #858477",
"K+	c #888876",
"L+	c #B9B8A4",
"M+	c #B8B8A4",
"N+	c #B1B29F",
"O+	c #7F7F72",
"P+	c #B3B29E",
"Q+	c #9FA092",
"R+	c #858475",
"S+	c #858676",
"T+	c #878775",
"U+	c #BFBEAA",
"V+	c #C2C2AE",
"                                                                                                ",
"                                                                                                ",
"                                                                                                ",
"                                                                                                ",
"                                                                                                ",
"                                                                                                ",
"                                                                                                ",
"                                                                                                ",
"                                            . +                                                 ",
"                                        @ # $ %     &                                           ",
"                                        * = - ; > ,                                             ",
"                                        ' ) ! ~ { ] ^ /                                         ",
"                                        ( _ : < [ } | 1 2                                       ",
"                                      3 4 5 6 7 8 9 0 a b                                       ",
"                                      c 4 d e f g h i i j                                       ",
"                                      k l m n f o p i i q                                       ",
"                                      r ) s ! t u v w x y                                       ",
"                                      z A B 4 4 C D E F G                                       ",
"                                      H I J K 4 L M N O                                         ",
"                                      P Q R S T U V W                                           ",
"                                      X Y g o Z i i `                                           ",
"                                       ...+.o @.i #.$.                                          ",
"                                      %.&.*.=.-.;.>.,.                                          ",
"                                      '.).!.~.{.].^./.                                          ",
"                                      (._.:.<.[.}.|.1.2.                                        ",
"                                      3.4 4.5.t 6.7.8.9.                                        ",
"                                      0.4 a.b.c.d.e.f.g.h.                                      ",
"                                      i.4 j.k.l.l.m.i n.o.                                      ",
"                                        D m p.l.l.q.r.s.t.                                      ",
"                                        u.v.w.x.y.z.A.B.C.                                      ",
"                                        D.E.F.G.H.I.J.K.L.                                      ",
"                                        M.N.P O.P.Q.R.S.T.                                      ",
"                                        U.V.W.X.Y.Z.`. +.+++                                    ",
"                                      @+~ #+$+%+&+*+=+o -+;+                                    ",
"                                      J >+v.,+'+)+!+S ~+{+]+                                    ",
"                                      ^+/+(+_+:+N :+<+[+}+|+                                    ",
"                                      1+5.2+K M 3+4+5+6+7+8+                                    ",
"                                      X 9+C l 0+a+b+c+d+e+                                      ",
"                                      f+g+h+V.i+K d j+~ 7+                                      ",
"                                      k+4 l+m+E.n+o+p+q+r+                                      ",
"                                      s+4 4 4 4 ( t+m u+v+                                      ",
"                                        w+4 4 4 l+s x+t+                                        ",
"                                        y+z+A+s B+j.C+                                          ",
"                                        D+f E+F+G+H+I+                                          ",
"                                        J+f f K+L+M+N+                                          ",
"                                        O+{+f K+L+I+P+                                          ",
"                                        Q+R+S+T+U+V+                                            ",
"                                                                                                "};
