/* XPM */
static char * g13_xpm[] = {
"48 48 357 2",
"  	c None",
". 	c #51544B",
"+ 	c #686859",
"@ 	c #9F9F8D",
"# 	c #888778",
"$ 	c #2E2F28",
"% 	c #1D1D19",
"& 	c #5A5B4F",
"* 	c #838373",
"= 	c #7A7A6A",
"- 	c #9B9A88",
"; 	c #5A5D52",
"> 	c #32332B",
", 	c #36362E",
"' 	c #494A3F",
") 	c #5F6053",
"! 	c #747566",
"~ 	c #9A9B88",
"{ 	c #4F4F49",
"] 	c #2F2F2A",
"^ 	c #3F4036",
"/ 	c #4B4C40",
"( 	c #43443A",
"_ 	c #57574B",
": 	c #878876",
"< 	c #C5C5B0",
"[ 	c #D1D2BC",
"} 	c #D6D5C0",
"| 	c #3E3E37",
"1 	c #0C0C0A",
"2 	c #2C2D26",
"3 	c #4C4C41",
"4 	c #545549",
"5 	c #5D5D50",
"6 	c #888876",
"7 	c #969684",
"8 	c #D4D3C2",
"9 	c #DDDDC9",
"0 	c #D4D4BE",
"a 	c #B7B9A5",
"b 	c #71726B",
"c 	c #131310",
"d 	c #151512",
"e 	c #616053",
"f 	c #656456",
"g 	c #5C5B4F",
"h 	c #777667",
"i 	c #919280",
"j 	c #AFAF9C",
"k 	c #E6E5D4",
"l 	c #E2E1CF",
"m 	c #C4C5B0",
"n 	c #B0B09D",
"o 	c #96998A",
"p 	c #33332D",
"q 	c #262621",
"r 	c #737264",
"s 	c #767566",
"t 	c #7A7969",
"u 	c #B9B9A6",
"v 	c #D6D5C2",
"w 	c #E3E2D1",
"x 	c #E8E7D7",
"y 	c #D6D6C1",
"z 	c #CCCCB7",
"A 	c #B8B7A1",
"B 	c #929382",
"C 	c #2E2E29",
"D 	c #0F0F0C",
"E 	c #35352D",
"F 	c #706F61",
"G 	c #D0CFBB",
"H 	c #E9E8D8",
"I 	c #C4C3B1",
"J 	c #9A9A87",
"K 	c #878777",
"L 	c #B8B7A2",
"M 	c #181814",
"N 	c #383830",
"O 	c #646456",
"P 	c #6E6D5F",
"Q 	c #D9D8C6",
"R 	c #E9E8D7",
"S 	c #D7D7C3",
"T 	c #848473",
"U 	c #797969",
"V 	c #515246",
"W 	c #9C9D88",
"X 	c #888978",
"Y 	c #BDBDAF",
"Z 	c #0D0D0A",
"` 	c #3B3B32",
" .	c #57584B",
"..	c #606052",
"+.	c #727263",
"@.	c #E0DFCF",
"#.	c #DEDDCB",
"$.	c #B3B5A1",
"%.	c #757666",
"&.	c #7E7E6D",
"*.	c #676759",
"=.	c #9E9E8A",
"-.	c #9A9B86",
";.	c #ADAD99",
">.	c #45453B",
",.	c #666658",
"'.	c #717163",
").	c #DCDBCB",
"!.	c #BBBDA9",
"~.	c #B2B19C",
"{.	c #787868",
"].	c #7B7B6B",
"^.	c #6A695B",
"/.	c #989884",
"(.	c #A6A691",
"_.	c #B6B6A2",
":.	c #686864",
"<.	c #404037",
"[.	c #5F5E51",
"}.	c #6E6E60",
"|.	c #C1C1AE",
"1.	c #B5B4A0",
"2.	c #B3B39F",
"3.	c #666759",
"4.	c #6D6D62",
"5.	c #070706",
"6.	c #0B0B09",
"7.	c #37372F",
"8.	c #555548",
"9.	c #555549",
"0.	c #59594C",
"a.	c #A8AA95",
"b.	c #B0B4A2",
"c.	c #B9B8A3",
"d.	c #7A7A69",
"e.	c #7F7F6E",
"f.	c #0E0E0C",
"g.	c #050504",
"h.	c #1B1B17",
"i.	c #31322A",
"j.	c #36382F",
"k.	c #35372E",
"l.	c #9C9F8D",
"m.	c #A9AE9C",
"n.	c #B9B9A4",
"o.	c #999985",
"p.	c #989783",
"q.	c #11110E",
"r.	c #282822",
"s.	c #24251F",
"t.	c #262620",
"u.	c #868674",
"v.	c #A7A792",
"w.	c #A2A28F",
"x.	c #9D9D89",
"y.	c #AEAE99",
"z.	c #141512",
"A.	c #0A0A08",
"B.	c #1C1C18",
"C.	c #1A1A16",
"D.	c #191916",
"E.	c #525247",
"F.	c #ABAB95",
"G.	c #91917F",
"H.	c #C0BFA9",
"I.	c #A8A894",
"J.	c #62635C",
"K.	c #060605",
"L.	c #171713",
"M.	c #2C2C26",
"N.	c #BEBDA5",
"O.	c #90917E",
"P.	c #A9A995",
"Q.	c #B4B39E",
"R.	c #8F9180",
"S.	c #BDBCA6",
"T.	c #131311",
"U.	c #121310",
"V.	c #161612",
"W.	c #989886",
"X.	c #999A87",
"Y.	c #A7A893",
"Z.	c #B6B59F",
"`.	c #A8A893",
" +	c #B8B8A8",
".+	c #3E3E38",
"++	c #070705",
"@+	c #10100E",
"#+	c #3D3D35",
"$+	c #9C9C89",
"%+	c #A0A18C",
"&+	c #AEAE98",
"*+	c #8D8D7A",
"=+	c #999A86",
"-+	c #8D8D7D",
";+	c #1C1D18",
">+	c #0D0D0B",
",+	c #090908",
"'+	c #0F0F0D",
")+	c #636255",
"!+	c #90917D",
"~+	c #8C8C79",
"{+	c #8A8A77",
"]+	c #807F6E",
"^+	c #BCBCA9",
"/+	c #65685F",
"(+	c #222320",
"_+	c #080806",
":+	c #3E3E36",
"<+	c #828272",
"[+	c #939582",
"}+	c #9C9E8A",
"|+	c #9B9B88",
"1+	c #12120F",
"2+	c #080807",
"3+	c #0B0B0A",
"4+	c #161713",
"5+	c #21211C",
"6+	c #535347",
"7+	c #7E7E6F",
"8+	c #A1A38F",
"9+	c #A6A792",
"0+	c #A8A898",
"a+	c #1C1C17",
"b+	c #515146",
"c+	c #535448",
"d+	c #707062",
"e+	c #2E2E28",
"f+	c #B5B49D",
"g+	c #9B9B8A",
"h+	c #1F1F1B",
"i+	c #4A4A3F",
"j+	c #3D3E35",
"k+	c #707161",
"l+	c #BCBBA3",
"m+	c #8C8D7D",
"n+	c #181815",
"o+	c #757465",
"p+	c #898A77",
"q+	c #C0BFA6",
"r+	c #8E8F7D",
"s+	c #A0A18E",
"t+	c #68685A",
"u+	c #5A594D",
"v+	c #626254",
"w+	c #777767",
"x+	c #888877",
"y+	c #949582",
"z+	c #C4C3AA",
"A+	c #A3A491",
"B+	c #74736A",
"C+	c #414139",
"D+	c #646458",
"E+	c #828372",
"F+	c #898A79",
"G+	c #838271",
"H+	c #6B6B5D",
"I+	c #6C6C5E",
"J+	c #6A6A5B",
"K+	c #8B8A78",
"L+	c #9FA08A",
"M+	c #A4A48F",
"N+	c #BCBCA3",
"O+	c #30302A",
"P+	c #33342C",
"Q+	c #5F5F52",
"R+	c #A4A490",
"S+	c #868574",
"T+	c #8D8D7C",
"U+	c #7C7B6A",
"V+	c #979682",
"W+	c #B1B09B",
"X+	c #ABAC98",
"Y+	c #363734",
"Z+	c #2E2F27",
"`+	c #2F3129",
" @	c #292923",
".@	c #5A5A4D",
"+@	c #999A88",
"@@	c #8F907F",
"#@	c #B3B29C",
"$@	c #848372",
"%@	c #979681",
"&@	c #BAB9A4",
"*@	c #A3A28F",
"=@	c #969685",
"-@	c #262722",
";@	c #272721",
">@	c #8A8A78",
",@	c #C0BFA8",
"'@	c #8B8B79",
")@	c #808071",
"!@	c #A1A18D",
"~@	c #707061",
"{@	c #8F9383",
"]@	c #72736C",
"^@	c #393931",
"/@	c #7E7F6E",
"(@	c #8E8E7C",
"_@	c #BBBAA2",
":@	c #969988",
"<@	c #A8A996",
"[@	c #818271",
"}@	c #7C7B6B",
"|@	c #181816",
"1@	c #191915",
"2@	c #A7A894",
"3@	c #C6C5AB",
"4@	c #B2B39E",
"5@	c #B7B6A3",
"6@	c #848474",
"7@	c #484B43",
"8@	c #10100D",
"9@	c #3E3E35",
"0@	c #8F8F7C",
"a@	c #9B9C88",
"b@	c #C1C0A8",
"c@	c #B5B6A0",
"d@	c #B1B09C",
"e@	c #7C7C6D",
"f@	c #8B8D7E",
"g@	c #444541",
"h@	c #090907",
"i@	c #6F6E60",
"j@	c #868676",
"k@	c #B8B8A3",
"l@	c #B4B5A2",
"m@	c #A9A999",
"n@	c #4D4E45",
"o@	c #343630",
"p@	c #696A5C",
"q@	c #AAAA95",
"r@	c #AFAF9B",
"s@	c #AFB1A1",
"t@	c #0A0A09",
"u@	c #252520",
"v@	c #414138",
"w@	c #666558",
"x@	c #898878",
"y@	c #25251F",
"z@	c #46463C",
"A@	c #606053",
"B@	c #6B6A5C",
"C@	c #7F7E6E",
"D@	c #20201B",
"E@	c #3F3F36",
"F@	c #676659",
"G@	c #68675A",
"H@	c #717161",
"I@	c #141411",
"J@	c #545448",
"K@	c #5D5E50",
"L@	c #50544B",
"M@	c #5C5D50",
"N@	c #8F8F7F",
"O@	c #858576",
"P@	c #B3B6A6",
"                                                                                                ",
"                                                                                                ",
"                                                                                                ",
"                                                                                                ",
"                                                                                                ",
"                                                                                                ",
"                                                                                                ",
"                                                                                                ",
"                                              . + @ #                                           ",
"                                            $ % & * = -                                         ",
"                                          ; > , ' ) ! ~                                         ",
"                                      { ] ^ / ( _ : < [ }                                       ",
"                                    | 1 2 3 4 5 6 7 8 9 0 a                                     ",
"                                  b c d e f g h i j k l m n o                                   ",
"                                  p c q r s t u v w x y z A B                                   ",
"                                  C D E F r r G H x I J K L *                                   ",
"                                  M 1 N O P r Q R S T U V W X Y                                 ",
"                                  Z 1 `  ...+.@.#.$.%.&.*.=.-.;.                                ",
"                                  1 1 >.,.,.'.).!.~.{.].^./.(._.                                ",
"                                :.1 1 <.[.[.}.|.1.2.) 3.4.                                      ",
"                                  5.6.7.8.9.0.a.b.c.d.e.                                        ",
"                                  f.g.h.i.j.k.l.m.n.o.p.                                        ",
"                                  % g.q.r.s.t.u.v.w.x.y.                                        ",
"                                  z.g.A.B.C.D.E.F.G.w.H.I.                                      ",
"                                  J.g.K.d L.c M.N.O.P.Q.R.S.                                    ",
"                                    T.g.1 c U.V.W.X.Y.Z.P.`. +                                  ",
"                                    .+K.++@+c @+#+$+%+&+*+=+-+                                  ",
"                                      ;+>+,+1 >+'+)+!+~+{+]+B ^+                                ",
"                                        /+(+_+6.A.>+:+].<+[+}+|+                                ",
"                                            1+2+3+4+5+6+7+8+9+0+                                ",
"                                            a+'+N b+c+d+e+G.f+g+                                ",
"                                            h+c i+,.,.&.j+k+l+m+                                ",
"                                            r.n+i+,.,.&.o+p+q+r+                                ",
"                                        s+t+g _ u+O v+w+x+y+z+A+                                ",
"                                  B+C+D+E+F+G+= H+I+J+K+L+M+N+M+                                ",
"                                O+5.d > P+e+Q+R+S+T+U+V+W+~.J X+                                ",
"                                Y+g.>+Z+`+ @.@+@@@#@$@%@&@*@{.=@                                ",
"                                -@g.K.;@r.r.b+x+>@,@'@)@!@7+~@{@                                ",
"                                ]@++g.C.h+h+^@/@(@_@q+:@<@[@}@                                  ",
"                                  |@g.'+d d 1@'.7 2@3@4@5@].6@                                  ",
"                                  7@5.2+q.8@6.9@0@a@b@c@d@e@f@                                  ",
"                                    g@g.h@++g.6.i@j@k@l@X+m@                                    ",
"                                      n@o@,+g.g.M p@q@r@s@                                      ",
"                                            d t@u@v@w@x@                                        ",
"                                            y@L.z@A@B@C@                                        ",
"                                            D@C.E@F@G@H@                                        ",
"                                            $ I@E@J@K@e.                                        ",
"                                              L@M@N@O@P@                                        "};
