/* XPM */
static char * g2_xpm[] = {
"48 48 288 2",
"  	c None",
". 	c #D6D6C7",
"+ 	c #C2C1AB",
"@ 	c #E6E5D5",
"# 	c #BBBAA7",
"$ 	c #B9B8A4",
"% 	c #E9E8D8",
"& 	c #A9A894",
"* 	c #959484",
"= 	c #818273",
"- 	c #78786B",
"; 	c #878779",
"> 	c #B9B9A8",
", 	c #3E3F3C",
"' 	c #171714",
") 	c #12120F",
"! 	c #37372F",
"~ 	c #5D5D50",
"{ 	c #6D6D5F",
"] 	c #868675",
"^ 	c #ACAC97",
"/ 	c #A3A493",
"( 	c #43453F",
"_ 	c #060605",
": 	c #050504",
"< 	c #1E1E1A",
"[ 	c #888877",
"} 	c #91927F",
"| 	c #959682",
"1 	c #B9B9A5",
"2 	c #C3C2AC",
"3 	c #A8A999",
"4 	c #51544C",
"5 	c #080806",
"6 	c #737464",
"7 	c #9A9B86",
"8 	c #A0A08C",
"9 	c #ADAD99",
"0 	c #D5D5C0",
"a 	c #D5D5BF",
"b 	c #DDDCC9",
"c 	c #373630",
"d 	c #060604",
"e 	c #0C0D0A",
"f 	c #545449",
"g 	c #A7A791",
"h 	c #A8AA96",
"i 	c #DCDCC9",
"j 	c #E3E3D1",
"k 	c #E7E6D6",
"l 	c #131310",
"m 	c #11110E",
"n 	c #404037",
"o 	c #34332C",
"p 	c #D7D6C3",
"q 	c #848478",
"r 	c #1A1916",
"s 	c #2C2C25",
"t 	c #707062",
"u 	c #070706",
"v 	c #141411",
"w 	c #767666",
"x 	c #989884",
"y 	c #A7AB9A",
"z 	c #D1D0BF",
"A 	c #E3E2D2",
"B 	c #414239",
"C 	c #393931",
"D 	c #3B3B33",
"E 	c #7E7F6F",
"F 	c #151612",
"G 	c #1D1E19",
"H 	c #49483F",
"I 	c #505046",
"J 	c #8C8C7F",
"K 	c #0E0E0C",
"L 	c #59594E",
"M 	c #797869",
"N 	c #3E3E36",
"O 	c #141410",
"P 	c #20201D",
"Q 	c #67665C",
"R 	c #2F2F2D",
"S 	c #6A695C",
"T 	c #56574B",
"U 	c #818170",
"V 	c #808070",
"W 	c #787868",
"X 	c #6D6D61",
"Y 	c #666659",
"Z 	c #878676",
"` 	c #5C5C56",
" .	c #656558",
"..	c #5B5B51",
"+.	c #979887",
"@.	c #9D9F8B",
"#.	c #A0A28E",
"$.	c #CACAB3",
"%.	c #D0D0BC",
"&.	c #D2D2BD",
"*.	c #575751",
"=.	c #47473E",
"-.	c #4D4D42",
";.	c #979884",
">.	c #9E9E8B",
",.	c #A6A691",
"'.	c #C9C9B6",
").	c #CFCFBE",
"!.	c #CAC9B7",
"~.	c #272721",
"{.	c #888977",
"].	c #868776",
"^.	c #8B8C7A",
"/.	c #ACAC99",
"(.	c #B5B5A1",
"_.	c #B2B29F",
":.	c #23251F",
"<.	c #31322A",
"[.	c #58584C",
"}.	c #656557",
"|.	c #68685A",
"1.	c #7C7B6C",
"2.	c #91917F",
"3.	c #6E7165",
"4.	c #31312A",
"5.	c #6E6D5F",
"6.	c #6D6C5E",
"7.	c #828371",
"8.	c #9F9F8B",
"9.	c #AFB2A3",
"0.	c #0D0D0B",
"a.	c #3F3F36",
"b.	c #686759",
"c.	c #6D6C5D",
"d.	c #7B7B6B",
"e.	c #939684",
"f.	c #A1A18E",
"g.	c #A4A794",
"h.	c #2C2C27",
"i.	c #10100D",
"j.	c #737364",
"k.	c #828272",
"l.	c #90907F",
"m.	c #A2A28C",
"n.	c #B9BAA6",
"o.	c #AEAF9C",
"p.	c #646356",
"q.	c #AEAE99",
"r.	c #B5B6A2",
"s.	c #BBBAA5",
"t.	c #E5E4D3",
"u.	c #D2D2C0",
"v.	c #D5D5C3",
"w.	c #33332C",
"x.	c #B7B7A2",
"y.	c #D8D7C7",
"z.	c #D4D3C1",
"A.	c #AAAB97",
"B.	c #0B0B09",
"C.	c #191A16",
"D.	c #B2B4A2",
"E.	c #B2B39F",
"F.	c #CFCEBB",
"G.	c #A3A490",
"H.	c #5E5E52",
"I.	c #0B0B0A",
"J.	c #91917E",
"K.	c #A8AD9B",
"L.	c #C1C1AE",
"M.	c #CDCDBB",
"N.	c #A2A390",
"O.	c #B2B5A6",
"P.	c #8A8B79",
"Q.	c #23231E",
"R.	c #57574B",
"S.	c #8C8C7A",
"T.	c #A2A28D",
"U.	c #B3B39E",
"V.	c #B4B4A1",
"W.	c #8B8B7A",
"X.	c #8E8D7C",
"Y.	c #282823",
"Z.	c #8A8A7A",
"`.	c #46463C",
" +	c #56564A",
".+	c #646557",
"++	c #7E7E6F",
"@+	c #848575",
"#+	c #8A8A79",
"$+	c #8F8F7F",
"%+	c #464841",
"&+	c #3A3A33",
"*+	c #8E8F80",
"=+	c #7F7F6E",
"-+	c #45463D",
";+	c #44433A",
">+	c #5A5A4D",
",+	c #5D5C50",
"'+	c #898977",
")+	c #A7A698",
"!+	c #20221D",
"~+	c #0E0E0B",
"{+	c #7A7A6B",
"]+	c #535349",
"^+	c #A6A690",
"/+	c #59594C",
"(+	c #303129",
"_+	c #4B4B40",
":+	c #4E4F43",
"<+	c #505146",
"[+	c #6A6B5D",
"}+	c #777767",
"|+	c #393932",
"1+	c #91907E",
"2+	c #6E6E60",
"3+	c #545448",
"4+	c #44443A",
"5+	c #535448",
"6+	c #4B4C40",
"7+	c #4E4E43",
"8+	c #777667",
"9+	c #8B8B79",
"0+	c #7B7B6C",
"a+	c #494B45",
"b+	c #616155",
"c+	c #67665A",
"d+	c #A2A28F",
"e+	c #3D3D34",
"f+	c #3A3931",
"g+	c #47493E",
"h+	c #555649",
"i+	c #5B5B4E",
"j+	c #757566",
"k+	c #919383",
"l+	c #35352D",
"m+	c #20201B",
"n+	c #55554A",
"o+	c #1E1F1A",
"p+	c #080907",
"q+	c #292923",
"r+	c #2C2C26",
"s+	c #3C3D33",
"t+	c #4A4B40",
"u+	c #BBBCAB",
"v+	c #1B1B17",
"w+	c #43433A",
"x+	c #0F0F0C",
"y+	c #282922",
"z+	c #3E3F36",
"A+	c #626255",
"B+	c #32332D",
"C+	c #22221D",
"D+	c #262621",
"E+	c #4D4D41",
"F+	c #414138",
"G+	c #585A4F",
"H+	c #5A5A52",
"I+	c #090907",
"J+	c #0A0B09",
"K+	c #0C0C0A",
"L+	c #0F0F0D",
"M+	c #161612",
"N+	c #282822",
"O+	c #25251F",
"P+	c #131410",
"Q+	c #30302B",
"R+	c #2C2E29",
"S+	c #5E6156",
"T+	c #93947F",
"U+	c #8B8C79",
"V+	c #605F54",
"W+	c #706F60",
"X+	c #9F9E89",
"Y+	c #979883",
"Z+	c #8F907C",
"`+	c #A8A995",
" @	c #C5C4AA",
".@	c #C0BFA8",
"+@	c #BDBDA6",
"@@	c #C4C3AA",
"#@	c #C3C2A9",
"$@	c #929382",
"%@	c #BBBAA4",
"&@	c #BFBEA9",
"*@	c #C1C0AD",
"=@	c #C9C8B5",
"-@	c #9C9D88",
";@	c #BCBCAA",
"                                                                                                ",
"                                                                                                ",
"                                                                                                ",
"                                                                                                ",
"                                                                                                ",
"                                                                                                ",
"                                                                                                ",
"                                                                                                ",
"                                            . + @                                               ",
"                                          # $ $ @ %                                             ",
"                                          & * = - ; >                                           ",
"                                        , ' ) ! ~ { ] ^ /                                       ",
"                                      ( _ : : < [ } | 1 2 3                                     ",
"                                    4 5 : : : : 6 7 8 9 0 a b                                   ",
"                                    c : d e : : f g g h i j k                                   ",
"                                    l _ m n : : o g g g p % %                                   ",
"                                  q : r s t u : v w x y z k A                                   ",
"                                  B : C D E F : : : : G H I J                                   ",
"                                  K : L I M N O : : m P Q                                       ",
"                                  R : S T U V W X Y Z                                           ",
"                                  ` :  ...+.@.#.$.%.&.                                          ",
"                                  *.: =.-.;.>.,.'.).!.                                          ",
"                                  : : K ~.{.].^./.(._.                                          ",
"                                  :.: : _ <.[.}.|.1.2.                                          ",
"                                  3.: : : u 4. .5.6.7.8.9.                                      ",
"                                    0.: : : _ a.b.c.d.e.f.g.                                    ",
"                                    h.: : : : i.j.k.l.m.n.o.                                    ",
"                                      l : : : : p.q.r.s.t.u.v.                                  ",
"                                        K : : : w.x.$ $ y.z.A.                                  ",
"                                        B.B.: : C.D.E.r.F.b G.                                  ",
"                                          H.5 : I.J.g K.L.M.N.O.                                ",
"                                          P.Q.: 5 R.S.T.U.V.W.X.                                ",
"                                        Y.Z.C : u `. +.+++@+#+$+                                ",
"                                  %+&+*+f =+-+: _ ;+}.>+,+'+W.)+                                ",
"                                  !+~+{+]+^+/+: _ (+_+:+<+[+}+2.                                ",
"                                  |+: 1+2+g 3+: u 4+5+6+7+8+9+0+                                ",
"                                  a+: b+c+d+e+: u s f+g+h+i+j+k+                                ",
"                                  l+: m+n+l.o+: p+q+r+s+t+-. +u+                                ",
"                                    : d v+w+_ : x+y+q+~.z+A+j.                                  ",
"                                    B+: : : : : K m+C+D+E+F+G+                                  ",
"                                    H+I+: : : : J+K+L+M+N+Q.                                    ",
"                                      O+u : : : _ _ u K P+a.                                    ",
"                                        Q+C+5 : : : B.R+S+                                      ",
"                                          T+U+}.V+W+X+                                          ",
"                                          Y+Y+Z+`+ @.@                                          ",
"                                          | Y+Y++@@@#@                                          ",
"                                          $@Y+Y+%@&@*@                                          ",
"                                            =@-@;@                                              "};
