/* XPM */
static char * g3_xpm[] = {
"48 48 305 2",
"  	c None",
". 	c #E6E6D7",
"+ 	c #E9E8D8",
"@ 	c #7D7D76",
"# 	c #D7D8D2",
"$ 	c #DFDFD5",
"% 	c #65665F",
"& 	c #B8B8AF",
"* 	c #AAAA9D",
"= 	c #959585",
"- 	c #8C8C7D",
"; 	c #969685",
"> 	c #42443D",
", 	c #141411",
"' 	c #0B0B09",
") 	c #141511",
"! 	c #3A3B33",
"~ 	c #6B6C5D",
"{ 	c #858574",
"] 	c #A8A996",
"^ 	c #151613",
"/ 	c #050504",
"( 	c #0D0D0B",
"_ 	c #828371",
": 	c #ADAC97",
"< 	c #B0B09B",
"[ 	c #BFBFAC",
"} 	c #BDBDA8",
"| 	c #0A0A08",
"1 	c #2A2A24",
"2 	c #B7B6A2",
"3 	c #BDBCA6",
"4 	c #C3C2A9",
"5 	c #D5D5C1",
"6 	c #D1D1BE",
"7 	c #23231E",
"8 	c #1C1C19",
"9 	c #090908",
"0 	c #949481",
"a 	c #C6C5AB",
"b 	c #C8C7AD",
"c 	c #DBDBC9",
"d 	c #E2E1CF",
"e 	c #E3E2D1",
"f 	c #060605",
"g 	c #161713",
"h 	c #4B4B44",
"i 	c #56574D",
"j 	c #616155",
"k 	c #D1D1BA",
"l 	c #D4D4BF",
"m 	c #D8D8C3",
"n 	c #DFDECC",
"o 	c #2C2C26",
"p 	c #282722",
"q 	c #4C4C41",
"r 	c #4F4E45",
"s 	c #AFAE9B",
"t 	c #1B1B17",
"u 	c #2E2E28",
"v 	c #AAAB9A",
"w 	c #D1D2BD",
"x 	c #D7D7C2",
"y 	c #E5E4D3",
"z 	c #3D3E39",
"A 	c #555549",
"B 	c #666658",
"C 	c #4F5047",
"D 	c #B7B7A4",
"E 	c #4D4E47",
"F 	c #151512",
"G 	c #525248",
"H 	c #B9B9AC",
"I 	c #20211C",
"J 	c #080806",
"K 	c #939380",
"L 	c #91917E",
"M 	c #505047",
"N 	c #A6AB9A",
"O 	c #818273",
"P 	c #24241F",
"Q 	c #070705",
"R 	c #0E0E0C",
"S 	c #20201D",
"T 	c #53534D",
"U 	c #0A0A09",
"V 	c #080807",
"W 	c #B2B2A2",
"X 	c #ABAB9D",
"Y 	c #53554B",
"Z 	c #ACB19F",
"` 	c #B0B4A3",
" .	c #AAAB99",
"..	c #6A6A5D",
"+.	c #66665A",
"@.	c #A2A18E",
"#.	c #A9A995",
"$.	c #5D5D50",
"%.	c #C3C3B5",
"&.	c #C4C5B7",
"*.	c #C8C8B9",
"=.	c #CFCEBB",
"-.	c #D1D1BC",
";.	c #626255",
">.	c #777768",
",.	c #535349",
"'.	c #C0BFA9",
").	c #C7C7B7",
"!.	c #CBCBBC",
"~.	c #D2D2BD",
"{.	c #D2D1BB",
"].	c #1A1A16",
"^.	c #383830",
"/.	c #4A4B43",
"(.	c #A9AC99",
"_.	c #A6A797",
":.	c #A7A897",
"<.	c #B3B4A2",
"[.	c #BEBEAA",
"}.	c #363630",
"|.	c #060604",
"1.	c #12120F",
"2.	c #35352E",
"3.	c #5E5E51",
"4.	c #757465",
"5.	c #797969",
"6.	c #8A8A7A",
"7.	c #2F2F29",
"8.	c #181814",
"9.	c #545448",
"0.	c #7F8070",
"a.	c #828374",
"b.	c #818271",
"c.	c #999987",
"d.	c #0C0C0B",
"e.	c #090907",
"f.	c #3D3D34",
"g.	c #757566",
"h.	c #7E7E6D",
"i.	c #8F907D",
"j.	c #9C9D8B",
"k.	c #B3B3A2",
"l.	c #41413B",
"m.	c #535347",
"n.	c #959683",
"o.	c #A0A08D",
"p.	c #AEAE9B",
"q.	c #BBBBA8",
"r.	c #BCBCAB",
"s.	c #4C4E48",
"t.	c #090A08",
"u.	c #11110E",
"v.	c #ACAB97",
"w.	c #D2D2BC",
"x.	c #D6D6C1",
"y.	c #DEDDCA",
"z.	c #D8D7C6",
"A.	c #D3D2C0",
"B.	c #525249",
"C.	c #232421",
"D.	c #605F54",
"E.	c #E1E0CF",
"F.	c #A9AB98",
"G.	c #252520",
"H.	c #070706",
"I.	c #2C2C28",
"J.	c #CECFC0",
"K.	c #D6D7C8",
"L.	c #D9D9D0",
"M.	c #E9E8D7",
"N.	c #BBBCAA",
"O.	c #B4B4A3",
"P.	c #5A5A4E",
"Q.	c #7C7D6D",
"R.	c #10100E",
"S.	c #131310",
"T.	c #B3B3A9",
"U.	c #DADBD2",
"V.	c #DFDFD3",
"W.	c #E1E0D1",
"X.	c #B6B5A1",
"Y.	c #A9AA96",
"Z.	c #5A5A4F",
"`.	c #A7A994",
" +	c #656559",
".+	c #777769",
"++	c #B5B6A6",
"@+	c #CECFBA",
"#+	c #CDCDB8",
"$+	c #969683",
"%+	c #A4A697",
"&+	c #A1A192",
"*+	c #AAAC9A",
"=+	c #56564B",
"-+	c #A7A791",
";+	c #91917F",
">+	c #0F0F0C",
",+	c #525146",
"'+	c #737364",
")+	c #828272",
"!+	c #909280",
"~+	c #868676",
"{+	c #A3A393",
"]+	c #282824",
"^+	c #626258",
"/+	c #B6B6A9",
"(+	c #B5B5A5",
"_+	c #4F4F45",
":+	c #9A9C8B",
"<+	c #939382",
"[+	c #1D1D19",
"}+	c #49493F",
"|+	c #747464",
"1+	c #6F6E60",
"2+	c #727263",
"3+	c #8D8E7B",
"4+	c #131311",
"5+	c #404138",
"6+	c #B2B39F",
"7+	c #9A9B8A",
"8+	c #59584E",
"9+	c #B8B8A4",
"0+	c #B3B29E",
"a+	c #2D2D27",
"b+	c #3A3931",
"c+	c #5D5C50",
"d+	c #646456",
"e+	c #A1A190",
"f+	c #4D4E44",
"g+	c #20201B",
"h+	c #D3D3BE",
"i+	c #BBBBA7",
"j+	c #5B5B50",
"k+	c #B9B8A4",
"l+	c #AEAD99",
"m+	c #20201C",
"n+	c #4E4E43",
"o+	c #686759",
"p+	c #848473",
"q+	c #A9A998",
"r+	c #929281",
"s+	c #B0AF9A",
"t+	c #9A9989",
"u+	c #0C0C0A",
"v+	c #2E2E27",
"w+	c #47473D",
"x+	c #5B5B4E",
"y+	c #5E5D50",
"z+	c #656457",
"A+	c #30302C",
"B+	c #292923",
"C+	c #8F8F7D",
"D+	c #B8B7A3",
"E+	c #58584D",
"F+	c #37372F",
"G+	c #3D3F35",
"H+	c #4E4F43",
"I+	c #515245",
"J+	c #56564A",
"K+	c #575851",
"L+	c #262620",
"M+	c #45453C",
"N+	c #5D5D52",
"O+	c #1C1C18",
"P+	c #414138",
"Q+	c #3F3F36",
"R+	c #3B3C33",
"S+	c #5B5A4E",
"T+	c #252621",
"U+	c #20211B",
"V+	c #32322B",
"W+	c #37382F",
"X+	c #3A3A32",
"Y+	c #78796F",
"Z+	c #11110F",
"`+	c #161612",
" @	c #34342D",
".@	c #30302B",
"+@	c #070806",
"@@	c #0A0B08",
"#@	c #10110E",
"$@	c #3D3E37",
"%@	c #5E5E56",
"&@	c #1E1E1A",
"*@	c #11120F",
"=@	c #44443F",
"-@	c #59594D",
";@	c #A1A492",
">@	c #8E907F",
",@	c #6F7062",
"'@	c #7D7D6E",
")@	c #ABAC97",
"!@	c #A8AD9C",
"~@	c #A5A795",
"{@	c #C4C3A9",
"]@	c #CBCAB4",
"^@	c #A7A995",
"/@	c #A7A792",
"(@	c #B3B4A0",
"_@	c #CACAB4",
":@	c #6A6A5C",
"<@	c #B0AF98",
"[@	c #C4C3AC",
"}@	c #C6C5B7",
"|@	c #B4B4A0",
"                                                                                                ",
"                                                                                                ",
"                                                                                                ",
"                                                                                                ",
"                                                                                                ",
"                                                                                                ",
"                                                                                                ",
"                                                                                                ",
"                                              . +                                               ",
"                                          @ # $ + +                                             ",
"                                          % & * = - ;                                           ",
"                                        > , , ' ) ! ~ { ]                                       ",
"                                      ^ / / / / / ( _ : < [ }                                   ",
"                                    | / / / / / / / 1 2 3 4 5 6                                 ",
"                                  7 / / / 8 ' / / / 9 0 a b c d e                               ",
"                                  | / f g h i / / / / j k l m + n                               ",
"                                o / / p q r s t / / / u v w x + y                               ",
"                                z / f A B C D E / / / / / F G = H                               ",
"                                I / J K L M N O P Q / R S T                                     ",
"                                U / V W X Y Z `  ...+.                                          ",
"                                / / J @.#.$.%.&.*.=.-.                                          ",
"                                f / f ;.>.,.'.).!.~.{.                                          ",
"                                ]./ / ( ^./.(._.:.<.[.                                          ",
"                                }./ / / |.1.2.3.4.5.6.                                          ",
"                                7./ / / / / / 8.9.0.a.b.c.                                      ",
"                                  d./ / / / / / e.f.g.h.i.j.k.                                  ",
"                                  l.f / / / / / / / m.n.o.p.q.r.                                ",
"                                    s.t./ / / / / / u.v.w.x.y.z.A.                              ",
"                                      B.C./ / / / / / D.x.x.m E.F.                              ",
"                                          G.H./ / / / I.J.K.L.M.N.O.                            ",
"                                          P.Q.R./ / / S.T.U.V.W.X.Y.                            ",
"                                          Z.`. +/ / / Q .+++@+#+$+%+                            ",
"                                      &+*+=+-+;+>+/ / / ,+'+)+!+~+{+                            ",
"                                h ]+^+/+(+_+:+<+[+/ / / }+|+1+2+3+<+                            ",
"                              4+/ / 5+6+7+8+9+0+a+/ / / b+c+$.d+2+e+                            ",
"                              f+/ / g+h+i+j+k+l+m+/ / / n+o+3.3.p+q+                            ",
"                                J / H.r+s+Z.k+t+u+/ / Q v+w+x+y+z+-                             ",
"                                A+/ / B+C+8+D+E+/ / / ( F+G+H+I+J+                              ",
"                                K+/ / |.L+M+N+| / / / O+P+Q+R+S+.+                              ",
"                                  T+/ / / / / / / / / U+V+W+P+X+Y+                              ",
"                                    Z+/ / / / / / / J 1.`+t P  @                                ",
"                                      .@/ / / / / / f +@@@#@$@                                  ",
"                                        %@&@*@/ / / / u+=@                                      ",
"                                          -@;@>@,@..'@                                          ",
"                                          Z.)@!@~@{@]@                                          ",
"                                          -@^@/@(@a _@                                          ",
"                                          :@-+-+<@[@}@                                          ",
"                                              [@|@                                              "};
