/* XPM */
static char * g5_xpm[] = {
"48 48 328 2",
"  	c None",
". 	c #707067",
"+ 	c #DCDBCB",
"@ 	c #E5E5D7",
"# 	c #E4E3D2",
"$ 	c #505045",
"% 	c #DAD9C9",
"& 	c #E9E8D8",
"* 	c #DADAC7",
"= 	c #3F3F36",
"- 	c #7E7E71",
"; 	c #727266",
"> 	c #626256",
", 	c #5F5F54",
"' 	c #626258",
") 	c #656658",
"! 	c #818476",
"~ 	c #5D6057",
"{ 	c #3A3A32",
"] 	c #43433B",
"^ 	c #2C2C25",
"/ 	c #272721",
"( 	c #282822",
"_ 	c #1F1F1A",
": 	c #22231D",
"< 	c #32322B",
"[ 	c #5D5D50",
"} 	c #A9A995",
"| 	c #CBCAB6",
"1 	c #828276",
"2 	c #30302A",
"3 	c #1E1E19",
"4 	c #252520",
"5 	c #25251F",
"6 	c #1B1B17",
"7 	c #20201B",
"8 	c #272621",
"9 	c #797869",
"0 	c #CCCBB4",
"a 	c #D3D3BF",
"b 	c #59584D",
"c 	c #22221D",
"d 	c #191916",
"e 	c #1D1D19",
"f 	c #979685",
"g 	c #D6D6C1",
"h 	c #D7D7C8",
"i 	c #292922",
"j 	c #2E2F28",
"k 	c #3B3B32",
"l 	c #77776A",
"m 	c #2D2D27",
"n 	c #24241E",
"o 	c #3B3B33",
"p 	c #D0CFBE",
"q 	c #E3E2D0",
"r 	c #42443C",
"s 	c #23231D",
"t 	c #23231E",
"u 	c #303029",
"v 	c #4D4C42",
"w 	c #46473C",
"x 	c #31312A",
"y 	c #A5A596",
"z 	c #79796A",
"A 	c #1E1E1A",
"B 	c #1C1C18",
"C 	c #292923",
"D 	c #8C8C7E",
"E 	c #2A2A24",
"F 	c #2A2A23",
"G 	c #69695B",
"H 	c #7D7D6D",
"I 	c #58584B",
"J 	c #ACAB98",
"K 	c #B8B7A3",
"L 	c #707062",
"M 	c #42423A",
"N 	c #C7C6B6",
"O 	c #E7E6D5",
"P 	c #DADAC8",
"Q 	c #3D3D34",
"R 	c #34342D",
"S 	c #A1A390",
"T 	c #9C9D8B",
"U 	c #7F7F6E",
"V 	c #383830",
"W 	c #A6A592",
"X 	c #AEAE9B",
"Y 	c #9C9E8C",
"Z 	c #2F2F28",
"` 	c #21211C",
" .	c #131310",
"..	c #0E0E0C",
"+.	c #0D0D0B",
"@.	c #747568",
"#.	c #D6D6C5",
"$.	c #5A5A51",
"%.	c #262620",
"&.	c #515146",
"*.	c #BFBFA8",
"=.	c #B7B6A2",
"-.	c #959583",
";.	c #36362E",
">.	c #959581",
",.	c #A0A390",
"'.	c #9E9F8A",
").	c #595B50",
"!.	c #0F0F0D",
"~.	c #11110E",
"{.	c #393933",
"].	c #42423F",
"^.	c #67675B",
"/.	c #55554C",
"(.	c #C3C2AA",
"_.	c #C2C1AA",
":.	c #A09F8C",
"<.	c #36362F",
"[.	c #A2A390",
"}.	c #AEAE98",
"|.	c #AAAA93",
"1.	c #C1C2B0",
"2.	c #54554B",
"3.	c #1D1D18",
"4.	c #373830",
"5.	c #CACAB6",
"6.	c #C7C6AF",
"7.	c #A7A792",
"8.	c #424339",
"9.	c #C5C5B1",
"0.	c #D2D1BE",
"a.	c #C5C4B0",
"b.	c #D4D3C2",
"c.	c #69695A",
"d.	c #868775",
"e.	c #777767",
"f.	c #3D3E34",
"g.	c #BCBBA5",
"h.	c #D3D3BD",
"i.	c #C9C9B3",
"j.	c #5E5E56",
"k.	c #535348",
"l.	c #37382F",
"m.	c #9A9C8B",
"n.	c #A1A391",
"o.	c #A3A490",
"p.	c #C0C0AE",
"q.	c #818174",
"r.	c #181814",
"s.	c #747565",
"t.	c #91917F",
"u.	c #949482",
"v.	c #AAAB97",
"w.	c #44443D",
"x.	c #1A1A16",
"y.	c #2B2B25",
"z.	c #676759",
"A.	c #8E8E7B",
"B.	c #999A85",
"C.	c #B0B09D",
"D.	c #272722",
"E.	c #2E2E28",
"F.	c #858574",
"G.	c #9D9D89",
"H.	c #BABAA5",
"I.	c #33332D",
"J.	c #1F1F1B",
"K.	c #4C4C42",
"L.	c #989A89",
"M.	c #B0B3A1",
"N.	c #CFD0BF",
"O.	c #6D6C60",
"P.	c #35352F",
"Q.	c #171713",
"R.	c #191915",
"S.	c #24241F",
"T.	c #545449",
"U.	c #D7D7C5",
"V.	c #DDDDCC",
"W.	c #66665D",
"X.	c #383832",
"Y.	c #161613",
"Z.	c #7A7A6E",
"`.	c #E7E6D6",
" +	c #E8E7D6",
".+	c #CACCBD",
"++	c #6A6D61",
"@+	c #282823",
"#+	c #20201C",
"$+	c #33342D",
"%+	c #CDCCBC",
"&+	c #D3D2C0",
"*+	c #44453B",
"=+	c #838474",
"-+	c #3C3C33",
";+	c #262621",
">+	c #88887A",
",+	c #E1E0CE",
"'+	c #A9A994",
")+	c #494A40",
"!+	c #ADAC99",
"~+	c #B9B8A4",
"{+	c #46473E",
"]+	c #44443B",
"^+	c #B4B4A0",
"/+	c #CACAB5",
"(+	c #A4A695",
"_+	c #B7B7A7",
":+	c #C4C4B5",
"<+	c #46463D",
"[+	c #ACAC96",
"}+	c #A3A393",
"|+	c #2D2D26",
"1+	c #737263",
"2+	c #848472",
"3+	c #969786",
"4+	c #65655A",
"5+	c #56564B",
"6+	c #3E3E35",
"7+	c #404037",
"8+	c #9F9E8B",
"9+	c #B9B8A3",
"0+	c #B4B5A2",
"a+	c #B0B1A1",
"b+	c #9D9D8A",
"c+	c #B0B09C",
"d+	c #A6A692",
"e+	c #BCBCAC",
"f+	c #46463E",
"g+	c #828372",
"h+	c #7C7D6E",
"i+	c #858676",
"j+	c #56564C",
"k+	c #161612",
"l+	c #B5B59D",
"m+	c #B5B4A0",
"n+	c #B8B8A4",
"o+	c #ADAD9D",
"p+	c #4A4A41",
"q+	c #C3C3AF",
"r+	c #CBCBB4",
"s+	c #D2D1C0",
"t+	c #54554C",
"u+	c #33342C",
"v+	c #737364",
"w+	c #6B6B5D",
"x+	c #868776",
"y+	c #5C5C56",
"z+	c #B0AF9D",
"A+	c #DDDDCB",
"B+	c #E1E0CF",
"C+	c #BABAA7",
"D+	c #49493F",
"E+	c #C8C8B4",
"F+	c #C8C8B6",
"G+	c #414138",
"H+	c #818170",
"I+	c #767666",
"J+	c #929286",
"K+	c #98988E",
"L+	c #181815",
"M+	c #5B5B50",
"N+	c #DEDDCB",
"O+	c #DFDFCC",
"P+	c #BFBFAC",
"Q+	c #48483D",
"R+	c #A7A898",
"S+	c #31322A",
"T+	c #505044",
"U+	c #959586",
"V+	c #4C4C43",
"W+	c #6F6F62",
"X+	c #CDCDB9",
"Y+	c #B4B39F",
"Z+	c #46463B",
"`+	c #D4D4BF",
" @	c #AFAF9A",
".@	c #48483E",
"+@	c #5A594D",
"@@	c #68685A",
"#@	c #8A8A7E",
"$@	c #21211D",
"%@	c #848373",
"&@	c #414137",
"*@	c #ADAD9B",
"=@	c #727264",
"-@	c #5F5E51",
";@	c #515245",
">@	c #838377",
",@	c #505047",
"'@	c #2C2C26",
")@	c #37372F",
"!@	c #191A16",
"~@	c #393931",
"{@	c #4C4C41",
"]@	c #79796B",
"^@	c #545349",
"/@	c #20211C",
"(@	c #62635C",
"_@	c #40423A",
":@	c #11120F",
"<@	c #12120F",
"[@	c #393934",
"}@	c #64655D",
"|@	c #45443B",
"1@	c #2E2D27",
"2@	c #161713",
"3@	c #0E0F0C",
"4@	c #0B0B09",
"5@	c #7D7C71",
"6@	c #45453C",
"7@	c #6B6A5E",
"8@	c #4F4F44",
"9@	c #515249",
"0@	c #555650",
"a@	c #B8B89F",
"b@	c #A9AA96",
"c@	c #CCCCB9",
"d@	c #C6C5AB",
"e@	c #BCBCA6",
"f@	c #D0CFBD",
"g@	c #45453D",
"h@	c #B3B29C",
"i@	c #BEBDA6",
"j@	c #67685C",
"k@	c #B9BAA9",
"l@	c #C1C0AB",
"m@	c #C4C3B1",
"                                                                                                ",
"                                                                                                ",
"                                                                                                ",
"                                                                                                ",
"                                                                                                ",
"                                                                                                ",
"                                                                                                ",
"                                                                                                ",
"                                            . + @ #                                             ",
"                                            $ % & *                                             ",
"                                            = - ; > , ' ) !                                     ",
"                                    ~ { ] ^ / ( ( ( _ : < [ } |                                 ",
"                                1 2 3 / ( ( / 4 ( ( 5 6 7 8 9 0 a                               ",
"                              b c d e ( ( ( ( ( ( ( ( _ e 6 / f g h                             ",
"                              4 6 _ ( ( i j k l m / / n 6 6 3 o p & q                           ",
"                            r s t ( ( u v w x y z / t t t A B C D & #                           ",
"                            E ( ( ( F G H I x J K L ( ( ( ( n t M N O P                         ",
"                          Q ( ( ( ( R S T U V W X Y Z n ` B  ...+.` @.#.                        ",
"                          $.( ( %.c &.*.=.-.;.>.,.'.).!.+.~.{.].^.                              ",
"                          /.( ` 7 ( $ (._.:.<.[.}.|.1.                                          ",
"                          2.` 3.t ( 4.5.6.7.8.9.0.a.b.                                          ",
"                          2.6 6 _ ( C c.d.e.f.g.h.i.b.                                          ",
"                          j.6 6 6 t ` 3 { k.l.m.n.o.p.                                          ",
"                          q.r.B ` 6 6 _ ( ( / E o s.t.u.v.                                      ",
"                            w.t 3 6 x.4 ( ( %.B ` y.{ z.A.B.C.                                  ",
"                              x B d ` c %.( ( D._ 4 ( ( E.b F.G.H.                              ",
"                                I.3 6 ` 5 4 / J.r.` t _ 6 n K.L.M.N.                            ",
"                                  O.P.B Q.r.e 3.R.r.B B S.( 4 T.U.& V.                          ",
"                                      W.X.Y.6 6 R.A 7 %.( n ( t Z.`. +.+                        ",
"                                          ++@+E #+( ( ( %./ ( t $+%+& &+                        ",
"                                            *+W =+-+( n ;+( ( S.e >+O ,+'+                      ",
"                                            )+!+~+'+{+;+( ( c ` 7 ]+^+/+(+                      ",
"                                    _+:+    <+J ~+[+}+|+( ( t B 7 R 1+2+3+                      ",
"                          &.4+5+6+7+8+9+0+a+]+b+c+d+e+f+( ( ( 6 3.x g+h+i+                      ",
"                        j+3 7 Q.k+|+l+m+n+o+p+q+g r+s+t+( ( ( n %.u+v+w+x+                      ",
"                        y+Q.B r.4 / z+A+B+C+D+E+g r+F+<+( %.4 ( 7 G+H+I+J+                      ",
"                        K+r.6 L+c D.M+N+O+P+Q+E+g r+R+E c / 5 ( n S+T+z.U+                      ",
"                          V+R.B x./ C W+X+Y+Z+E+`+ @G+6 6 6 3 5 E .@+@@@                        ",
"                          #@$@3.Y.4 ( C $ %@&@*@=@E 6 6 6 6 x.A Q -@;@>@                        ",
"                            ,@` 3.3 ( ( ( ^ '@)@( c R.x.6 6 !@B ~@{@]@                          ",
"                              ^@e Q.%./ ;+( S.%.( x.x.6 6 6 6 6 /@(@                            ",
"                                  _@7 ( ( ( %./ ( 7 d 6 e Q.:@<@[@                              ",
"                                      }@|@1@/ t n %.B 2@3@4@4 5@                                ",
"                                            6@H+7@8@T.9@0@                                      ",
"                                            )+a@(.b@c@                                          ",
"                                            .@a@d@e@f@                                          ",
"                                            g@h@d@i@|                                           ",
"                                            j@k@l@m@                                            "};
