/* XPM */
static char * g8_xpm[] = {
"48 48 439 2",
"  	c None",
". 	c #56564D",
"+ 	c #B3B39F",
"@ 	c #CDCEBB",
"# 	c #20211C",
"$ 	c #9EA08C",
"% 	c #CECDB6",
"& 	c #8E8F81",
"* 	c #8A8B7B",
"= 	c #818372",
"- 	c #57574B",
"; 	c #979A87",
"> 	c #ADAE9A",
", 	c #AEB19F",
"' 	c #BEC0AC",
") 	c #5B5D53",
"! 	c #5D5D52",
"~ 	c #666558",
"{ 	c #7A7A6C",
"] 	c #A4A490",
"^ 	c #A8AD9B",
"/ 	c #A1A28D",
"( 	c #9B9C87",
"_ 	c #9FA08D",
": 	c #B7B7A4",
"< 	c #B5B4A0",
"[ 	c #949481",
"} 	c #7D7E70",
"| 	c #9D9D8D",
"1 	c #66675B",
"2 	c #535448",
"3 	c #68685A",
"4 	c #69685A",
"5 	c #69695B",
"6 	c #959582",
"7 	c #A7A791",
"8 	c #ABB1A0",
"9 	c #AFAF9A",
"0 	c #A2A28E",
"a 	c #A2A38E",
"b 	c #AEAE99",
"c 	c #B9B8A4",
"d 	c #B1B19E",
"e 	c #808070",
"f 	c #797869",
"g 	c #818173",
"h 	c #A4A494",
"i 	c #4B4C42",
"j 	c #5C5C4F",
"k 	c #6B6A5C",
"l 	c #6E6E5F",
"m 	c #6C6C5D",
"n 	c #898978",
"o 	c #A6A691",
"p 	c #ABAB95",
"q 	c #B4B5A2",
"r 	c #9B9B88",
"s 	c #B7B6A2",
"t 	c #A9A996",
"u 	c #9A9A86",
"v 	c #6F6E60",
"w 	c #848473",
"x 	c #808071",
"y 	c #B0B2A2",
"z 	c #64655C",
"A 	c #626356",
"B 	c #6B6B5C",
"C 	c #706F60",
"D 	c #9B9B86",
"E 	c #A0A08B",
"F 	c #858777",
"G 	c #B5B5A1",
"H 	c #80806F",
"I 	c #A3A492",
"J 	c #B0AF9B",
"K 	c #A9A994",
"L 	c #B1B19D",
"M 	c #6E6D5F",
"N 	c #6A695B",
"O 	c #8B8B7A",
"P 	c #C1C1AE",
"Q 	c #7B7C75",
"R 	c #616154",
"S 	c #9A9B88",
"T 	c #9C9D8A",
"U 	c #A1A18C",
"V 	c #A6A690",
"W 	c #888876",
"X 	c #535347",
"Y 	c #282922",
"Z 	c #8C8D7C",
"` 	c #535449",
" .	c #8A8A78",
"..	c #888977",
"+.	c #78796A",
"@.	c #757566",
"#.	c #777768",
"$.	c #A8A997",
"%.	c #CACABA",
"&.	c #3B3D35",
"*.	c #888976",
"=.	c #9E9F8E",
"-.	c #A2A38F",
";.	c #A2A28D",
">.	c #8C8C79",
",.	c #7B7C6D",
"'.	c #6D6D5F",
").	c #1D1D19",
"!.	c #868677",
"~.	c #8E9080",
"{.	c #32332D",
"].	c #1C1C18",
"^.	c #7D7D6D",
"/.	c #959581",
"(.	c #969682",
"_.	c #90917D",
":.	c #898A79",
"<.	c #808171",
"[.	c #949482",
"}.	c #BEBDAA",
"|.	c #4F5045",
"1.	c #969783",
"2.	c #989986",
"3.	c #9B9C8D",
"4.	c #A3A38E",
"5.	c #8D8D7A",
"6.	c #848474",
"7.	c #949484",
"8.	c #1E1E1A",
"9.	c #848576",
"0.	c #A3A38F",
"a.	c #10100D",
"b.	c #505045",
"c.	c #A7A995",
"d.	c #9C9C88",
"e.	c #787969",
"f.	c #636458",
"g.	c #6B6B5E",
"h.	c #A1A297",
"i.	c #48483E",
"j.	c #979883",
"k.	c #969785",
"l.	c #878775",
"m.	c #7C7B6B",
"n.	c #828272",
"o.	c #8B8C7B",
"p.	c #777667",
"q.	c #939483",
"r.	c #56564E",
"s.	c #151512",
"t.	c #424239",
"u.	c #373830",
"v.	c #262621",
"w.	c #21211C",
"x.	c #313129",
"y.	c #4B4B43",
"z.	c #51514D",
"A.	c #9C9C92",
"B.	c #55554A",
"C.	c #8C8D7A",
"D.	c #747363",
"E.	c #797868",
"F.	c #7F7F6F",
"G.	c #838475",
"H.	c #898A7A",
"I.	c #B0B09C",
"J.	c #191915",
"K.	c #717162",
"L.	c #999D8E",
"M.	c #60625A",
"N.	c #272723",
"O.	c #9D9E94",
"P.	c #4C4C41",
"Q.	c #848472",
"R.	c #747365",
"S.	c #7A7969",
"T.	c #7C7B6A",
"U.	c #818172",
"V.	c #AEAE9B",
"W.	c #929380",
"X.	c #B7B7A2",
"Y.	c #2D2D27",
"Z.	c #717062",
"`.	c #757466",
" +	c #757465",
".+	c #7B7A69",
"++	c #818170",
"@+	c #92937F",
"#+	c #858573",
"$+	c #908F7F",
"%+	c #999988",
"&+	c #989984",
"*+	c #B6B6A4",
"=+	c #3F3F37",
"-+	c #676659",
";+	c #737264",
">+	c #7B7B6A",
",+	c #7A7A6A",
"'+	c #737363",
")+	c #7C7C6D",
"!+	c #90907E",
"~+	c #787868",
"{+	c #949581",
"]+	c #989A89",
"^+	c #484A43",
"/+	c #34342D",
"(+	c #5F5F52",
"_+	c #6D6D5E",
":+	c #868676",
"<+	c #737364",
"[+	c #656557",
"}+	c #626154",
"|+	c #959682",
"1+	c #9A9A85",
"2+	c #777666",
"3+	c #6C6C5E",
"4+	c #9D9D8A",
"5+	c #B0B0A0",
"6+	c #292A25",
"7+	c #48493E",
"8+	c #898977",
"9+	c #878675",
"0+	c #676759",
"a+	c #7B7B6B",
"b+	c #858676",
"c+	c #91917E",
"d+	c #8A8A79",
"e+	c #727264",
"f+	c #706F61",
"g+	c #999A86",
"h+	c #A3A390",
"i+	c #BFBFAC",
"j+	c #24241E",
"k+	c #7A7A6B",
"l+	c #6C6B5D",
"m+	c #666658",
"n+	c #787869",
"o+	c #7D7C6C",
"p+	c #8E8F7D",
"q+	c #979885",
"r+	c #969782",
"s+	c #878774",
"t+	c #939380",
"u+	c #91927F",
"v+	c #C4C4B0",
"w+	c #44433A",
"x+	c #767666",
"y+	c #727162",
"z+	c #7E7E6E",
"A+	c #8B8C7A",
"B+	c #69695A",
"C+	c #888877",
"D+	c #79796A",
"E+	c #6A6A5C",
"F+	c #959783",
"G+	c #9FA18F",
"H+	c #41413B",
"I+	c #2F2F28",
"J+	c #6D6C5E",
"K+	c #606052",
"L+	c #6E6E60",
"M+	c #616053",
"N+	c #838272",
"O+	c #8C8C7B",
"P+	c #8A8B7A",
"Q+	c #C4C5B6",
"R+	c #53554C",
"S+	c #3B3C37",
"T+	c #292923",
"U+	c #3F3F36",
"V+	c #4F4F44",
"W+	c #717061",
"X+	c #707061",
"Y+	c #686759",
"Z+	c #878877",
"`+	c #8E8E7B",
" @	c #929280",
".@	c #34352E",
"+@	c #33352F",
"@@	c #23241E",
"#@	c #656457",
"$@	c #727263",
"%@	c #808172",
"&@	c #858677",
"*@	c #888978",
"=@	c #AEAE9A",
"-@	c #7B7A6A",
";@	c #A8AB9C",
">@	c #1B1B17",
",@	c #7F7F70",
"'@	c #636356",
")@	c #1F1F1B",
"!@	c #48483F",
"~@	c #818171",
"{@	c #979887",
"]@	c #ADAC97",
"^@	c #ABAC98",
"/@	c #919381",
"(@	c #777767",
"_@	c #8F8F80",
":@	c #4A4B44",
"<@	c #1F1E1A",
"[@	c #9F9F8B",
"}@	c #7D7C6B",
"|@	c #747465",
"1@	c #666659",
"2@	c #D2D2C5",
"3@	c #828374",
"4@	c #A3A28F",
"5@	c #3E3E37",
"6@	c #46473D",
"7@	c #A5A690",
"8@	c #B3B6A4",
"9@	c #A9AA9C",
"0@	c #98998B",
"a@	c #69695D",
"b@	c #68685C",
"c@	c #5A5B4E",
"d@	c #49493F",
"e@	c #787768",
"f@	c #9B9D8D",
"g@	c #6D6E66",
"h@	c #868675",
"i@	c #A7AC9C",
"j@	c #5E5E55",
"k@	c #59594C",
"l@	c #5F5E51",
"m@	c #4E4E42",
"n@	c #4E4F43",
"o@	c #45473C",
"p@	c #696A5C",
"q@	c #B0B09E",
"r@	c #8F8F7C",
"s@	c #B7B7A6",
"t@	c #141511",
"u@	c #9F9F8A",
"v@	c #A4A48E",
"w@	c #9B9B87",
"x@	c #8B8B79",
"y@	c #5F5F54",
"z@	c #3E3E35",
"A@	c #525347",
"B@	c #666657",
"C@	c #707060",
"D@	c #7C7C6C",
"E@	c #B0B19D",
"F@	c #B8B8A7",
"G@	c #464740",
"H@	c #A3A38D",
"I@	c #9E9E89",
"J@	c #90907D",
"K@	c #8D8D7C",
"L@	c #9D9D89",
"M@	c #797969",
"N@	c #828373",
"O@	c #3B3B32",
"P@	c #4D4E42",
"Q@	c #636355",
"R@	c #505044",
"S@	c #807F6F",
"T@	c #ACAC97",
"U@	c #D5D5C0",
"V@	c #282822",
"W@	c #888776",
"X@	c #6F6F61",
"Y@	c #7C7B6C",
"Z@	c #939382",
"`@	c #8E8F7C",
" #	c #808273",
".#	c #5B5C54",
"+#	c #56564A",
"@#	c #4A4B40",
"##	c #6C6D5F",
"$#	c #6F6F60",
"%#	c #5B5B4D",
"&#	c #8E8E7C",
"*#	c #CFCFBC",
"=#	c #A6A693",
"-#	c #939481",
";#	c #AFAF9C",
">#	c #59594D",
",#	c #48483D",
"'#	c #686859",
")#	c #626255",
"!#	c #606053",
"~#	c #646456",
"{#	c #626254",
"]#	c #989985",
"^#	c #44443B",
"/#	c #515145",
"(#	c #5E5E50",
"_#	c #939480",
":#	c #9FA08A",
"<#	c #AAAA94",
"[#	c #8B8A78",
"}#	c #747364",
"|#	c #646557",
"1#	c #57584B",
"2#	c #939484",
"3#	c #37372F",
"4#	c #555649",
"5#	c #828271",
"6#	c #878776",
"7#	c #8D8E7B",
"8#	c #5E5D50",
"9#	c #6F6E5F",
"0#	c #676658",
"a#	c #757568",
"b#	c #8E8E7D",
"c#	c #7F7E6E",
"d#	c #5D5C4F",
"e#	c #737365",
"f#	c #45463D",
"g#	c #47473D",
"h#	c #545549",
"i#	c #5C5B4E",
"j#	c #8A8A77",
"k#	c #8F907D",
"l#	c #59584C",
"m#	c #6E6E61",
"n#	c #585B50",
"o#	c #4A4A40",
"p#	c #7E7E6D",
"q#	c #838473",
"r#	c #93937F",
"s#	c #8E8F7B",
"t#	c #5E5E51",
"u#	c #65685C",
"v#	c #6A6A61",
"w#	c #303029",
"x#	c #858675",
"y#	c #A5A794",
"z#	c #1A1A16",
"A#	c #A6A794",
"B#	c #7D7D6E",
"C#	c #A4A491",
"D#	c #535348",
"E#	c #8F8F7E",
"F#	c #ABAB98",
"                                                                                                ",
"                                                                                                ",
"                                                                                                ",
"                                                                                                ",
"                                                                                                ",
"                                                                                                ",
"                                                                                                ",
"                                                                                                ",
"                                              . + @                                             ",
"                                              # $ %                                             ",
"                                        & * = - ; > , '                                         ",
"                                  ) ! ~ { ] ^ / ( _ : < [ } |                                   ",
"                              1 2 3 4 5 6 7 8 9 0 a b c d e f g h                               ",
"                            i j k l m n o 7 p q b r < s t u v w x y                             ",
"                          z A B C w D 7 7 o E F G H I J K L H M N O P                           ",
"                        Q R S T U 7 7 7 V W X Y Z ` # 5 w  ...+.@.#.$.%.                        ",
"                        &.*.S =.-.7 7 ;.>.,.'.).!.~.{.].^./.(._.:.<.[.}.                        ",
"                        |.1.2.3.4.r 5.6.7.    8.9.0.  a.b./ 0 c.d.e.f.g.h.                      ",
"                        i.j.j.k.l.m.n.o.J     8.p.q.  r.s.t.u.v.w.x.y.z.                        ",
"                      A.B.j.C.D.E.F.G.H.I.    J.K.L.    M.N.                                    ",
"                      O.P.Q.R.S.T.T.U.:.V.    8.W.X.                                            ",
"                        Y.Z.`. +.+T.++@+#+$+%+w.&+*+                                            ",
"                        =+-+;+p.p.>+,+'+3 )+!+~+{+]+                                            ",
"                        ^+/+(+_+:+<+[+}+<+:+|+1+@+2+3+4+5+                                      ",
"                          6+7+8+9+0+[+[+a+b+c+{+d+e+f+n |+g+h+i+                                ",
"                            j+k+l+m+k n+o+e e p+q+r+s+#.t+u+c+n :+v+                            ",
"                              v.w+3 x+y+K.x z+A+@+w M B+C+)+D+E+n.F+G+                          ",
"                                H+I+2 -+J+3 K+3 D+T.L+M+Z.k f+N+O+P+-.Q+                        ",
"                                    R+S+T+U+V+(+W+X+m+Y+@.x d+O+Z+{+`+ @                        ",
"                                          .@+@@@#@j $@%@G.&@*@w 6 =@:.-@;@                      ",
"                                              >@,@'@)@!@z+b+~@{@]@^@/@(@_@                      ",
"                                              8.9.K   :@<@X+[@7 V }@n+|@1@2@                    ",
"                                              8.3@4@    5@6@V 7 7@O N ~+p.8@                    ",
"                      9@0@3@a@b@c@d@$@        ).e@f@    g@w.U 7 7 U (@H h@i@                    ",
"                    j@X k@3+l@m@n@o@p@q@      ).r@s@      t@u@7 7 v@w@x@8+                      ",
"                    y@z@A@|@B@k@C@(@D@E@      8.&+F@    G@Y.H@I@J@K@L@M@N@                      ",
"                      O@P@Q@D+R@'.S@O+T@U@    8.&+F@    V@'@W@X@~@Y@Z@`@ #                      ",
"                      .#+#@###$#%#F.&#j.9 *#=#).-#;#D@>#,#'#)#!#~#{#$@]#                        ",
"                        ^#/#R $@(#m _#j.j.:#<#>#x@[#B X+}#K+2 |#<+1#(+2#                        ",
"                          3#4#m B+(#5#r+j.j.j.6#8+5.[ 7#'@8#9#0#$@)#a#                          ",
"                            O@A@#.j [+b#j._.x@j.c#7#_#++d#Q@J+[+B e#                            ",
"                              f#g#h#i#k+{+j#*@j. .e 8+k#E+8#}+l#m#                              ",
"                                  n#7+o#p#q##.A+r#D+@.s#++t#u#                                  ",
"                                            v#w#[ x#                                            ",
"                                              8.O y#                                            ",
"                                              z#e A#                                            ",
"                                              ).B#C#                                            ",
"                                              D#E#F#                                            "};
