/* XPM */
static char * g9_xpm[] = {
"48 48 485 2",
"  	c None",
". 	c #797C6F",
"+ 	c #3E3E37",
"@ 	c #9C9C8B",
"# 	c #D3D4CA",
"$ 	c #46483E",
"% 	c #050504",
"& 	c #919182",
"* 	c #D4D4C0",
"= 	c #808073",
"- 	c #676658",
"; 	c #848475",
"> 	c #78786A",
", 	c #636357",
"' 	c #A9AB9B",
") 	c #CFCFBC",
"! 	c #DFDECE",
"~ 	c #51544B",
"{ 	c #43433C",
"] 	c #58584C",
"^ 	c #797969",
"/ 	c #8C8D7A",
"( 	c #BFBFAC",
"_ 	c #D6D6C1",
": 	c #D3D3BF",
"< 	c #CACABB",
"[ 	c #CFD0C0",
"} 	c #D9D9D2",
"| 	c #DCDBCD",
"1 	c #D9D9CB",
"2 	c #D7D7C6",
"3 	c #3B3B36",
"4 	c #414138",
"5 	c #757566",
"6 	c #969784",
"7 	c #8C8C7B",
"8 	c #9A9A88",
"9 	c #D1D1BE",
"0 	c #D2D2C2",
"a 	c #D1D1C6",
"b 	c #D7D8CF",
"c 	c #E3E3D6",
"d 	c #E3E3D5",
"e 	c #D5D5C4",
"f 	c #D7D8C6",
"g 	c #D7D8D1",
"h 	c #21211C",
"i 	c #3D3D34",
"j 	c #868675",
"k 	c #8B8C7B",
"l 	c #8D8D7C",
"m 	c #C7C7B4",
"n 	c #D6D6C5",
"o 	c #CCCCB9",
"p 	c #D6D7CD",
"q 	c #D9DAD3",
"r 	c #DEDED4",
"s 	c #D7D8CC",
"t 	c #D6D6C4",
"u 	c #DFDFD4",
"v 	c #E3E2D6",
"w 	c #333530",
"x 	c #43433A",
"y 	c #969786",
"z 	c #A8A893",
"A 	c #A1A290",
"B 	c #BBBBAA",
"C 	c #D0D0BE",
"D 	c #D1D1BC",
"E 	c #ACAC9A",
"F 	c #BDBFAE",
"G 	c #9F9F96",
"H 	c #BABBB2",
"I 	c #D9DAD1",
"J 	c #D9D9D1",
"K 	c #E3E2D3",
"L 	c #CECEBE",
"M 	c #D6D7C6",
"N 	c #7F7E73",
"O 	c #151511",
"P 	c #A09F8B",
"Q 	c #C6C5AB",
"R 	c #C6C5AE",
"S 	c #C7C7B9",
"T 	c #CCCCBC",
"U 	c #D5D4C0",
"V 	c #C0C0AA",
"W 	c #636356",
"X 	c #171713",
"Y 	c #88897A",
"Z 	c #696B62",
"` 	c #1F1F1B",
" .	c #919387",
"..	c #CDCDC1",
"+.	c #D0D0BF",
"@.	c #CFCFBE",
"#.	c #DBDBC9",
"$.	c #E7E7D7",
"%.	c #363630",
"&.	c #373730",
"*.	c #C0BFA6",
"=.	c #C6C5AD",
"-.	c #C7C7B8",
";.	c #C2C3B4",
">.	c #B7B6A4",
",.	c #929280",
"'.	c #30322A",
").	c #818172",
"!.	c #808072",
"~.	c #060605",
"{.	c #1D1D19",
"].	c #A6A79B",
"^.	c #C7C7BA",
"/.	c #CFCFBF",
"(.	c #DCDCD0",
"_.	c #2D2D29",
":.	c #616155",
"<.	c #BDBCA6",
"[.	c #C2C2AA",
"}.	c #B6B7A2",
"|.	c #9E9F8D",
"1.	c #B3B5A4",
"2.	c #33362E",
"3.	c #7F7F71",
"4.	c #B3B5A3",
"5.	c #24241F",
"6.	c #58594F",
"7.	c #CECEBD",
"8.	c #CECEC2",
"9.	c #D6D7CA",
"0.	c #D1D1C1",
"a.	c #B9BAAB",
"b.	c #B1B1A3",
"c.	c #B7B7A8",
"d.	c #181915",
"e.	c #727264",
"f.	c #BFBEA7",
"g.	c #C3C2A9",
"h.	c #B0B29C",
"i.	c #A2A28F",
"j.	c #9FA08D",
"k.	c #A6A793",
"l.	c #AFB5A6",
"m.	c #747467",
"n.	c #9FA491",
"o.	c #696C60",
"p.	c #1A1A17",
"q.	c #6B6B60",
"r.	c #616158",
"s.	c #4C4D45",
"t.	c #31312C",
"u.	c #30302A",
"v.	c #4C4C43",
"w.	c #7F7F70",
"x.	c #B5B6A3",
"y.	c #9E9E8A",
"z.	c #949583",
"A.	c #9EA08D",
"B.	c #A3A490",
"C.	c #A7A791",
"D.	c #BBBBA6",
"E.	c #6D6D61",
"F.	c #A5A691",
"G.	c #55554E",
"H.	c #595B52",
"I.	c #32322D",
"J.	c #12120F",
"K.	c #6D6F62",
"L.	c #9B9C89",
"M.	c #959581",
"N.	c #999A88",
"O.	c #9B9C8D",
"P.	c #9FA08E",
"Q.	c #A5A590",
"R.	c #B9BBA6",
"S.	c #808071",
"T.	c #BEBDA7",
"U.	c #272823",
"V.	c #404038",
"W.	c #92927F",
"X.	c #979883",
"Y.	c #989987",
"Z.	c #9D9E8E",
"`.	c #ABAB97",
" +	c #B4B39F",
".+	c #636457",
"++	c #0D0D0B",
"@+	c #888877",
"#+	c #B9B8A4",
"$+	c #3C3D38",
"%+	c #969682",
"&+	c #989984",
"*+	c #999A86",
"=+	c #939481",
"-+	c #A5A692",
";+	c #8A8B7B",
">+	c #9F9F8A",
",+	c #A3A593",
"'+	c #565A50",
")+	c #0A0A08",
"!+	c #505045",
"~+	c #777767",
"{+	c #919180",
"]+	c #A0A18C",
"^+	c #8B8B7A",
"/+	c #7F7F6E",
"(+	c #818070",
"_+	c #A0A08B",
":+	c #AEB09D",
"<+	c #BCBBA6",
"[+	c #9EA08E",
"}+	c #898978",
"|+	c #A9A897",
"1+	c #B6B6A9",
"2+	c #252722",
"3+	c #131310",
"4+	c #6D6D5E",
"5+	c #B3B29E",
"6+	c #9A9A87",
"7+	c #838373",
"8+	c #7B7B6A",
"9+	c #8B8C79",
"0+	c #A3A38E",
"a+	c #ADAD98",
"b+	c #B7B6A2",
"c+	c #B0B4A3",
"d+	c #9D9E8C",
"e+	c #8A8A7A",
"f+	c #A4A693",
"g+	c #B5B4A3",
"h+	c #C3C2B0",
"i+	c #191A17",
"j+	c #262621",
"k+	c #9C9C89",
"l+	c #81816F",
"m+	c #808070",
"n+	c #8D8E7C",
"o+	c #979885",
"p+	c #9A9B89",
"q+	c #A4A491",
"r+	c #BAB9A4",
"s+	c #AFAF9B",
"t+	c #939684",
"u+	c #B2B4A2",
"v+	c #ADB09E",
"w+	c #A1A390",
"x+	c #81847A",
"y+	c #1E1F1C",
"z+	c #21211D",
"A+	c #5F5E53",
"B+	c #898A78",
"C+	c #959682",
"D+	c #959684",
"E+	c #A0A08C",
"F+	c #B6B5A1",
"G+	c #ABAD9B",
"H+	c #8F8F7C",
"I+	c #828272",
"J+	c #A4A794",
"K+	c #BCBEB0",
"L+	c #383832",
"M+	c #1B1C18",
"N+	c #36362E",
"O+	c #828372",
"P+	c #8B8C7A",
"Q+	c #80806F",
"R+	c #777768",
"S+	c #989986",
"T+	c #929383",
"U+	c #7C7B6A",
"V+	c #888979",
"W+	c #8D8E7D",
"X+	c #9EA18C",
"Y+	c #A6A893",
"Z+	c #C2C3B3",
"`+	c #474741",
" @	c #2B2C27",
".@	c #181815",
"+@	c #3F3F36",
"@@	c #58574C",
"#@	c #6D6C5E",
"$@	c #838372",
"%@	c #8E8F7D",
"&@	c #848474",
"*@	c #919280",
"=@	c #A2A38E",
"-@	c #B5B4A0",
";@	c #9B9B88",
">@	c #292924",
",@	c #252622",
"'@	c #151512",
")@	c #606052",
"!@	c #706F62",
"~@	c #858473",
"{@	c #9E9F8B",
"]@	c #A6A791",
"^@	c #B7B8A5",
"/@	c #C0C0AD",
"(@	c #989985",
"_@	c #9B9B8A",
":@	c #363931",
"<@	c #6A6A5C",
"[@	c #636355",
"}@	c #49493F",
"|@	c #90917E",
"1@	c #A2A490",
"2@	c #9D9E8A",
"3@	c #B8B8A4",
"4@	c #C6C6B8",
"5@	c #B6B6A4",
"6@	c #989885",
"7@	c #737263",
"8@	c #A6A691",
"9@	c #242420",
"0@	c #BCBDA6",
"a@	c #BEBDA8",
"b@	c #8C8D7C",
"c@	c #989A87",
"d@	c #7E7F6E",
"e@	c #C3C3B0",
"f@	c #6E6E61",
"g@	c #9A9B8B",
"h@	c #64655B",
"i@	c #4C4C42",
"j@	c #C5C4AA",
"k@	c #C2C2A8",
"l@	c #959683",
"m@	c #898979",
"n@	c #A6A699",
"o@	c #A7A999",
"p@	c #6B6D5F",
"q@	c #595A4D",
"r@	c #68685A",
"s@	c #92937F",
"t@	c #292923",
"u@	c #BBBAA1",
"v@	c #B0AF98",
"w@	c #9FA08C",
"x@	c #A7A995",
"y@	c #33342D",
"z@	c #48483F",
"A@	c #605F52",
"B@	c #69685A",
"C@	c #7A7A6B",
"D@	c #686759",
"E@	c #5C5C4F",
"F@	c #5A5A4D",
"G@	c #9A9A8D",
"H@	c #757669",
"I@	c #B0B09C",
"J@	c #86897E",
"K@	c #0B0B09",
"L@	c #282822",
"M@	c #B9B8A0",
"N@	c #BDBDA5",
"O@	c #9FA18D",
"P@	c #C0C0B2",
"Q@	c #848478",
"R@	c #545449",
"S@	c #8E8E7D",
"T@	c #767668",
"U@	c #727163",
"V@	c #868676",
"W@	c #A0A18F",
"X@	c #838273",
"Y@	c #46473E",
"Z@	c #171714",
"`@	c #B9B8A2",
" #	c #B3B29C",
".#	c #A5A794",
"+#	c #22221D",
"@#	c #44443B",
"##	c #656456",
"$#	c #7D7D6D",
"%#	c #868674",
"&#	c #646456",
"*#	c #949481",
"=#	c #999A87",
"-#	c #BFBFA8",
";#	c #4D4E43",
">#	c #34352D",
",#	c #7A7A6A",
"'#	c #959583",
")#	c #858472",
"!#	c #929381",
"~#	c #A8A897",
"{#	c #5C5C53",
"]#	c #201F1B",
"^#	c #5D5D4F",
"/#	c #90917F",
"(#	c #787767",
"_#	c #7C7C6C",
":#	c #A7AA96",
"<#	c #AFAF9A",
"[#	c #C4C3AC",
"}#	c #707061",
"|#	c #78796C",
"1#	c #A8A895",
"2#	c #8B8B7D",
"3#	c #656557",
"4#	c #7D7C6D",
"5#	c #757565",
"6#	c #6F6E5F",
"7#	c #767667",
"8#	c #999A89",
"9#	c #CDCCB9",
"0#	c #1E1E1A",
"a#	c #47473E",
"b#	c #808171",
"c#	c #7D7D6C",
"d#	c #69695B",
"e#	c #93937F",
"f#	c #A8AA95",
"g#	c #B2B29D",
"h#	c #666659",
"i#	c #7F7E6D",
"j#	c #828270",
"k#	c #8A8A78",
"l#	c #6B6B5D",
"m#	c #7D7E6E",
"n#	c #7D7C6C",
"o#	c #878777",
"p#	c #7C7D73",
"q#	c #1C1C19",
"r#	c #676759",
"s#	c #868776",
"t#	c #787969",
"u#	c #A5A58F",
"v#	c #A8AA97",
"w#	c #ABAF9E",
"x#	c #AFB3A1",
"y#	c #A6A895",
"z#	c #9FA08B",
"A#	c #B3B39E",
"B#	c #A4A592",
"C#	c #797868",
"D#	c #828271",
"E#	c #767566",
"F#	c #818274",
"G#	c #7D7E79",
"H#	c #1E1F1B",
"I#	c #414137",
"J#	c #878776",
"K#	c #6B6A5C",
"L#	c #A2A28D",
"M#	c #A9AA94",
"N#	c #A1A28C",
"O#	c #A6A792",
"P#	c #747365",
"Q#	c #717162",
"R#	c #858577",
"S#	c #383833",
"T#	c #2D2D26",
"U#	c #606053",
"V#	c #737364",
"W#	c #A1A18C",
"X#	c #A6A690",
"Y#	c #9A9B88",
"Z#	c #A4A58F",
"`#	c #989B87",
" $	c #9D9F8A",
".$	c #6F6E60",
"+$	c #8E8E7F",
"@$	c #63665E",
"#$	c #4B4B44",
"$$	c #47483E",
"%$	c #9D9D89",
"&$	c #8F8F7D",
"*$	c #9C9D88",
"=$	c #989A86",
"-$	c #8D8D7B",
";$	c #9D9F8D",
">$	c #9FA18F",
",$	c #A7A89A",
"'$	c #5E5E5A",
")$	c #46473F",
"!$	c #21221C",
"~$	c #91917E",
"{$	c #727162",
"]$	c #A4A48E",
"^$	c #9D9E88",
"/$	c #6A695C",
"($	c #777A6D",
"_$	c #3A3B33",
":$	c #A9A998",
"                                                                                                ",
"                                                                                                ",
"                                                                                                ",
"                                                                                                ",
"                                                                                                ",
"                                                                                                ",
"                                                                                                ",
"                                                                                                ",
"                                              . + @ #                                           ",
"                                              $ % & *                                           ",
"                                        = - ; > , ' ) !                                         ",
"                                  ~ { ] ^ / ( _ : < [ } | 1 2                                   ",
"                                3 4 5 6 7 8 9 _ _ 0 a b c d e f g                               ",
"                              h i j k l 8 m _ _ _ n o p q r s t u v                             ",
"                            w x y z A B C _ _ D E F G H I J K L * M                             ",
"                          N O P Q Q R S T U V W X Y Z `  .T ..+.@.* #.$.                        ",
"                          %.&.*.Q Q =.-.;.>.,.'.% ).!.~.{.].^.@.* C /.(.                        ",
"                          _.:.<.Q Q [.}.|.1.  2.% 3.4.5.% 6.7.8.9.0.a.b.c.                      ",
"                          d.e.f.g.h.i.j.k.l.  2.% m.n.o.% p.q.r.s.t.u.v.                        ",
"                          ~.w.x.y.z.A.B.C.D.  2.% E.F.  G.H.I.                                  ",
"                          J.K.L.M.N.O.P.Q.R.  2.% S.T.                                          ",
"                          U.V.W.X.X.Y.Z.`. +@ .+++@+#+                                          ",
"                          $+h j X.%+&+*+8 @+=+-+;+>+,+                                          ",
"                          '+)+!+~+{+]+^+/+(+_+:+<+f.[+}+|+1+                                    ",
"                            2+3+4+5+6+7+8+9+0+a+b+c+d+e+f+x.g+h+                                ",
"                              i+j+k+l+m+n+o+p+>+q+r+<+s+t+5+u+v+w+                              ",
"                              x+y+z+A+B+C+}+D+E+k+F+G+H+I+J+j.o+@+-+K+                          ",
"                                  L+M+N+4+O+P+Q+R+,.S+T+U+^+V+W+X+Y+Y+Z+                        ",
"                                      `+ @.@+@@@#@$@%@&@m+*@L.Q.C.=@-@;@                        ",
"                                            >@,@'@)@!@~@{@]@C.B.E+^@/@(@_@                      ",
"                                              :@% <@[@X }@|@1@2@3@4@5@6@*@                      ",
"                                              2.% 7@8@  9@'@7+0@R a@b@c@d@e@                    ",
"                                              2.% f@g@  h@% i@j@Q k@l@$@m@[+                    ",
"                          n@o@d@<@p@] q@      2.% r@s@    % t@u@Q Q v@H+w@x@                    ",
"                      y@z@A@B@C@D@)@E@F@G@    2.% H@I@  J@K@L@M@Q N@b+O@=+P@                    ",
"                      Q@K@R@#@S@T@U@V@e+W@    2.% X@#+  Y@Z@V.`@ #]+.#k.k                       ",
"                        +#@###$#%#&#*#=#x@-#  2.% X@#+  ;#>#,#'#)#'#!#a+~#                      ",
"                        {#]#r@^#/#(#_#>+:#<#[#}#K@|#1#2#3#&#4#5#6#7#e.8#9#                      ",
"                          0#a#E@b#c#d#e#C.f#g#`@h#7#(@i#j#k#U@l#m#n#D@o#                        ",
"                          p#q#!+r#s#e.t#u#v#w#x#y#c@z#A#B#C#}#D#E#7+F#                          ",
"                            G#H#I#R+J#K#H+C.C.L#M#2@N#O#L#P#Q#n#E#R#                            ",
"                                S#T#U#K#V#W#X#Y#u#Z#`# $k.I+.$P#+$                              ",
"                                  @$#$V.$$/+%$&$*$X#=$-$;$>$,$                                  ",
"                                            '$)$!$/+~$                                          ",
"                                              2.% {$]$                                          ",
"                                              2.% r#^$                                          ",
"                                              $ % /$&$                                          ",
"                                              ($_$/+:$                                          "};
