<?xml version="1.0" encoding="UTF-8" standalone="no"?>
<svg
   xmlns:dc="http://purl.org/dc/elements/1.1/"
   xmlns:cc="http://creativecommons.org/ns#"
   xmlns:rdf="http://www.w3.org/1999/02/22-rdf-syntax-ns#"
   xmlns:svg="http://www.w3.org/2000/svg"
   xmlns="http://www.w3.org/2000/svg"
   xmlns:sodipodi="http://sodipodi.sourceforge.net/DTD/sodipodi-0.dtd"
   xmlns:inkscape="http://www.inkscape.org/namespaces/inkscape"
   width="893.2"
   height="630.813"
   id="svg4133"
   version="1.1"
   inkscape:version="0.48.1 r9760"
   sodipodi:docname="Grisbi5.svg">
  <metadata
     id="metadata4679">
    <rdf:RDF>
      <cc:Work
         rdf:about="">
        <dc:format>image/svg+xml</dc:format>
        <dc:type
           rdf:resource="http://purl.org/dc/dcmitype/StillImage" />
        <dc:title></dc:title>
      </cc:Work>
    </rdf:RDF>
  </metadata>
  <sodipodi:namedview
     pagecolor="#ffffff"
     bordercolor="#666666"
     borderopacity="1"
     objecttolerance="10"
     gridtolerance="10"
     guidetolerance="10"
     inkscape:pageopacity="0"
     inkscape:pageshadow="2"
     inkscape:window-width="1360"
     inkscape:window-height="736"
     id="namedview4677"
     showgrid="false"
     inkscape:zoom="0.79743933"
     inkscape:cx="446.60001"
     inkscape:cy="315.40649"
     inkscape:window-x="0"
     inkscape:window-y="0"
     inkscape:window-maximized="1"
     inkscape:current-layer="svg4133" />
  <defs
     id="defs4135">
    <marker
       id="ArrowEnd"
       viewBox="0 0 10 10"
       refX="0"
       refY="5"
       markerUnits="strokeWidth"
       markerWidth="4"
       markerHeight="3"
       orient="auto">
      <path
         d="M 0 0 L 10 5 L 0 10 z"
         id="path4138" />
    </marker>
    <marker
       id="ArrowStart"
       viewBox="0 0 10 10"
       refX="10"
       refY="5"
       markerUnits="strokeWidth"
       markerWidth="4"
       markerHeight="3"
       orient="auto">
      <path
         d="M 10 0 L 0 5 L 10 10 z"
         id="path4141" />
    </marker>
  </defs>
  <g
     id="g4143" />
  <g
     id="g4682">
    <desc
       id="desc4960">Créer avec Sketch
André Pascual</desc>
    <title
       id="title4958">Logo Grisbi</title>
    <path
       id="path4145"
       d="M 849.057 201.069C 849.057 201.069 860.924 188.345 891.7 156.251C 884.817 151.197 795.528 72.707 581.721 71.8174C 443.347 74.0548 328.246 126.675 253.825 184.554C 212.083 217.018 186.68 251.136 168.532 278.948C 126.013 278.948 117.834 279.244 66.9539 279.244C 47.4322 299.359 42.5556 304.96 21.6535 328.186C 79.5507 328.186 87.4163 328.186 146.781 328.186C 142.901 344.954 139.117 358.752 136.207 370.917C 117.895 371.166 84.4041 371.007 45.3884 370.917C 30.3545 386.45 26.089 393.667 1.5 420.424C 69.6087 420.424 80.8006 420.676 134.774 420.424C 140.479 491.1 199.948 554.589 283.24 592.55C 337.897 617.461 403.553 629.994 468.855 629.285C 633.672 627.495 771.898 557.382 771.898 557.382C 771.898 557.382 778.602 534.696 785.807 497.266C 757.294 509.864 650.779 578.68 478.14 581.414C 363.055 581.414 271.262 534.175 230.481 476.032C 217.719 457.837 211.179 439.76 209.665 420.424C 287.734 420.68 657.686 420.424 657.686 420.424C 657.686 420.424 677.135 398.404 698.402 370.917C 590.632 370.917 219.279 370.917 210.374 370.917C 211.781 365.753 214.086 356.583 221.45 328.186C 308.695 328.193 287.908 328.376 738.419 328.186C 758.428 305.835 765.635 297.207 781.185 279.244C 556.029 279.244 460.148 279.244 242.306 279.662C 245.081 270.432 254.544 256.995 269.786 241.767C 291.182 220.388 321.858 195.015 363.508 173.254C 423.726 141.792 503.084 117.043 587.218 117.712C 760.185 120.633 849.057 201.069 849.057 201.069z"
       style="stroke:#0f5700;stroke-width:3;stroke-linejoin:round;stroke-linecap:round;fill:#01a26c" />
    <g
       id="g4147">
      <g
         id="g4149">
        <path
           id="path4151"
           d="M 359.059 395.031C 347.522 389.634 331.589 388.047 317.121 388.047C 258.516 388.047 248.993 424.24 248.993 446.146C 248.993 471.227 259.798 485.831 273.716 493.926C 287.086 501.705 304.301 502.657 316.388 502.657C 330.307 502.657 348.071 499.959 360.891 495.038L 360.891 465.512C 360.891 458.051 362.356 457.257 371.147 456.464L 371.147 450.432L 315.838 450.432L 315.838 456.464C 330.123 457.257 331.589 458.051 331.589 465.829L 331.589 488.212C 331.589 493.768 329.025 495.355 316.388 495.355C 283.24 495.355 281.408 455.67 281.408 444.082C 281.408 427.891 285.987 395.349 318.036 395.349C 338.365 395.349 346.972 410.27 352.1 423.922L 359.059 423.922L 359.059 395.031z"
           style="stroke:#0f5700; stroke-width:3.0; fill:#ffbd0f; font-family:Utopia-Bold; font-size:130.0" />
        <path
           id="path4153"
           d="M 424.074 449.797L 432.498 449.797C 441.655 449.797 446.783 453.606 448.981 462.178C 450.446 467.734 451.911 476.306 454.841 484.402C 459.237 496.149 467.112 500.276 486.341 500.276L 499.894 500.276L 499.894 494.244C 496.597 494.085 493.484 492.656 491.286 490.752C 486.708 486.783 483.96 480.91 482.312 472.655C 479.748 459.956 476.269 449.479 457.405 445.352L 457.405 445.035C 475.536 442.971 488.356 432.653 488.356 418.842C 488.356 410.747 485.792 403.921 479.199 398.682C 472.24 393.444 461.801 390.428 443.853 390.428L 380.304 390.428L 380.304 396.46C 393.306 396.936 394.772 397.73 394.772 405.826L 394.772 484.878C 394.772 492.974 393.306 493.768 380.304 494.244L 380.304 500.276L 438.542 500.276L 438.542 494.244C 425.539 493.768 424.074 492.974 424.074 484.878L 424.074 449.797zM 424.074 403.921C 424.074 399.635 425.722 397.73 435.795 397.73C 448.248 397.73 457.588 403.603 457.588 419.795C 457.588 432.97 451.728 442.495 433.231 442.495L 424.074 442.495L 424.074 403.921z"
           style="stroke:#0f5700; stroke-width:3.0; fill:#ffbd0f; font-family:Utopia-Bold; font-size:130.0" />
        <path
           id="path4155"
           d="M 549.341 405.826C 549.341 397.73 550.806 396.936 563.809 396.46L 563.809 390.428L 505.571 390.428L 505.571 396.46C 518.574 396.936 520.039 397.73 520.039 405.826L 520.039 484.878C 520.039 492.974 518.574 493.768 505.571 494.244L 505.571 500.276L 563.809 500.276L 563.809 494.244C 550.806 493.768 549.341 492.974 549.341 484.878L 549.341 405.826z"
           style="stroke:#0f5700; stroke-width:3.0; fill:#ffbd0f; font-family:Utopia-Bold; font-size:130.0" />
        <path
           id="path4157"
           d="M 659.042 421.065L 659.042 395.031C 649.518 389.952 635.966 388.047 624.795 388.047C 594.027 388.047 579.193 401.857 579.193 420.589C 579.193 440.272 599.521 448.844 615.638 454.718C 632.303 460.75 639.995 467.893 639.995 478.052C 639.812 489.799 631.021 495.355 619.117 495.355C 605.199 495.355 591.28 484.243 584.321 464.401L 577.545 464.401L 580.292 492.815C 589.632 500.276 607.763 502.657 619.85 502.657C 656.478 502.34 667.466 485.196 667.466 468.687C 667.466 447.733 649.518 439.637 632.853 433.605C 620.766 429.319 605.565 423.605 605.565 411.54C 605.565 401.698 613.623 395.349 624.612 395.349C 636.333 395.349 647.321 402.492 652.449 421.065L 659.042 421.065z"
           style="stroke:#0f5700; stroke-width:3.0; fill:#ffbd0f; font-family:Utopia-Bold; font-size:130.0" />
        <path
           id="path4159"
           d="M 722.408 445.828L 731.748 445.828C 750.062 445.828 758.669 457.099 758.669 470.433C 758.669 487.418 748.414 492.974 735.594 492.974C 726.437 492.974 722.408 490.434 722.408 482.656L 722.408 445.828zM 722.408 403.603C 722.408 398.206 725.704 397.73 733.03 397.73C 749.513 397.73 756.106 406.143 756.106 418.049C 756.106 429.795 748.963 438.526 731.382 438.526L 722.408 438.526L 722.408 403.603zM 678.638 390.428L 678.638 396.46C 691.641 396.936 693.106 397.73 693.106 405.826L 693.106 484.878C 693.106 492.974 691.641 493.768 678.638 494.244L 678.638 500.276L 739.074 500.276C 759.951 500.276 772.588 497.101 780.28 491.704C 787.789 486.466 790.719 478.846 790.719 470.274C 790.719 452.654 775.701 443.923 758.669 441.701L 758.67 441.384C 776.617 438.05 785.774 429.795 785.774 416.779C 785.774 397.413 768.01 390.428 739.074 390.428L 678.638 390.428z"
           style="stroke:#0f5700; stroke-width:3.0; fill:#ffbd0f; font-family:Utopia-Bold; font-size:130.0" />
        <path
           id="path4161"
           d="M 847.492 405.826C 847.492 397.73 848.957 396.936 861.96 396.46L 861.96 390.428L 803.722 390.428L 803.722 396.46C 816.725 396.936 818.19 397.73 818.19 405.826L 818.19 484.878C 818.19 492.974 816.725 493.768 803.722 494.244L 803.722 500.276L 861.96 500.276L 861.96 494.244C 848.957 493.768 847.492 492.974 847.492 484.878L 847.492 405.826z"
           style="stroke:#0f5700; stroke-width:3.0; fill:#ffbd0f; font-family:Utopia-Bold; font-size:130.0" />
      </g>
      <g
         id="g4163">
        <g
           id="g4165">
          <defs
             id="defs4167">
            <radialGradient
               gradientUnits="userSpaceOnUse"
               fy="88.883"
               fx="498.674"
               r="310.968"
               cy="88.883"
               cx="498.674"
               id="1">
              <stop
                 id="stop4170"
                 style="stop-color:#7e9dff"
                 offset="0" />
              <stop
                 id="stop4172"
                 style="stop-color:#6c7dff"
                 offset="0.06" />
              <stop
                 id="stop4174"
                 style="stop-color:#044395"
                 offset="0.145" />
              <stop
                 id="stop4176"
                 style="stop-color:#021733"
                 offset="1" />
            </radialGradient>
          </defs>
          <path
             id="path4178"
             d="M 618.019 200.038C 638.89 282.628 608.394 349.479 528.175 368.816C 502.579 375.284 465.507 377.159 444.439 357.745C 423.371 338.33 408.726 308.685 413.437 226.655C 390.405 154.598 393.611 136.904 397.742 122.03C 401.875 107.157 412.255 80.8406 453.898 69.8857C 495.54 58.9308 597.148 117.449 618.019 200.038z"
             style="stroke:none; fill:url(#1)" />
        </g>
        <g
           id="g4180">
          <defs
             id="defs4182">
            <radialGradient
               gradientUnits="userSpaceOnUse"
               fy="159.77"
               fx="580.887"
               r="200.958"
               cy="159.77"
               cx="580.887"
               id="2">
              <stop
                 id="stop4185"
                 style="stop-color:#ffffff"
                 offset="0" />
              <stop
                 id="stop4187"
                 style="stop-color:#ffffff"
                 offset="0.18" />
              <stop
                 id="stop4189"
                 style="stop-color:#d3d3d3"
                 offset="0.57" />
              <stop
                 id="stop4191"
                 style="stop-color:#434343"
                 offset="1" />
            </radialGradient>
          </defs>
          <path
             id="path4193"
             d="M 619.025 202.942C 614.54 180.599 601.875 160.552 590.285 143.124C 578.696 125.696 550.663 104.377 550.663 104.377C 550.663 104.377 504.942 124.336 495.826 151.652C 486.709 178.969 497.616 243.327 507.078 267.129C 516.541 290.931 534.32 318.317 547.853 331.131C 561.389 343.946 582.667 342.384 594.723 331.391C 606.779 320.397 621.344 293.395 623.902 268.747C 627.166 232.279 619.025 202.942 619.025 202.942z"
             style="stroke:none; fill:url(#2)" />
        </g>
        <g
           id="g4195">
          <defs
             id="defs4197">
            <radialGradient
               gradientUnits="userSpaceOnUse"
               fy="341.903"
               fx="620.03"
               r="105.281"
               cy="341.903"
               cx="620.03"
               id="3">
              <stop
                 id="stop4200"
                 style="stop-color:#fff1a4"
                 offset="0" />
              <stop
                 id="stop4202"
                 style="stop-color:#e5b502"
                 offset="0.165" />
              <stop
                 id="stop4204"
                 style="stop-color:#d89d00"
                 offset="0.27" />
              <stop
                 id="stop4206"
                 style="stop-color:#483104"
                 offset="0.555" />
              <stop
                 id="stop4208"
                 style="stop-color:#1e1501"
                 offset="1" />
            </radialGradient>
          </defs>
          <path
             id="path4210"
             d="M 525.292 372.622C 525.292 392.449 550.82 388.476 583.045 384.863C 616.31 389.68 642.902 388.252 644.037 362.988C 645.172 337.727 614.922 321.046 580.964 342.72C 549.086 342.72 525.292 352.793 525.292 372.622z"
             style="stroke:none; fill:url(#3)" />
          <defs
             id="defs4212">
            <radialGradient
               gradientUnits="userSpaceOnUse"
               fy="310.795"
               fx="563.988"
               r="106.591"
               cy="310.795"
               cx="563.988"
               id="4">
              <stop
                 id="stop4215"
                 style="stop-color:#fff1a4"
                 offset="0" />
              <stop
                 id="stop4217"
                 style="stop-color:#e5b502"
                 offset="0.19" />
              <stop
                 id="stop4219"
                 style="stop-color:#d89d00"
                 offset="0.41" />
              <stop
                 id="stop4221"
                 style="stop-color:#483104"
                 offset="0.81" />
              <stop
                 id="stop4223"
                 style="stop-color:#1e1501"
                 offset="1" />
            </radialGradient>
          </defs>
          <path
             id="path4225"
             d="M 530.576 331.212C 478.035 360.826 503.819 392.371 520.578 395.057C 543.904 398.9 575.352 376.71 580.786 343.307C 586.221 309.903 561.369 281.72 544.611 279.034C 527.852 276.35 508.989 288.907 530.576 331.212z"
             style="stroke:none; fill:url(#4)" />
          <defs
             id="defs4227">
            <linearGradient
               gradientUnits="userSpaceOnUse"
               y2="400.31"
               x2="516.659"
               y1="274.413"
               x1="548.133"
               id="5">
              <stop
                 id="stop4230"
                 style="stop-color:#5a3e07"
                 offset="0" />
              <stop
                 id="stop4232"
                 style="stop-color:#714e08"
                 offset="0.345" />
              <stop
                 id="stop4234"
                 style="stop-color:#d89d00"
                 offset="0.59" />
              <stop
                 id="stop4236"
                 style="stop-color:#e5b502"
                 offset="1" />
            </linearGradient>
          </defs>
          <path
             id="path4238"
             d="M 529.742 331.493C 477.201 361.107 502.985 392.652 519.744 395.338C 543.069 399.18 558.251 375.846 564.83 346.795C 569.805 317.057 562.598 292.541 543.776 279.315C 527.017 276.631 508.154 289.188 529.742 331.493z"
             style="stroke:none; fill:url(#5)" />
        </g>
        <g
           id="g4240">
          <path
             id="path4242"
             d="M 633.821 87.1747C 635.409 92.4327 632.811 98.0327 628.301 98.7027C 620.977 102.525 614 103.64 611.962 93.3137C 609.586 80.9617 618.038 81.5536 622.548 80.8847C 627.058 80.2147 632.233 81.9157 633.821 87.1747z"
             style="stroke:none; fill:#e72c02" />
          <defs
             id="defs4244">
            <linearGradient
               gradientUnits="userSpaceOnUse"
               y2="114.262"
               x2="601.751"
               y1="76.0623"
               x1="594.031"
               id="6">
              <stop
                 id="stop4247"
                 style="stop-color:#745424"
                 offset="0" />
              <stop
                 id="stop4249"
                 style="stop-color:#a27632"
                 offset="0.28" />
              <stop
                 id="stop4251"
                 style="stop-color:#4f190c"
                 offset="0.535" />
              <stop
                 id="stop4253"
                 style="stop-color:#571915"
                 offset="1" />
            </linearGradient>
          </defs>
          <path
             id="path4255"
             d="M 566.562 104.123C 568.556 109.249 584.051 110.179 601.146 106.199C 624.235 102.029 632.389 99.6927 628.503 89.7027C 624.467 76.6137 616.253 82.1867 593.921 87.6277C 576.827 91.6077 564.57 98.9977 566.562 104.123z"
             style="stroke:none; fill:url(#6)" />
        </g>
        <g
           id="g4257">
          <defs
             id="defs4259">
            <radialGradient
               gradientUnits="userSpaceOnUse"
               fy="101.111"
               fx="541.672"
               r="48.8219"
               cy="101.111"
               cx="541.672"
               id="7">
              <stop
                 id="stop4262"
                 style="stop-color:#e5fbff"
                 offset="0" />
              <stop
                 id="stop4264"
                 style="stop-color:#d3d3d3"
                 offset="0.41" />
              <stop
                 id="stop4266"
                 style="stop-color:#434343"
                 offset="1" />
            </radialGradient>
          </defs>
          <path
             id="path4268"
             d="M 518.973 121.186L 536.987 88.7227L 578.556 69.1248L 562.72 116.237L 526.496 123.958L 518.973 121.186z"
             style="stroke:none; fill:url(#7)" />
          <path
             id="path4270"
             d="M 563.644 92.9517L 554.742 82.8777"
             style="stroke:#688d9a; stroke-width:1; fill:none" />
          <path
             id="path4272"
             d="M 553.336 104.197L 542.56 90.3737"
             style="stroke:#688d9a; stroke-width:1; fill:none" />
          <path
             id="path4274"
             d="M 542.091 114.973L 530.378 99.2767"
             style="stroke:#688d9a; stroke-width:1; fill:none" />
          <path
             id="path4276"
             d="M 530.846 122.002L 520.07 108.179"
             style="stroke:#688d9a; stroke-width:1; fill:none" />
          <defs
             id="defs4278">
            <radialGradient
               gradientUnits="userSpaceOnUse"
               fy="91.0278"
               fx="593.938"
               r="82.7176"
               cy="91.0278"
               cx="593.938"
               id="8">
              <stop
                 id="stop4281"
                 style="stop-color:#fff1a4"
                 offset="0" />
              <stop
                 id="stop4283"
                 style="stop-color:#e5b502"
                 offset="0.19" />
              <stop
                 id="stop4285"
                 style="stop-color:#d89d00"
                 offset="0.41" />
              <stop
                 id="stop4287"
                 style="stop-color:#483104"
                 offset="0.81" />
              <stop
                 id="stop4289"
                 style="stop-color:#1e1501"
                 offset="1" />
            </radialGradient>
          </defs>
          <path
             id="path4291"
             d="M 596.889 67.2278C 596.943 72.4857 598.897 74.7788 596.342 77.9047C 593.787 81.0287 574.404 91.1307 571.259 123.763C 541.395 132.972 519.605 121.375 519.605 121.375C 519.605 121.375 539.084 116.123 551.669 108.114C 567.686 66.9258 586.32 65.6527 596.889 67.2278z"
             style="stroke:none; fill:url(#8)" />
          <path
             id="path4293"
             d="M 594.303 67.7577L 581.951 71.3877L 570.88 76.3987"
             style="stroke:#dda100; stroke-width:4; stroke-linecap:round; fill:#a27827" />
          <defs
             id="defs4295">
            <radialGradient
               gradientUnits="userSpaceOnUse"
               fy="78.7464"
               fx="582.823"
               r="78.2764"
               cy="78.7464"
               cx="582.823"
               id="9">
              <stop
                 id="stop4298"
                 style="stop-color:#fff1a4"
                 offset="0" />
              <stop
                 id="stop4300"
                 style="stop-color:#e5b502"
                 offset="0.19" />
              <stop
                 id="stop4302"
                 style="stop-color:#d89d00"
                 offset="0.41" />
              <stop
                 id="stop4304"
                 style="stop-color:#483104"
                 offset="0.81" />
              <stop
                 id="stop4306"
                 style="stop-color:#1e1501"
                 offset="1" />
            </radialGradient>
          </defs>
          <path
             id="path4308"
             d="M 526.741 89.0367C 538.944 77.2147 558.486 64.1327 579.128 62.3497C 589.819 61.5868 600.484 66.1637 600.484 66.1637C 600.484 66.1637 589.043 68.4528 579.128 72.2648C 569.212 76.0787 542.647 94.3917 542.647 94.3917C 542.647 94.3917 526.5 110.402 519.253 122.225C 515.44 121.462 519.113 96.6647 526.741 89.0367z"
             style="stroke:none; fill:url(#9)" />
          <path
             id="path4310"
             d="M 566.69 79.5977L 544.434 100.917L 520.539 121.064"
             style="stroke:#688d9a; stroke-width:1; fill:none" />
          <path
             id="path4312"
             d="M 531.567 89.3146L 527.002 93.2836L 528.391 89.9107L 531.964 89.1166"
             style="stroke:#362301; stroke-width:1; fill:none" />
        </g>
        <g
           id="g4314">
          <g
             id="g4316">
            <defs
               id="defs4318">
              <radialGradient
                 gradientUnits="userSpaceOnUse"
                 fy="75.567"
                 fx="480.03"
                 r="55.0259"
                 cy="75.567"
                 cx="480.03"
                 id="10">
                <stop
                   id="stop4321"
                   style="stop-color:#005f0b"
                   offset="0" />
                <stop
                   id="stop4323"
                   style="stop-color:#005f0b"
                   offset="0.22" />
                <stop
                   id="stop4325"
                   style="stop-color:#55ff4a"
                   offset="0.7" />
                <stop
                   id="stop4327"
                   style="stop-color:#55ff4a"
                   offset="1" />
              </radialGradient>
            </defs>
            <path
               id="path4329"
               d="M 489.741 104.102C 505.2 109.033 519.69 106.943 522.084 99.4377C 524.477 91.9329 513.872 81.8394 498.414 76.9091C 482.955 71.9789 468.465 74.0688 466.071 81.5737C 463.678 89.0786 474.282 99.1721 489.741 104.102z"
               style="stroke:#063800; stroke-width:1.4173199999999999; fill:url(#10)" />
            <path
               id="path4331"
               d="M 491.59 97.8223C 498.051 99.8828 504.334 98.2959 505.614 94.2805C 506.895 90.2651 502.691 85.3335 496.23 83.2731C 489.77 81.2128 483.487 82.7996 482.206 86.8149C 480.926 90.8303 485.13 95.762 491.59 97.8223z"
               style="stroke:#000000; stroke-width:1; fill:#000000" />
            <path
               id="path4333"
               d="M 488.494 84.8146C 494.045 84.5436 497.489 82.8926 496.123 80.1247C 494.756 77.3557 488.497 74.6178 482.946 74.8888C 476.185 75.1627 474.642 78.3337 476.009 81.1027C 477.373 83.8707 482.942 85.0837 488.494 84.8146z"
               style="stroke:none; fill:#ddffdd" />
            <path
               id="path4335"
               d="M 470.103 86.0082C 471.795 86.5479 473.589 85.6666 474.108 84.0414C 474.626 82.4161 473.673 80.6589 471.981 80.1193C 470.289 79.5797 468.495 80.4608 467.977 82.0861C 467.459 83.7114 468.411 85.4686 470.103 86.0082z"
               style="stroke:none; fill:#c6ffbe" />
            <path
               id="path4337"
               d="M 500.951 105.158C 501.652 106.329 504.198 107.071 506.634 106.816C 509.069 106.561 510.477 105.404 509.776 104.233C 509.075 103.063 506.529 102.32 504.093 102.575C 501.658 102.831 500.25 103.988 500.951 105.158z"
               style="stroke:none; fill:#e5ffe0" />
          </g>
        </g>
        <g
           id="g4339">
          <g
             id="g4341">
            <g
               id="g4343">
              <path
                 id="path4345"
                 d="M 418.049 411.391L 353.673 258.604"
                 style="stroke:#925923; stroke-width:1; fill:none" />
              <g
                 id="g4347">
                <path
                   id="path4349"
                   d="M 417.942 411.449L 353.31 258.772"
                   style="stroke:#9d6632; stroke-width:1.0; fill:none" />
                <path
                   id="path4351"
                   d="M 417.834 411.506L 352.947 258.94"
                   style="stroke:#a87341; stroke-width:1.0; fill:none" />
                <path
                   id="path4353"
                   d="M 417.726 411.564L 352.584 259.108"
                   style="stroke:#b37f4f; stroke-width:1.0; fill:none" />
                <path
                   id="path4355"
                   d="M 417.618 411.622L 352.221 259.276"
                   style="stroke:#be8c5e; stroke-width:1.0; fill:none" />
                <path
                   id="path4357"
                   d="M 417.51 411.68L 351.857 259.444"
                   style="stroke:#c8996d; stroke-width:1.0; fill:none" />
                <path
                   id="path4359"
                   d="M 417.403 411.738L 351.494 259.612"
                   style="stroke:#d3a67b; stroke-width:1.0; fill:none" />
                <path
                   id="path4361"
                   d="M 417.295 411.795L 351.131 259.78"
                   style="stroke:#deb38a; stroke-width:1.0; fill:none" />
                <path
                   id="path4363"
                   d="M 417.187 411.853L 350.768 259.948"
                   style="stroke:#e9c099; stroke-width:1.0; fill:none" />
                <path
                   id="path4365"
                   d="M 417.079 411.911L 350.405 260.116"
                   style="stroke:#f4cca8; stroke-width:1.0; fill:none" />
              </g>
              <path
                 id="path4367"
                 d="M 416.971 411.969L 350.041 260.284"
                 style="stroke:#ffd9b6; stroke-width:1; fill:none" />
              <g
                 id="g4369">
                <path
                   id="path4371"
                   d="M 416.823 411.958L 349.612 260.4"
                   style="stroke:#efc9a6; stroke-width:1.0; fill:none" />
                <path
                   id="path4373"
                   d="M 416.676 411.947L 349.183 260.516"
                   style="stroke:#dfb996; stroke-width:1.0; fill:none" />
                <path
                   id="path4375"
                   d="M 416.528 411.936L 348.754 260.632"
                   style="stroke:#cfa986; stroke-width:1.0; fill:none" />
                <path
                   id="path4377"
                   d="M 416.38 411.925L 348.325 260.749"
                   style="stroke:#c09976; stroke-width:1.0; fill:none" />
                <path
                   id="path4379"
                   d="M 416.232 411.914L 347.896 260.865"
                   style="stroke:#b08966; stroke-width:1.0; fill:none" />
                <path
                   id="path4381"
                   d="M 416.084 411.903L 347.467 260.981"
                   style="stroke:#a07955; stroke-width:1.0; fill:none" />
                <path
                   id="path4383"
                   d="M 415.936 411.892L 347.038 261.097"
                   style="stroke:#916a45; stroke-width:1.0; fill:none" />
                <path
                   id="path4385"
                   d="M 415.788 411.882L 346.609 261.213"
                   style="stroke:#815a35; stroke-width:1.0; fill:none" />
                <path
                   id="path4387"
                   d="M 415.64 411.871L 346.18 261.33"
                   style="stroke:#714a25; stroke-width:1.0; fill:none" />
              </g>
              <path
                 id="path4389"
                 d="M 415.492 411.86L 345.751 261.446"
                 style="stroke:#613a15; stroke-width:1; fill:none" />
            </g>
            <defs
               id="defs4391">
              <linearGradient
                 gradientUnits="userSpaceOnUse"
                 y2="259.042"
                 x2="366.925"
                 y1="274.058"
                 x1="335.733"
                 id="11">
                <stop
                   id="stop4394"
                   style="stop-color:#ffcc67"
                   offset="0" />
                <stop
                   id="stop4396"
                   style="stop-color:#e5b75c"
                   offset="0.425" />
                <stop
                   id="stop4398"
                   style="stop-color:#fffcb9"
                   offset="0.51" />
                <stop
                   id="stop4400"
                   style="stop-color:#ef9f24"
                   offset="0.62" />
                <stop
                   id="stop4402"
                   style="stop-color:#ffc11e"
                   offset="1" />
              </linearGradient>
            </defs>
            <path
               id="path4404"
               d="M 351.371 280.373L 363.885 274.236L 357.458 252.728L 338.772 261.948L 351.371 280.373z"
               style="stroke:none; fill:url(#11)" />
            <defs
               id="defs4406">
              <linearGradient
                 gradientUnits="userSpaceOnUse"
                 y2="404.724"
                 x2="421.908"
                 y1="412.773"
                 x1="405.186"
                 id="12">
                <stop
                   id="stop4409"
                   style="stop-color:#ffcc67"
                   offset="0" />
                <stop
                   id="stop4411"
                   style="stop-color:#e5b75c"
                   offset="0.425" />
                <stop
                   id="stop4413"
                   style="stop-color:#fffcb9"
                   offset="0.51" />
                <stop
                   id="stop4415"
                   style="stop-color:#ef9f24"
                   offset="0.62" />
                <stop
                   id="stop4417"
                   style="stop-color:#ffc11e"
                   offset="1" />
              </linearGradient>
            </defs>
            <path
               id="path4419"
               d="M 413.308 402.576L 418.023 400.22L 419.739 417.278L 407.354 405.109L 413.308 402.576z"
               style="stroke:none; fill:url(#12)" />
          </g>
          <defs
             id="defs4421">
            <linearGradient
               gradientUnits="userSpaceOnUse"
               y2="277.415"
               x2="327.072"
               y1="188.583"
               x1="478.085"
               id="13">
              <stop
                 id="stop4424"
                 style="stop-color:#1e6dac"
                 offset="0" />
              <stop
                 id="stop4426"
                 style="stop-color:#13004d"
                 offset="0.385" />
              <stop
                 id="stop4428"
                 style="stop-color:#000000"
                 offset="1" />
            </linearGradient>
          </defs>
          <path
             id="path4430"
             d="M 476.954 195.11C 481.1 212.244 439.628 241.239 431.267 243.927C 427.138 245.254 408.359 253.5 391.009 255.461C 373.225 257.472 356.913 253.183 356.913 253.183C 356.913 253.183 338.997 263.038 338.997 263.038C 338.997 263.038 337.504 269.906 336.011 275.579C 334.518 281.253 328.247 278.864 327.948 273.489C 327.65 268.114 329.143 258.559 333.622 254.677C 338.101 250.795 347.364 246.11 367.066 242.732C 377.517 240.941 393.224 242.862 403.132 234.591C 411.96 227.222 416.851 207.377 420.087 204.844C 426.955 199.469 473.638 174.66 476.954 195.11z"
             style="stroke:none; fill:url(#13)" />
          <g
             id="g4432">
            <path
               id="path4434"
               d="M 421.491 204.164C 415.831 212.658 418.301 211.745 414.153 219.084C 410.004 226.424 410.533 227.809 403.914 233.955C 396.311 243.05 367.954 240.368 352.35 246.46C 337.988 249.564 330.826 256.14 328.989 264.583C 327.152 273.025 327.761 269.572 328.314 274.546"
               style="stroke:#001364; stroke-width:1; fill:none" />
            <g
               id="g4436">
              <path
                 id="path4438"
                 d="M 422.38 203.946C 416.814 212.298 419.035 211.723 414.717 219.128C 410.398 226.535 410.711 228.04 404.064 234.129C 396.449 243.119 367.929 240.504 352.429 246.532C 338.15 249.621 330.992 256.129 329.126 264.518C 327.259 272.907 327.849 269.691 328.393 274.583"
                 style="stroke:#001566; stroke-width:1.0; fill:none" />
              <path
                 id="path4440"
                 d="M 423.268 203.728C 417.796 211.939 419.77 211.701 415.281 219.173C 410.791 226.646 410.888 228.27 404.213 234.304C 396.587 243.188 367.904 240.641 352.507 246.604C 338.311 249.678 331.157 256.118 329.262 264.454C 327.366 272.79 327.936 269.811 328.471 274.619"
                 style="stroke:#001767; stroke-width:1.0; fill:none" />
              <path
                 id="path4442"
                 d="M 424.156 203.51C 418.779 211.579 420.504 211.679 415.844 219.218C 411.184 226.757 411.065 228.501 404.363 234.478C 396.725 243.257 367.879 240.778 352.586 246.676C 338.472 249.735 331.323 256.107 329.398 264.39C 327.473 272.672 328.024 269.931 328.549 274.656"
                 style="stroke:#011869; stroke-width:1.0; fill:none" />
              <path
                 id="path4444"
                 d="M 425.044 203.292C 419.761 211.22 421.238 211.657 416.408 219.262C 411.578 226.868 411.242 228.732 404.512 234.653C 396.863 243.326 367.854 240.914 352.664 246.748C 338.633 249.792 331.488 256.096 329.534 264.326C 327.58 272.555 328.111 270.051 328.628 274.693"
                 style="stroke:#011a6a; stroke-width:1.0; fill:none" />
              <path
                 id="path4446"
                 d="M 425.932 203.074C 420.744 210.86 421.972 211.635 416.972 219.307C 411.971 226.979 411.42 228.963 404.661 234.827C 397.001 243.395 367.829 241.051 352.742 246.82C 338.794 249.849 331.653 256.085 329.67 264.262C 327.687 272.438 328.199 270.17 328.706 274.73"
                 style="stroke:#011c6c; stroke-width:1.0; fill:none" />
              <path
                 id="path4448"
                 d="M 426.82 202.856C 421.726 210.501 422.706 211.613 417.535 219.352C 412.364 227.091 411.597 229.194 404.811 235.002C 397.139 243.463 367.804 241.188 352.821 246.892C 338.955 249.906 331.819 256.074 329.806 264.197C 327.794 272.32 328.286 270.29 328.784 274.767"
                 style="stroke:#011e6d; stroke-width:1.0; fill:none" />
              <path
                 id="path4450"
                 d="M 427.709 202.638C 422.709 210.141 423.44 211.592 418.099 219.396C 412.758 227.202 411.774 229.425 404.96 235.176C 397.277 243.532 367.779 241.325 352.899 246.964C 339.117 249.963 331.984 256.062 329.942 264.133C 327.9 272.203 328.374 270.41 328.862 274.804"
                 style="stroke:#01206f; stroke-width:1.0; fill:none" />
              <path
                 id="path4452"
                 d="M 428.597 202.42C 423.691 209.782 424.174 211.57 418.663 219.441C 413.151 227.313 411.951 229.655 405.11 235.351C 397.415 243.601 367.754 241.461 352.978 247.036C 339.278 250.021 332.15 256.051 330.078 264.069C 328.007 272.085 328.462 270.53 328.941 274.841"
                 style="stroke:#012270; stroke-width:1.0; fill:none" />
              <path
                 id="path4454"
                 d="M 429.485 202.202C 424.674 209.422 424.908 211.548 419.227 219.486C 413.544 227.424 412.129 229.886 405.259 235.525C 397.553 243.67 367.729 241.598 353.056 247.108C 339.439 250.078 332.315 256.04 330.215 264.005C 328.114 271.968 328.549 270.649 329.019 274.877"
                 style="stroke:#012472; stroke-width:1.0; fill:none" />
              <path
                 id="path4456"
                 d="M 430.373 201.984C 425.656 209.063 425.642 211.526 419.79 219.53C 413.938 227.535 412.306 230.117 405.408 235.699C 397.691 243.739 367.704 241.735 353.134 247.18C 339.6 250.135 332.48 256.029 330.351 263.94C 328.221 271.85 328.637 270.769 329.097 274.914"
                 style="stroke:#012573; stroke-width:1.0; fill:none" />
              <path
                 id="path4458"
                 d="M 431.261 201.766C 426.639 208.703 426.376 211.504 420.354 219.575C 414.331 227.646 412.483 230.348 405.558 235.874C 397.829 243.808 367.679 241.871 353.213 247.252C 339.761 250.192 332.646 256.018 330.487 263.876C 328.328 271.733 328.724 270.889 329.176 274.951"
                 style="stroke:#012775; stroke-width:1.0; fill:none" />
              <path
                 id="path4460"
                 d="M 432.149 201.549C 427.621 208.344 427.11 211.482 420.918 219.62C 414.724 227.757 412.66 230.579 405.707 236.048C 397.967 243.877 367.654 242.008 353.291 247.324C 339.922 250.249 332.811 256.007 330.623 263.812C 328.435 271.616 328.812 271.009 329.254 274.988"
                 style="stroke:#012977; stroke-width:1.0; fill:none" />
              <path
                 id="path4462"
                 d="M 433.038 201.331C 428.604 207.984 427.844 211.46 421.481 219.664C 415.118 227.869 412.838 230.81 405.857 236.223C 398.105 243.946 367.629 242.145 353.37 247.396C 340.084 250.306 332.976 255.996 330.759 263.748C 328.542 271.498 328.899 271.128 329.332 275.025"
                 style="stroke:#012b78; stroke-width:1.0; fill:none" />
              <path
                 id="path4464"
                 d="M 433.926 201.113C 429.586 207.625 428.578 211.438 422.045 219.709C 415.511 227.98 413.015 231.041 406.006 236.397C 398.242 244.015 367.603 242.281 353.448 247.468C 340.245 250.363 333.142 255.985 330.895 263.683C 328.648 271.381 328.987 271.248 329.411 275.062"
                 style="stroke:#022d7a; stroke-width:1.0; fill:none" />
              <path
                 id="path4466"
                 d="M 434.814 200.895C 430.569 207.265 429.312 211.416 422.609 219.753C 415.904 228.091 413.192 231.271 406.155 236.572C 398.38 244.084 367.578 242.418 353.526 247.54C 340.406 250.42 333.307 255.974 331.031 263.619C 328.755 271.263 329.074 271.368 329.489 275.098"
                 style="stroke:#022f7b; stroke-width:1.0; fill:none" />
              <path
                 id="path4468"
                 d="M 435.702 200.677C 431.551 206.906 430.046 211.395 423.172 219.798C 416.298 228.202 413.369 231.502 406.305 236.746C 398.518 244.153 367.553 242.555 353.605 247.612C 340.567 250.478 333.473 255.963 331.168 263.555C 328.862 271.146 329.162 271.488 329.567 275.135"
                 style="stroke:#02317d; stroke-width:1.0; fill:none" />
              <path
                 id="path4470"
                 d="M 436.59 200.459C 432.534 206.546 430.781 211.373 423.736 219.843C 416.691 228.313 413.547 231.733 406.454 236.921C 398.656 244.222 367.528 242.691 353.683 247.684C 340.728 250.535 333.638 255.952 331.304 263.491C 328.969 271.028 329.249 271.607 329.645 275.172"
                 style="stroke:#02327e; stroke-width:1.0; fill:none" />
              <path
                 id="path4472"
                 d="M 437.478 200.241C 433.516 206.187 431.515 211.351 424.3 219.887C 417.084 228.424 413.724 231.964 406.604 237.095C 398.794 244.291 367.503 242.828 353.762 247.756C 340.889 250.592 333.803 255.941 331.44 263.427C 329.076 270.911 329.337 271.727 329.724 275.209"
                 style="stroke:#023480; stroke-width:1.0; fill:none" />
              <path
                 id="path4474"
                 d="M 438.367 200.023C 434.499 205.827 432.249 211.329 424.863 219.932C 417.478 228.536 413.901 232.195 406.753 237.27C 398.932 244.36 367.478 242.965 353.84 247.828C 341.051 250.649 333.969 255.93 331.576 263.362C 329.183 270.793 329.424 271.847 329.802 275.246"
                 style="stroke:#023681; stroke-width:1.0; fill:none" />
              <path
                 id="path4476"
                 d="M 439.255 199.805C 435.481 205.468 432.983 211.307 425.427 219.977C 417.871 228.647 414.078 232.426 406.902 237.444C 399.07 244.429 367.453 243.101 353.918 247.9C 341.212 250.706 334.134 255.919 331.712 263.298C 329.29 270.676 329.512 271.967 329.88 275.283"
                 style="stroke:#023883; stroke-width:1.0; fill:none" />
              <path
                 id="path4478"
                 d="M 440.143 199.587C 436.464 205.108 433.717 211.285 425.991 220.021C 418.264 228.758 414.256 232.657 407.052 237.619C 399.208 244.498 367.428 243.238 353.997 247.972C 341.373 250.763 334.299 255.908 331.848 263.234C 329.397 270.559 329.599 272.086 329.959 275.32"
                 style="stroke:#023a84; stroke-width:1.0; fill:none" />
              <path
                 id="path4480"
                 d="M 441.031 199.369C 437.446 204.749 434.451 211.263 426.554 220.066C 418.658 228.869 414.433 232.887 407.201 237.793C 399.346 244.567 367.403 243.375 354.075 248.044C 341.534 250.82 334.465 255.897 331.984 263.17C 329.503 270.441 329.687 272.206 330.037 275.356"
                 style="stroke:#023c86; stroke-width:1.0; fill:none" />
              <path
                 id="path4482"
                 d="M 441.919 199.151C 438.429 204.389 435.185 211.241 427.118 220.111C 419.051 228.98 414.61 233.118 407.351 237.968C 399.484 244.636 367.378 243.511 354.154 248.116C 341.695 250.877 334.63 255.886 332.12 263.105C 329.61 270.324 329.774 272.326 330.115 275.393"
                 style="stroke:#023d88; stroke-width:1.0; fill:none" />
              <path
                 id="path4484"
                 d="M 442.807 198.933C 439.411 204.03 435.919 211.219 427.682 220.155C 419.444 229.091 414.787 233.349 407.5 238.142C 399.622 244.705 367.353 243.648 354.232 248.188C 341.856 250.934 334.796 255.875 332.257 263.041C 329.717 270.206 329.862 272.446 330.194 275.43"
                 style="stroke:#023f89; stroke-width:1.0; fill:none" />
              <path
                 id="path4486"
                 d="M 443.696 198.715C 440.394 203.67 436.653 211.198 428.245 220.2C 419.838 229.202 414.965 233.58 407.649 238.317C 399.76 244.773 367.328 243.785 354.31 248.26C 342.018 250.992 334.961 255.864 332.393 262.977C 329.824 270.089 329.949 272.565 330.272 275.467"
                 style="stroke:#02418b; stroke-width:1.0; fill:none" />
              <path
                 id="path4488"
                 d="M 444.584 198.497C 441.376 203.311 437.387 211.176 428.809 220.245C 420.231 229.314 415.142 233.811 407.799 238.491C 399.898 244.842 367.303 243.921 354.389 248.332C 342.179 251.049 335.126 255.853 332.529 262.913C 329.931 269.971 330.037 272.685 330.35 275.504"
                 style="stroke:#03438c; stroke-width:1.0; fill:none" />
              <path
                 id="path4490"
                 d="M 445.472 198.28C 442.359 202.951 438.121 211.154 429.373 220.289C 420.624 229.425 415.319 234.042 407.948 238.666C 400.036 244.911 367.278 244.058 354.467 248.404C 342.34 251.106 335.292 255.842 332.665 262.848C 330.038 269.854 330.124 272.805 330.428 275.541"
                 style="stroke:#03458e; stroke-width:1.0; fill:none" />
              <path
                 id="path4492"
                 d="M 446.36 198.062C 443.341 202.592 438.855 211.132 429.937 220.334C 421.018 229.536 415.496 234.272 408.098 238.84C 400.174 244.98 367.253 244.195 354.546 248.476C 342.501 251.163 335.457 255.831 332.801 262.784C 330.145 269.737 330.212 272.925 330.507 275.578"
                 style="stroke:#03478f; stroke-width:1.0; fill:none" />
              <path
                 id="path4494"
                 d="M 447.248 197.844C 444.324 202.232 439.589 211.11 430.5 220.379C 421.411 229.647 415.674 234.503 408.247 239.015C 400.311 245.049 367.227 244.332 354.624 248.548C 342.662 251.22 335.623 255.82 332.937 262.72C 330.251 269.619 330.299 273.044 330.585 275.614"
                 style="stroke:#034991; stroke-width:1.0; fill:none" />
              <path
                 id="path4496"
                 d="M 448.136 197.626C 445.306 201.873 440.323 211.088 431.064 220.423C 421.804 229.758 415.851 234.734 408.396 239.189C 400.449 245.118 367.202 244.468 354.702 248.62C 342.823 251.277 335.788 255.809 333.073 262.656C 330.358 269.502 330.387 273.164 330.663 275.651"
                 style="stroke:#034a92; stroke-width:1.0; fill:none" />
              <path
                 id="path4498"
                 d="M 449.025 197.408C 446.289 201.513 441.057 211.066 431.628 220.468C 422.198 229.869 416.028 234.965 408.546 239.364C 400.587 245.187 367.177 244.605 354.781 248.692C 342.985 251.334 335.953 255.798 333.21 262.591C 330.465 269.384 330.474 273.284 330.742 275.688"
                 style="stroke:#034c94; stroke-width:1.0; fill:none" />
              <path
                 id="path4500"
                 d="M 449.913 197.19C 447.271 201.154 441.792 211.044 432.191 220.513C 422.591 229.98 416.205 235.196 408.695 239.538C 400.725 245.256 367.152 244.742 354.859 248.764C 343.146 251.391 336.119 255.787 333.346 262.527C 330.572 269.267 330.562 273.404 330.82 275.725"
                 style="stroke:#034e95; stroke-width:1.0; fill:none" />
              <path
                 id="path4502"
                 d="M 450.801 196.972C 448.254 200.794 442.526 211.023 432.755 220.557C 422.984 230.092 416.383 235.427 408.845 239.713C 400.863 245.325 367.127 244.878 354.938 248.836C 343.307 251.449 336.284 255.776 333.482 262.463C 330.679 269.149 330.649 273.523 330.898 275.762"
                 style="stroke:#035097; stroke-width:1.0; fill:none" />
              <path
                 id="path4504"
                 d="M 451.689 196.754C 449.236 200.435 443.26 211.001 433.319 220.602C 423.378 230.203 416.56 235.658 408.994 239.887C 401.001 245.394 367.102 245.015 355.016 248.908C 343.468 251.506 336.449 255.765 333.618 262.399C 330.786 269.032 330.737 273.643 330.977 275.799"
                 style="stroke:#035299; stroke-width:1.0; fill:none" />
              <path
                 id="path4506"
                 d="M 452.577 196.536C 450.219 200.075 443.994 210.979 433.882 220.646C 423.771 230.314 416.737 235.888 409.143 240.062C 401.139 245.463 367.077 245.152 355.094 248.98C 343.629 251.563 336.615 255.754 333.754 262.335C 330.893 268.915 330.824 273.763 331.055 275.836"
                 style="stroke:#03549a; stroke-width:1.0; fill:none" />
              <path
                 id="path4508"
                 d="M 453.465 196.318C 451.201 199.716 444.728 210.957 434.446 220.691C 424.164 230.425 416.914 236.119 409.293 240.236C 401.277 245.532 367.052 245.288 355.173 249.052C 343.79 251.62 336.78 255.743 333.89 262.27C 331 268.797 330.912 273.883 331.133 275.872"
                 style="stroke:#03569c; stroke-width:1.0; fill:none" />
              <path
                 id="path4510"
                 d="M 454.354 196.1C 452.184 199.356 445.462 210.935 435.01 220.736C 424.558 230.536 417.092 236.35 409.442 240.411C 401.415 245.601 367.027 245.425 355.251 249.124C 343.952 251.677 336.946 255.731 334.026 262.206C 331.106 268.68 330.999 274.003 331.211 275.909"
                 style="stroke:#04579d; stroke-width:1.0; fill:none" />
              <path
                 id="path4512"
                 d="M 455.242 195.882C 453.166 198.997 446.196 210.913 435.573 220.78C 424.951 230.647 417.269 236.581 409.592 240.585C 401.553 245.67 367.002 245.562 355.33 249.196C 344.113 251.734 337.111 255.72 334.162 262.142C 331.213 268.562 331.087 274.122 331.29 275.946"
                 style="stroke:#04599f; stroke-width:1.0; fill:none" />
              <path
                 id="path4514"
                 d="M 456.13 195.664C 454.149 198.637 446.93 210.891 436.137 220.825C 425.344 230.759 417.446 236.812 409.741 240.759C 401.691 245.739 366.977 245.698 355.408 249.268C 344.274 251.791 337.276 255.709 334.299 262.078C 331.32 268.445 331.174 274.242 331.368 275.983"
                 style="stroke:#045ba0; stroke-width:1.0; fill:none" />
              <path
                 id="path4516"
                 d="M 457.018 195.446C 455.131 198.278 447.664 210.869 436.701 220.87C 425.738 230.87 417.623 237.043 409.89 240.934C 401.829 245.808 366.952 245.835 355.486 249.34C 344.435 251.848 337.442 255.698 334.435 262.013C 331.427 268.327 331.262 274.362 331.446 276.02"
                 style="stroke:#045da2; stroke-width:1.0; fill:none" />
              <path
                 id="path4518"
                 d="M 457.906 195.228C 456.114 197.918 448.398 210.847 437.264 220.914C 426.131 230.981 417.801 237.274 410.04 241.108C 401.967 245.877 366.927 245.972 355.565 249.412C 344.596 251.905 337.607 255.687 334.571 261.949C 331.534 268.21 331.35 274.482 331.525 276.057"
                 style="stroke:#045fa3; stroke-width:1.0; fill:none" />
              <path
                 id="path4520"
                 d="M 458.794 195.011C 457.096 197.559 449.132 210.826 437.828 220.959C 426.524 231.092 417.978 237.504 410.189 241.283C 402.105 245.946 366.902 246.108 355.643 249.484C 344.757 251.963 337.773 255.676 334.707 261.885C 331.641 268.092 331.437 274.601 331.603 276.093"
                 style="stroke:#0461a5; stroke-width:1.0; fill:none" />
              <path
                 id="path4522"
                 d="M 459.683 194.793C 458.079 197.199 449.866 210.804 438.392 221.004C 426.918 231.203 418.155 237.735 410.339 241.457C 402.243 246.015 366.876 246.245 355.722 249.556C 344.919 252.02 337.938 255.665 334.843 261.821C 331.748 267.975 331.525 274.721 331.681 276.13"
                 style="stroke:#0463a6; stroke-width:1.0; fill:none" />
              <path
                 id="path4524"
                 d="M 460.571 194.575C 459.061 196.84 450.6 210.782 438.955 221.048C 427.311 231.314 418.332 237.966 410.488 241.632C 402.38 246.084 366.851 246.382 355.8 249.628C 345.08 252.077 338.103 255.654 334.979 261.756C 331.854 267.858 331.612 274.841 331.76 276.167"
                 style="stroke:#0464a8; stroke-width:1.0; fill:none" />
              <path
                 id="path4526"
                 d="M 461.459 194.357C 460.044 196.48 451.334 210.76 439.519 221.093C 427.704 231.425 418.51 238.197 410.637 241.806C 402.518 246.152 366.826 246.518 355.878 249.7C 345.241 252.134 338.269 255.643 335.115 261.692C 331.961 267.74 331.7 274.961 331.838 276.204"
                 style="stroke:#0466aa; stroke-width:1.0; fill:none" />
              <path
                 id="path4528"
                 d="M 462.347 194.139C 461.026 196.121 452.068 210.738 440.083 221.138C 428.098 231.537 418.687 238.428 410.787 241.981C 402.656 246.221 366.801 246.655 355.957 249.772C 345.402 252.191 338.434 255.632 335.252 261.628C 332.068 267.623 331.787 275.08 331.916 276.241"
                 style="stroke:#0468ab; stroke-width:1.0; fill:none" />
              <path
                 id="path4530"
                 d="M 463.235 193.921C 462.009 195.761 452.802 210.716 440.646 221.182C 428.491 231.648 418.864 238.659 410.936 242.155C 402.794 246.29 366.776 246.792 356.035 249.844C 345.563 252.248 338.599 255.621 335.388 261.564C 332.175 267.505 331.875 275.2 331.994 276.278"
                 style="stroke:#046aad; stroke-width:1.0; fill:none" />
              <path
                 id="path4532"
                 d="M 464.123 193.703C 462.991 195.402 453.537 210.694 441.21 221.227C 428.884 231.759 419.041 238.89 411.086 242.33C 402.932 246.359 366.751 246.928 356.114 249.916C 345.724 252.305 338.765 255.61 335.524 261.5C 332.282 267.388 331.962 275.32 332.073 276.315"
                 style="stroke:#056cae; stroke-width:1.0; fill:none" />
              <path
                 id="path4534"
                 d="M 465.012 193.485C 463.974 195.042 454.271 210.672 441.774 221.272C 429.278 231.87 419.219 239.12 411.235 242.504C 403.07 246.428 366.726 247.065 356.192 249.988C 345.886 252.362 338.93 255.599 335.66 261.435C 332.389 267.27 332.05 275.44 332.151 276.351"
                 style="stroke:#056eb0; stroke-width:1.0; fill:none" />
              <path
                 id="path4536"
                 d="M 465.9 193.267C 464.956 194.683 455.005 210.651 442.338 221.316C 429.671 231.981 419.396 239.351 411.384 242.679C 403.208 246.497 366.701 247.202 356.27 250.06C 346.047 252.419 339.096 255.588 335.796 261.371C 332.496 267.153 332.137 275.559 332.229 276.388"
                 style="stroke:#0570b1; stroke-width:1.0; fill:none" />
              <path
                 id="path4538"
                 d="M 466.788 193.049C 465.939 194.323 455.739 210.629 442.901 221.361C 430.064 232.092 419.573 239.582 411.534 242.853C 403.346 246.566 366.676 247.339 356.349 250.132C 346.208 252.477 339.261 255.577 335.932 261.307C 332.603 267.036 332.225 275.679 332.308 276.425"
                 style="stroke:#0571b3; stroke-width:1.0; fill:none" />
              <path
                 id="path4540"
                 d="M 467.676 192.831C 466.921 193.964 456.473 210.607 443.465 221.406C 430.458 232.203 419.75 239.813 411.683 243.028C 403.484 246.635 366.651 247.475 356.427 250.204C 346.369 252.534 339.426 255.566 336.068 261.243C 332.709 266.918 332.312 275.799 332.386 276.462"
                 style="stroke:#0573b4; stroke-width:1.0; fill:none" />
              <path
                 id="path4542"
                 d="M 468.564 192.613C 467.904 193.604 457.207 210.585 444.029 221.45C 430.851 232.315 419.928 240.044 411.833 243.202C 403.622 246.704 366.626 247.612 356.506 250.276C 346.53 252.591 339.592 255.555 336.204 261.178C 332.816 266.801 332.4 275.919 332.464 276.499"
                 style="stroke:#0575b6; stroke-width:1.0; fill:none" />
              <path
                 id="path4544"
                 d="M 469.452 192.395C 468.886 193.245 457.941 210.563 444.592 221.495C 431.244 232.426 420.105 240.275 411.982 243.377C 403.76 246.773 366.601 247.749 356.584 250.348C 346.691 252.648 339.757 255.544 336.341 261.114C 332.923 266.683 332.487 276.038 332.543 276.536"
                 style="stroke:#0577b8; stroke-width:1.0; fill:none" />
              <path
                 id="path4546"
                 d="M 470.341 192.177C 469.869 192.885 458.675 210.541 445.156 221.539C 431.638 232.537 420.282 240.505 412.131 243.551C 403.898 246.842 366.576 247.885 356.662 250.42C 346.853 252.705 339.922 255.533 336.477 261.05C 333.03 266.566 332.575 276.158 332.621 276.573"
                 style="stroke:#0579b9; stroke-width:1.0; fill:none" />
              <path
                 id="path4548"
                 d="M 471.229 191.959C 470.851 192.526 459.409 210.519 445.72 221.584C 432.031 232.648 420.459 240.736 412.281 243.726C 404.036 246.911 366.551 248.022 356.741 250.492C 347.014 252.762 340.088 255.522 336.613 260.986C 333.137 266.448 332.662 276.278 332.699 276.609"
                 style="stroke:#057bbb; stroke-width:1.0; fill:none" />
              <path
                 id="path4550"
                 d="M 472.117 191.742C 471.834 192.166 460.143 210.497 446.283 221.629C 432.424 232.759 420.637 240.967 412.43 243.9C 404.174 246.98 366.526 248.159 356.819 250.564C 347.175 252.819 340.253 255.511 336.749 260.921C 333.244 266.331 332.75 276.398 332.777 276.646"
                 style="stroke:#057dbc; stroke-width:1.0; fill:none" />
              <path
                 id="path4552"
                 d="M 473.005 191.524C 472.816 191.807 460.877 210.475 446.847 221.673C 432.818 232.87 420.814 241.198 412.58 244.075C 404.312 247.049 366.5 248.295 356.898 250.636C 347.336 252.876 340.419 255.5 336.885 260.857C 333.351 266.214 332.837 276.517 332.856 276.683"
                 style="stroke:#057ebe; stroke-width:1.0; fill:none" />
              <path
                 id="path4554"
                 d="M 473.893 191.306C 473.799 191.447 461.611 210.454 447.411 221.718C 433.211 232.982 420.991 241.429 412.729 244.249C 404.449 247.118 366.475 248.432 356.976 250.708C 347.497 252.934 340.584 255.489 337.021 260.793C 333.457 266.096 332.925 276.637 332.934 276.72"
                 style="stroke:#0680bf; stroke-width:1.0; fill:none" />
            </g>
            <path
               id="path4556"
               d="M 474.781 191.088C 474.781 191.088 462.345 210.432 447.974 221.763C 433.604 233.093 421.168 241.66 412.878 244.424C 404.587 247.187 366.45 248.569 357.054 250.78C 347.658 252.991 340.749 255.478 337.157 260.729C 333.564 265.979 333.012 276.757 333.012 276.757"
               style="stroke:#0682c1; stroke-width:1; fill:none" />
            <g
               id="g4558">
              <path
                 id="path4560"
                 d="M 474.883 191.336C 474.883 191.336 462.64 210.68 448.149 222.039C 433.66 233.397 421.214 241.844 412.924 244.608C 404.633 247.371 366.754 248.845 357.091 250.89C 347.539 253.101 340.694 255.772 337.167 260.996C 333.638 266.218 333.086 276.573 333.104 276.738"
                 style="stroke:#057ebe; stroke-width:1.0; fill:none" />
              <path
                 id="path4562"
                 d="M 474.984 191.585C 474.984 191.585 462.935 210.929 448.324 222.315C 433.715 233.701 421.26 242.028 412.971 244.792C 404.68 247.555 367.058 249.121 357.128 251.001C 347.419 253.212 340.639 256.067 337.176 261.263C 333.712 266.458 333.16 276.388 333.197 276.72"
                 style="stroke:#057bbb; stroke-width:1.0; fill:none" />
              <path
                 id="path4564"
                 d="M 475.085 191.834C 475.085 191.834 463.23 211.178 448.5 222.592C 433.77 234.005 421.307 242.212 413.017 244.976C 404.726 247.739 367.362 249.398 357.165 251.111C 347.299 253.322 340.584 256.362 337.185 261.53C 333.785 266.697 333.233 276.204 333.289 276.701"
                 style="stroke:#0577b8; stroke-width:1.0; fill:none" />
              <path
                 id="path4566"
                 d="M 475.187 192.082C 475.187 192.082 463.524 211.427 448.675 222.868C 433.825 234.309 421.353 242.397 413.063 245.161C 404.772 247.924 367.666 249.674 357.202 251.222C 347.179 253.433 340.528 256.657 337.194 261.797C 333.859 266.937 333.307 276.02 333.381 276.683"
                 style="stroke:#0573b4; stroke-width:1.0; fill:none" />
              <path
                 id="path4568"
                 d="M 475.288 192.331C 475.288 192.331 463.819 211.675 448.85 223.144C 433.881 234.613 421.399 242.581 413.109 245.345C 404.818 248.108 367.97 249.951 357.239 251.332C 347.06 253.543 340.473 256.952 337.203 262.064C 333.933 267.176 333.381 275.836 333.473 276.665"
                 style="stroke:#0570b1; stroke-width:1.0; fill:none" />
              <path
                 id="path4570"
                 d="M 475.389 192.58C 475.389 192.58 464.114 211.924 449.025 223.421C 433.936 234.917 421.445 242.765 413.155 245.529C 404.864 248.292 368.274 250.227 357.276 251.443C 346.94 253.654 340.418 257.246 337.213 262.332C 334.007 267.416 333.454 275.651 333.565 276.646"
                 style="stroke:#056cae; stroke-width:1.0; fill:none" />
              <path
                 id="path4572"
                 d="M 475.491 192.829C 475.491 192.829 464.409 212.173 449.2 223.697C 433.991 235.221 421.491 242.949 413.201 245.713C 404.91 248.476 368.578 250.503 357.312 251.553C 346.82 253.764 340.363 257.541 337.222 262.599C 334.08 267.655 333.528 275.467 333.657 276.628"
                 style="stroke:#0468ab; stroke-width:1.0; fill:none" />
              <path
                 id="path4574"
                 d="M 475.592 193.077C 475.592 193.077 464.703 212.422 449.375 223.973C 434.047 235.525 421.537 243.134 413.247 245.898C 404.956 248.661 368.882 250.78 357.349 251.664C 346.701 253.875 340.307 257.836 337.231 262.866C 334.154 267.895 333.602 275.283 333.749 276.609"
                 style="stroke:#0464a8; stroke-width:1.0; fill:none" />
              <path
                 id="path4576"
                 d="M 475.693 193.326C 475.693 193.326 464.998 212.67 449.55 224.25C 434.102 235.829 421.583 243.318 413.293 246.082C 405.002 248.845 369.186 251.056 357.386 251.775C 346.581 253.985 340.252 258.131 337.24 263.133C 334.228 268.134 333.675 275.099 333.841 276.591"
                 style="stroke:#0461a5; stroke-width:1.0; fill:none" />
              <path
                 id="path4578"
                 d="M 475.795 193.575C 475.795 193.575 465.293 212.919 449.725 224.526C 434.157 236.133 421.629 243.502 413.339 246.266C 405.048 249.029 369.49 251.332 357.423 251.885C 346.461 254.096 340.197 258.425 337.249 263.4C 334.301 268.374 333.749 274.914 333.933 276.572"
                 style="stroke:#045da2; stroke-width:1.0; fill:none" />
              <path
                 id="path4580"
                 d="M 475.896 193.823C 475.896 193.823 465.588 213.168 449.9 224.802C 434.212 236.437 421.675 243.686 413.385 246.45C 405.094 249.213 369.794 251.609 357.46 251.996C 346.341 254.207 340.141 258.72 337.259 263.667C 334.375 268.613 333.823 274.73 334.025 276.554"
                 style="stroke:#04599f; stroke-width:1.0; fill:none" />
              <path
                 id="path4582"
                 d="M 475.997 194.072C 475.997 194.072 465.883 213.417 450.075 225.079C 434.268 236.741 421.721 243.871 413.431 246.634C 405.14 249.397 370.098 251.885 357.497 252.106C 346.222 254.317 340.086 259.015 337.268 263.934C 334.449 268.853 333.896 274.546 334.118 276.536"
                 style="stroke:#03569c; stroke-width:1.0; fill:none" />
              <path
                 id="path4584"
                 d="M 476.099 194.321C 476.099 194.321 466.177 213.665 450.25 225.355C 434.323 237.045 421.767 244.055 413.477 246.819C 405.186 249.582 370.402 252.161 357.534 252.217C 346.102 254.428 340.031 259.31 337.277 264.201C 334.522 269.092 333.97 274.362 334.21 276.517"
                 style="stroke:#035299; stroke-width:1.0; fill:none" />
              <path
                 id="path4586"
                 d="M 476.2 194.569C 476.2 194.569 466.472 213.914 450.425 225.631C 434.378 237.349 421.813 244.239 413.523 247.003C 405.232 249.766 370.706 252.438 357.571 252.327C 345.982 254.538 339.976 259.604 337.286 264.469C 334.596 269.332 334.044 274.177 334.302 276.499"
                 style="stroke:#034e95; stroke-width:1.0; fill:none" />
              <path
                 id="path4588"
                 d="M 476.301 194.818C 476.301 194.818 466.767 214.163 450.6 225.908C 434.433 237.653 421.859 244.423 413.569 247.187C 405.278 249.95 371.01 252.714 357.607 252.438C 345.862 254.649 339.92 259.899 337.295 264.736C 334.67 269.571 334.117 273.993 334.394 276.48"
                 style="stroke:#034a92; stroke-width:1.0; fill:none" />
              <path
                 id="path4590"
                 d="M 476.403 195.067C 476.403 195.067 467.062 214.411 450.775 226.184C 434.489 237.957 421.905 244.607 413.615 247.371C 405.324 250.134 371.314 252.991 357.644 252.548C 345.743 254.759 339.865 260.194 337.305 265.003C 334.744 269.811 334.191 273.809 334.486 276.462"
                 style="stroke:#03478f; stroke-width:1.0; fill:none" />
              <path
                 id="path4592"
                 d="M 476.504 195.316C 476.504 195.316 467.356 214.66 450.95 226.46C 434.544 238.261 421.952 244.792 413.661 247.556C 405.371 250.319 371.618 253.267 357.681 252.659C 345.623 254.87 339.81 260.489 337.314 265.27C 334.817 270.05 334.265 273.625 334.578 276.443"
                 style="stroke:#03438c; stroke-width:1.0; fill:none" />
              <path
                 id="path4594"
                 d="M 476.605 195.564C 476.605 195.564 467.651 214.909 451.125 226.737C 434.599 238.565 421.998 244.976 413.707 247.74C 405.417 250.503 371.922 253.543 357.718 252.769C 345.503 254.98 339.755 260.784 337.323 265.537C 334.891 270.29 334.338 273.441 334.67 276.425"
                 style="stroke:#023f89; stroke-width:1.0; fill:none" />
              <path
                 id="path4596"
                 d="M 476.707 195.813C 476.707 195.813 467.946 215.158 451.3 227.013C 434.654 238.869 422.044 245.16 413.753 247.924C 405.463 250.687 372.226 253.82 357.755 252.88C 345.383 255.091 339.699 261.078 337.332 265.804C 334.965 270.529 334.412 273.256 334.762 276.406"
                 style="stroke:#023c86; stroke-width:1.0; fill:none" />
              <path
                 id="path4598"
                 d="M 476.808 196.062C 476.808 196.062 468.241 215.406 451.475 227.289C 434.71 239.173 422.09 245.344 413.799 248.108C 405.509 250.871 372.53 254.096 357.792 252.99C 345.264 255.201 339.644 261.373 337.341 266.071C 335.038 270.769 334.486 273.072 334.854 276.388"
                 style="stroke:#023883; stroke-width:1.0; fill:none" />
              <path
                 id="path4600"
                 d="M 476.909 196.31C 476.909 196.31 468.536 215.655 451.65 227.566C 434.765 239.477 422.136 245.529 413.845 248.293C 405.555 251.056 372.834 254.372 357.829 253.101C 345.144 255.312 339.589 261.668 337.351 266.339C 335.112 271.008 334.559 272.888 334.947 276.37"
                 style="stroke:#023480; stroke-width:1.0; fill:none" />
              <path
                 id="path4602"
                 d="M 477.011 196.559C 477.011 196.559 468.83 215.904 451.825 227.842C 434.82 239.781 422.182 245.713 413.891 248.477C 405.601 251.24 373.138 254.649 357.865 253.211C 345.024 255.422 339.534 261.963 337.36 266.606C 335.186 271.248 334.633 272.704 335.039 276.351"
                 style="stroke:#02317d; stroke-width:1.0; fill:none" />
              <path
                 id="path4604"
                 d="M 477.112 196.808C 477.112 196.808 469.125 216.153 452 228.118C 434.875 240.085 422.228 245.897 413.937 248.661C 405.647 251.424 373.442 254.925 357.902 253.322C 344.905 255.533 339.478 262.257 337.369 266.873C 335.26 271.487 334.707 272.519 335.131 276.333"
                 style="stroke:#022d7a; stroke-width:1.0; fill:none" />
              <path
                 id="path4606"
                 d="M 477.213 197.056C 477.213 197.056 469.42 216.401 452.175 228.395C 434.931 240.389 422.274 246.081 413.983 248.845C 405.693 251.608 373.746 255.201 357.939 253.432C 344.785 255.643 339.423 262.552 337.378 267.14C 335.333 271.727 334.78 272.335 335.223 276.314"
                 style="stroke:#012977; stroke-width:1.0; fill:none" />
              <path
                 id="path4608"
                 d="M 477.315 197.305C 477.315 197.305 469.715 216.65 452.35 228.671C 434.986 240.693 422.32 246.266 414.029 249.03C 405.739 251.793 374.05 255.478 357.976 253.543C 344.665 255.754 339.368 262.847 337.387 267.407C 335.407 271.966 334.854 272.151 335.315 276.296"
                 style="stroke:#012573; stroke-width:1.0; fill:none" />
              <path
                 id="path4610"
                 d="M 477.416 197.554C 477.416 197.554 470.009 216.899 452.525 228.947C 435.041 240.997 422.366 246.45 414.075 249.214C 405.785 251.977 374.354 255.754 358.013 253.654C 344.545 255.865 339.312 263.142 337.397 267.674C 335.481 272.206 334.928 271.967 335.407 276.277"
                 style="stroke:#012270; stroke-width:1.0; fill:none" />
              <path
                 id="path4612"
                 d="M 477.517 197.803C 477.517 197.803 470.304 217.148 452.7 229.224C 435.097 241.301 422.412 246.634 414.121 249.398C 405.831 252.161 374.658 256.031 358.05 253.764C 344.426 255.975 339.257 263.436 337.406 267.941C 335.554 272.445 335.001 271.782 335.499 276.259"
                 style="stroke:#011e6d; stroke-width:1.0; fill:none" />
              <path
                 id="path4614"
                 d="M 477.619 198.051C 477.619 198.051 470.599 217.396 452.875 229.5C 435.152 241.605 422.458 246.818 414.167 249.582C 405.877 252.345 374.962 256.307 358.087 253.875C 344.306 256.086 339.202 263.731 337.415 268.208C 335.628 272.685 335.075 271.598 335.591 276.241"
                 style="stroke:#011a6a; stroke-width:1.0; fill:none" />
              <path
                 id="path4616"
                 d="M 477.72 198.3C 477.72 198.3 470.894 217.645 453.05 229.776C 435.207 241.909 422.504 247.002 414.213 249.767C 405.923 252.529 375.266 256.583 358.124 253.985C 344.186 256.196 339.147 264.026 337.424 268.476C 335.702 272.924 335.149 271.414 335.683 276.222"
                 style="stroke:#001767; stroke-width:1.0; fill:none" />
            </g>
            <path
               id="path4618"
               d="M 477.821 198.549C 477.821 198.549 471.188 217.894 453.225 230.053C 435.262 242.213 422.55 247.187 414.259 249.951C 405.969 252.714 375.57 256.86 358.16 254.096C 344.066 256.307 339.091 264.321 337.433 268.743C 335.775 273.164 335.222 271.23 335.775 276.204"
               style="stroke:#001364; stroke-width:1; fill:none" />
          </g>
        </g>
        <g
           id="g4620">
          <g
             id="g4622">
            <defs
               id="defs4624">
              <linearGradient
                 gradientUnits="userSpaceOnUse"
                 y2="115.184"
                 x2="383.876"
                 y1="49.6757"
                 x1="489.332"
                 id="14">
                <stop
                   id="stop4627"
                   style="stop-color:#c10000"
                   offset="0" />
                <stop
                   id="stop4629"
                   style="stop-color:#ff0000"
                   offset="0.16" />
                <stop
                   id="stop4631"
                   style="stop-color:#ffe3dd"
                   offset="0.33" />
                <stop
                   id="stop4633"
                   style="stop-color:#ff0000"
                   offset="0.615" />
                <stop
                   id="stop4635"
                   style="stop-color:#5f0000"
                   offset="1" />
              </linearGradient>
            </defs>
            <path
               id="path4637"
               d="M 388.915 112.054C 396.797 124.742 424.561 121.769 450.884 105.417C 477.207 89.0654 492.176 65.4938 484.294 52.8054C 476.412 40.1171 448.648 43.0906 422.325 59.4423C 396.001 75.7941 381.033 99.3657 388.915 112.054z"
               style="stroke:none; fill:url(#14)" />
            <path
               id="path4639"
               d="M 386.685 108.888C 394.567 121.576 422.331 118.603 448.654 102.251C 474.977 85.8994 489.946 62.3278 482.064 49.6395C 474.182 36.9511 446.418 39.9246 420.095 56.2764C 393.771 72.6281 378.803 96.1997 386.685 108.888z"
               style="stroke:none; fill:black" />
            <defs
               id="defs4641">
              <linearGradient
                 gradientUnits="userSpaceOnUse"
                 y2="90.7221"
                 x2="358.968"
                 y1="18.2846"
                 x1="475.579"
                 id="15">
                <stop
                   id="stop4644"
                   style="stop-color:#c10000"
                   offset="0" />
                <stop
                   id="stop4646"
                   style="stop-color:#ff3838"
                   offset="0.27" />
                <stop
                   id="stop4648"
                   style="stop-color:#ffe3dd"
                   offset="0.415" />
                <stop
                   id="stop4650"
                   style="stop-color:#e20000"
                   offset="0.545" />
                <stop
                   id="stop4652"
                   style="stop-color:#5f0000"
                   offset="0.715" />
                <stop
                   id="stop4654"
                   style="stop-color:#ff0000"
                   offset="0.82" />
                <stop
                   id="stop4656"
                   style="stop-color:#ff0000"
                   offset="1" />
              </linearGradient>
            </defs>
            <path
               id="path4658"
               d="M 466.195 61.5737L 431.196 5.23181L 367.076 45.0618L 402.075 101.404M 466.195 61.5737C 466.195 61.5737 469.768 63.5918 464.954 71.3998C 460.141 79.2077 451.156 86.7297 439.391 94.0377C 426.937 101.774 416.905 104.173 409.978 103.723C 404.932 103.396 402.075 101.404 402.075 101.404"
               style="stroke:none; fill:url(#15)" />
            <path
               id="path4660"
               d="M 367.032 45.0753C 372.302 53.5584 390.944 51.5205 408.642 40.5266C 426.34 29.5328 436.428 13.7234 431.159 5.24023C 425.889 -3.24292 407.246 -1.20502 389.548 9.78882C 371.85 20.7827 361.762 36.592 367.032 45.0753z"
               style="stroke:none; fill:black" />
            <defs
               id="defs4662">
              <linearGradient
                 gradientUnits="userSpaceOnUse"
                 y2="102.049"
                 x2="396.587"
                 y1="57.1509"
                 x1="468.865"
                 id="16">
                <stop
                   id="stop4665"
                   style="stop-color:#6c0000"
                   offset="0" />
                <stop
                   id="stop4667"
                   style="stop-color:#d80000"
                   offset="0.24" />
                <stop
                   id="stop4669"
                   style="stop-color:#ffb1b1"
                   offset="0.345" />
                <stop
                   id="stop4671"
                   style="stop-color:#b90000"
                   offset="0.515" />
                <stop
                   id="stop4673"
                   style="stop-color:#260000"
                   offset="1" />
              </linearGradient>
            </defs>
            <path
               id="path4675"
               d="M 462.354 55.3927C 463.389 56.5708 467.772 63.7948 467.772 63.7948C 467.772 63.7948 467.572 67.9098 464.107 73.1288C 460.116 79.1397 452.069 86.7836 439.542 94.0777C 431.026 99.0367 424.039 102.006 418.372 102.989C 408.222 105.278 402.304 102.038 402.304 102.038C 402.304 102.038 398.244 96.5717 397.68 94.3187C 397.599 93.9916 405.593 95.4567 414.434 93.8406C 420.781 92.6807 427.732 89.1977 434.674 85.2647C 444.488 79.7067 452.785 72.3438 457.511 65.9067C 460.786 61.4458 461.946 57.1367 462.354 55.3927z"
               style="stroke:none; fill:url(#16)" />
          </g>
        </g>
      </g>
    </g>
  </g>
</svg>
