/* XPM */
static char * book_closed_xpm[] = {
"18 16 28 1",
" 	c None",
".	c #000000",
"+	c #844F4F",
"@	c #AB7474",
"#	c #A66B6B",
"$	c #9F6060",
"%	c #B6B6B5",
"&	c #8E5555",
"*	c #A6A7A4",
"=	c #888D82",
"-	c #945959",
";	c #9B5E5E",
">	c #9E6769",
",	c #3C4035",
"'	c #54594B",
")	c #875252",
"!	c #91948E",
"~	c #AE8182",
"{	c #E1D5D2",
"]	c #F1F0EC",
"^	c #AAAAA7",
"/	c #636361",
"(	c #C2C2C0",
"_	c #14090A",
":	c #B88989",
"<	c #CCCDC4",
"[	c #AF7A7A",
"}	c #999D91",
"      ..........  ",
"     .+@#$$$$$$.  ",
"     .@#$$$$$$.%  ",
"    .&@$$$$$$$.%  ",
"    .@#$$$$$$.%%  ",
"   .@#$$$$$$$.%*. ",
"  .&@$$$$$$$.%%=. ",
"  .@#$$$$$$$.%*.  ",
" .-@$$$$$$$.%%=.  ",
" .;#$$$$$$$.%*.   ",
".>...,')$$.%%!.   ",
".~{]]]^/...%*.    ",
".>{]]]]]]](%!.    ",
" _..:<]]]](*.     ",
"    ...[<]}=.     ",
"       ...$.      "};
