/* XPM */
static char * book_open_xpm[] = {
"22 17 61 1",
" 	c None",
".	c #000000",
"+	c #BEBEBE",
"@	c #F0F0F0",
"#	c #DADADA",
"$	c #D4D4D4",
"%	c #ECECEC",
"&	c #F2F2F2",
"*	c #EFEFEF",
"=	c #EDEDED",
"-	c #AEAEAE",
";	c #EAEAEA",
">	c #EEEEEE",
",	c #E7E7E7",
"'	c #B2B2B2",
")	c #E9E9E9",
"!	c #D0D0D0",
"~	c #D3D3D3",
"{	c #A0A0A0",
"]	c #E4E4E4",
"^	c #A2A2A2",
"/	c #E0E0E0",
"(	c #F5F5F5",
"_	c #F6F6F6",
":	c #D9D9D9",
"<	c #BFBFBF",
"[	c #D5D5D5",
"}	c #E5E5E5",
"|	c #F3F3F3",
"1	c #8A8A8A",
"2	c #636363",
"3	c #CECECE",
"4	c #CACACA",
"5	c #DCDCDC",
"6	c #DEDEDE",
"7	c #DFDFDF",
"8	c #515151",
"9	c #9E9E9E",
"0	c #F1F1F1",
"a	c #EBEBEB",
"b	c #939393",
"c	c #656565",
"d	c #5B5B5B",
"e	c #C6C6C6",
"f	c #808080",
"g	c #C3C3C3",
"h	c #737373",
"i	c #A6A6A6",
"j	c #DBDBDB",
"k	c #616161",
"l	c #6A6A6A",
"m	c #6C6C6C",
"n	c #ACACAC",
"o	c #242424",
"p	c #2A2A2A",
"q	c #D8D8D8",
"r	c #0C0C0C",
"s	c #161616",
"t	c #575757",
"u	c #838383",
"v	c #777777",
"     .++@@            ",
"    .+#@@@@           ",
"   .+@@@$@@           ",
"  .+@@%@@&*=          ",
" .-@@@$;@$>,          ",
".'@@$@@$)@!,~         ",
".{@@=$@@%>>]^/*(____- ",
" .:@@@&@@!)<[}|____-1 ",
" .2}@@=[>)345>6_7__18.",
"  .9@@0a!-b:>(____-cd.",
"   .:@@e+f/%(7_77_18. ",
"   .2}*ghij@_____-cd. ",
"    .k%hl7)(77_7_1b.  ",
"    ..8mn}0(____-cm.  ",
"    ..op+q@_____1b.   ",
"     .rst++++jj<cm.   ",
"      ...1u++++vb.    "};
