/* XPM */
static char *comments_xpm[] = {
/* columns rows colors chars-per-pixel */
"16 16 54 1",
"  c black",
". c #374F64",
"X c #314E6C",
"o c #4D667E",
"O c #646464",
"+ c #4B6983",
"@ c #5C778F",
"# c #5F798F",
"$ c #7C90A3",
"% c #990000",
"& c #B39169",
"* c gray56",
"= c #959595",
"- c gray59",
"; c #9B9B9B",
": c gray61",
"> c #9D9D9D",
", c gray62",
"< c #9F9F9F",
"1 c #A0A0A0",
"2 c gray63",
"3 c #A4A4A4",
"4 c gray65",
"5 c #A7A7A7",
"6 c gray66",
"7 c #AEAEAE",
"8 c #B2B2B2",
"9 c gray70",
"0 c #B6B6B6",
"q c gray73",
"w c gray76",
"e c #C6C6C6",
"r c gray79",
"t c #CDCDCD",
"y c gray81",
"u c gray88",
"i c #E2E2E2",
"p c #E4E4E4",
"a c gray93",
"s c gray94",
"d c #F1F1F1",
"f c gray95",
"g c #F3F3F3",
"h c #F4F4F4",
"j c gray96",
"k c #F6F6F6",
"l c gray97",
"z c #F8F8F8",
"x c #F9F9F9",
"c c gray98",
"v c #FBFBFB",
"b c gray99",
"n c gray100",
"m c None",
/* pixels */
"mmmmmmmmmmmmmmmm",
"mmmmmmmmmmmmmmmm",
"mm            mm",
"mm $@@@@@@@@o mm",
"mm #++++++++. mm",
"mm ncnnvcccc4 mm",
"mm n%&n4uruj1 mm",
"mm n%%cwq87j1 mm",
"mm ncnccjcjj1 mm",
"mm nXXcttttd= mm",
"mm n&Xc4805d* mm",
"mm cjdddaaaa= mm",
"mm uee4<<;<=O mm",
"mm            mm",
"mmmmmmmmmmmmmmmm",
"mmmmmmmmmmmmmmmm"
};
