/* XPM */
static char *detail_compte[]={
"10 9 2 1",
"# c None",
". c #000000",
"...#..#..#",
"##########",
"#...#.#..#",
"##########",
"..#...#.##",
"##########",
"...#...#.#",
"##########",
"....#...##"};
