/* XPM */
static char *export_xpm[] = {
/* columns rows colors chars-per-pixel */
"24 24 239 2",
"   c black",
".  c #010000",
"X  c #020202",
"o  c #040405",
"O  c #070707",
"+  c #060809",
"@  c #0A0505",
"#  c #090909",
"$  c #0A0908",
"%  c #0B0908",
"&  c gray4",
"*  c #0C0C0C",
"=  c gray5",
"-  c #0C0D0F",
";  c gray8",
":  c #161614",
">  c #161616",
",  c #181816",
"<  c #21201E",
"1  c #282724",
"2  c #28323E",
"3  c #363430",
"4  c #33383C",
"5  c #3A3A3A",
"6  c #363C41",
"7  c #373C40",
"8  c #313E49",
"9  c #383E43",
"0  c #383F43",
"q  c #34464E",
"w  c #39424B",
"e  c #3E474D",
"r  c #364853",
"t  c #364A59",
"y  c #3A515D",
"u  c #3B5360",
"i  c #42413C",
"p  c #43423F",
"a  c #40474D",
"s  c #414A4E",
"d  c #484641",
"f  c #494943",
"g  c #4D4942",
"h  c #4E4A43",
"j  c #4F4C44",
"k  c #424A51",
"l  c #434C54",
"z  c #454F55",
"x  c #475158",
"c  c #4A5359",
"v  c #4B555D",
"b  c #514E46",
"n  c #524F47",
"m  c #595854",
"M  c #5D5C55",
"N  c #4F5B62",
"B  c #4E5E6A",
"V  c #525B63",
"C  c #515C64",
"Z  c #486173",
"A  c #4A6070",
"S  c #4A6176",
"D  c #4B657A",
"F  c #4D6678",
"G  c #4E6879",
"H  c #4D697F",
"J  c #4E697F",
"K  c #566168",
"L  c #57636A",
"P  c #58636B",
"I  c #5A666F",
"U  c #5C6971",
"Y  c #5F6C76",
"T  c #5B6E7C",
"R  c #605E57",
"E  c #735B5B",
"W  c #605F68",
"Q  c #65635C",
"!  c #67655E",
"~  c gray39",
"^  c #6D6B63",
"/  c DimGray",
"(  c #6D6D6D",
")  c #6F6F6F",
"_  c #626F79",
"`  c #686670",
"'  c #6B6F72",
"]  c #6F777E",
"[  c #76746B",
"{  c #727270",
"}  c gray45",
"|  c #75757A",
" . c gray48",
".. c #4D6C80",
"X. c #4F6F84",
"o. c #54738C",
"O. c #65859C",
"+. c #6C8294",
"@. c #6E899E",
"#. c #778999",
"$. c #7A8E9A",
"%. c #698BA3",
"&. c #6B8DA6",
"*. c #6C8CA4",
"=. c #6C8EA6",
"-. c #6F8FA7",
";. c #6F90AC",
":. c #708AA1",
">. c #728FA4",
",. c #7091AA",
"<. c #7192AE",
"1. c #7294AD",
"2. c #7494AF",
"3. c #7897B3",
"4. c #7998B2",
"5. c #7B9BB2",
"6. c #7E9CB5",
"7. c #7F9DB6",
"8. c #7DA0B6",
"9. c #7FA2B9",
"0. c #807D74",
"q. c #A96458",
"w. c #CB7A73",
"e. c #CB7B73",
"r. c #CB7D73",
"t. c #CB7C74",
"y. c #CC7C72",
"u. c #DA7868",
"i. c #DC7A68",
"p. c #C8817B",
"a. c #D48173",
"s. c #DC8171",
"d. c #E0806E",
"f. c #E0826E",
"g. c #E08D7E",
"h. c #888781",
"j. c #898883",
"k. c #8C8B89",
"l. c #908E86",
"z. c #93918B",
"x. c #97938C",
"c. c #97958E",
"v. c #9B968E",
"b. c #9F9D96",
"n. c #819EB6",
"m. c #829FB7",
"M. c #83A1B6",
"N. c #83A0B8",
"B. c #82A0BB",
"V. c #85A1B8",
"C. c #86A2B9",
"Z. c #87A3BA",
"A. c #84A3BF",
"S. c #85A4BF",
"D. c #8AA5BB",
"F. c #8CA7BD",
"G. c #A4A099",
"H. c #A4A4A4",
"J. c #ABA9A3",
"K. c #B0AFA9",
"L. c #B6B5AF",
"P. c #B8B3AB",
"I. c gray69",
"U. c #B8B5B0",
"Y. c #BAB9B6",
"T. c #87ABC1",
"R. c #88A7C3",
"E. c #8AAAC5",
"W. c #A4B9CB",
"Q. c #9BC3D8",
"!. c #A1C1DA",
"~. c #A3C3DB",
"^. c #A4C4DE",
"/. c #AAC6DD",
"(. c #B3CADC",
"). c #BACCDC",
"_. c #ABC4E2",
"`. c #A8C8E1",
"'. c #A9C9E2",
"]. c #AAC9E1",
"[. c #AAC9E2",
"{. c #AACEE3",
"}. c #A9CDE5",
"|. c #AECCE5",
" X c #B5CAE5",
".X c #B0D1E4",
"XX c #B6D3E7",
"oX c #B7D2E7",
"OX c #B9D3E6",
"+X c #B9D3E7",
"@X c #BAD5E9",
"#X c #BBD6E8",
"$X c #C0BCB5",
"%X c #C2BFB9",
"&X c #EEBCB2",
"*X c #EDBFB6",
"=X c #EEBEB5",
"-X c #C7C4BE",
";X c #C7C5BF",
":X c #EEC1B8",
">X c #EFC5BB",
",X c #F0C6BC",
"<X c #F1C8BE",
"1X c #C9C6C0",
"2X c #C8C7C2",
"3X c #CAC6C0",
"4X c #CBC8C2",
"5X c #CCC9C3",
"6X c #CDCAC6",
"7X c #CFCEC9",
"8X c #CDCDCD",
"9X c #CECECE",
"0X c #D1CEC9",
"qX c #D5D4D1",
"wX c #D6D4D0",
"eX c #D7D4D0",
"rX c #D7D5D1",
"tX c #D9D7D4",
"yX c #DAD8D3",
"uX c #DCDAD7",
"iX c #DDDBD7",
"pX c #DFDDDA",
"aX c #DFDEDC",
"sX c #C3D7F4",
"dX c #E0DEDA",
"fX c #E1E0DC",
"gX c #E2E1DD",
"hX c #E3E1DE",
"jX c #E4E2E0",
"kX c #E6E5E2",
"lX c #E7E6E2",
"zX c #E6E6E4",
"xX c #E9E8E6",
"cX c #EAE9E7",
"vX c #EBEAE8",
"bX c #EDECEA",
"nX c #F0EFEC",
"mX c gray100",
"MX c None",
/* pixels */
"MXMXMXMXMXMXMXMXMXMXMXMXMXMXMXMX      MXMXMXMXMX",
"MXMXMXMXMXMXMXMXMXMXMXMX          Y.          MX",
"MX      @ .               ( {   p G.d   j.X X   ",
"MX  sX}.0.:XeX<X&X=X,X=X% 2XL.b.b.G.k.v. .p     ",
"MX  @XE.W g.f.i.i.s.i.a.q.@ b.b.m M j.0.[       ",
"MX  @XR.` p.r.w.t.y.t.    d b.R i 1 3 b.^ d     ",
"MX  XXT.} mXmXmXmXmXmX  k.L.b.m < $ , zX0.! R   ",
"MX  +XS.} mXmXmXmXmXmX  @ d b.j.3 > k.pXQ d     ",
"MX  XXR.} 8X8X8X8X8X8X8XH.& K.0.L.lXeXx.Q       ",
"MX  XXB.~ mXmXmXmXmXmXmX= L.J.b.0. .[ [ M d     ",
"MX   Xm.} mXmXmXmXmXmXmX= 5 m & d [ d + f       ",
"MX  |.8.} 8X8X8X8X8X8X8XI.& & H.> i = +.o       ",
"MX  .XM.E mXmXmXmXmXmXmXmXmXmXmX> ; & m.V       ",
"MX  {.4.$. .} } } } } ' ( } } } } / ] V.y       ",
"MX  [.2.m.m.V.m.7.7.m.4.V.V.V.V.m.F.m.F.t       ",
"MX  _.1.;.<.s k V _ Y U U P P V u w 3.W.r       ",
"MX  [.,.-.c x.pXhXvXvXvXdX7X2Xv.C F o./.q       ",
"MX  [.&.*.s yXlX! n n tX;X$XP.7Xl ..X.(.8       ",
"MX  [.&.>.a fXnX! b n 5X%X$X3XuXv ..X.).8       ",
"MX  ^.%.:.0 dXcXb j b ;X$X2XfXcXc F ..~.0       ",
"MX  #.@.O.4 eXeXh h h $X7XlXbXlXz A F !.0       ",
"MX  = B T N G.$XP.5X2XeXjXvXiXU.e S A Q.7       ",
"MX                                    2         ",
"MX                                              "
};
