/* XPM */
static char *export_xpm[] = {
/* columns rows colors chars-per-pixel */
"16 16 100 2",
"   c black",
".  c #171614",
"X  c #112835",
"o  c #112C3A",
"O  c #132D3C",
"+  c #183042",
"@  c #1A3140",
"#  c #213648",
"$  c #2D3949",
"%  c #2E4353",
"&  c #2F4656",
"*  c #33495A",
"=  c #3E4F5C",
"-  c #403F3B",
";  c #45443F",
":  c #52514B",
">  c #53524E",
",  c #54534D",
"<  c #5F5D56",
"1  c #496072",
"2  c #4F6475",
"3  c #59636D",
"4  c #67655F",
"5  c #686661",
"6  c #6C6A65",
"7  c #6F6E6C",
"8  c gray43",
"9  c #78756C",
"0  c #767573",
"q  c #7B7973",
"w  c #7C7A72",
"e  c #7D7B75",
"r  c #7C7B76",
"t  c gray48",
"y  c #586D80",
"u  c #5A7082",
"i  c #5F7989",
"p  c #6B7882",
"a  c #7D97AC",
"s  c #7E99AD",
"d  c #7F9AAE",
"f  c #807F7A",
"g  c #C77467",
"h  c #C77568",
"j  c #838078",
"k  c #86847D",
"l  c #B7877E",
"z  c #868686",
"x  c #80868C",
"c  c #80878F",
"v  c #898781",
"b  c #8D8B86",
"n  c #8E8C85",
"m  c #97958F",
"M  c #909090",
"N  c #9A9992",
"B  c #9B9993",
"V  c #9A9996",
"C  c #9C9D9D",
"Z  c #819AAE",
"A  c #839EB2",
"S  c #84A0B5",
"D  c #86A4B9",
"F  c #89A6BC",
"G  c #8CA8BD",
"H  c #8DA9BE",
"J  c #97A5B0",
"K  c #9DA9B0",
"L  c #9FA9B0",
"P  c #A29F9A",
"I  c gray63",
"U  c #A8B1BD",
"Y  c #B2B2B2",
"T  c #B7B6B3",
"R  c #B9B9B9",
"E  c gray75",
"W  c #AEBFCD",
"Q  c #BFCBD6",
"!  c #C88A80",
"~  c #D18F84",
"^  c #C0C0C0",
"/  c gray76",
"(  c #C5C5C5",
")  c #CDCDCD",
"_  c #CECECE",
"`  c #C7CFDA",
"'  c #CAD6DF",
"]  c gray83",
"[  c gray84",
"{  c #D7D7D7",
"}  c #CBDDEB",
"|  c #CFE0ED",
" . c #DBE7F1",
".. c #E6E6E6",
"X. c gray92",
"o. c #EEEEEE",
"O. c gray95",
"+. c #F7F8FA",
"@. c #FEFEFE",
"#. c None",
/* pixels */
"                                ",
"  +.} ! ~ ~ ~ ~       f         ",
"   .H l g g g g   P m v n j     ",
"  | H { @.@.@.    q 4 - 5 w     ",
"  | H { { { {   7 B > . 0 B :   ",
"  | H { @.@.@.    e k V T e     ",
"  | H { { { { {   b 6 9 < ,     ",
"  | H o.@.@.O.X.      ;         ",
"  | H W ' ` Q Q Q Q       Z 1   ",
"  | H H D Z Z a Z Z s a Z Z 1   ",
"  | H G U ( Q ) X.{ C & a Z 1   ",
"  | H S ( ( + * { ( R O 3 J 1   ",
"  | D Z ( ) % u ( ( E X 2 K 1   ",
"  p A Z ) ..# p ( / Y o p K 1   ",
"    3 2 I ^ M M z 7 t $ = a @   ",
"#.                              "
};
