/* XPM */
static char * g10_xpm[] = {
"48 48 504 2",
"  	c None",
". 	c #383831",
"+ 	c #54554D",
"@ 	c #C0C0B3",
"# 	c #262621",
"$ 	c #0C0C0A",
"% 	c #11110E",
"& 	c #A5A596",
"* 	c #77786B",
"= 	c #55564A",
"- 	c #636559",
"; 	c #68685D",
"> 	c #6E6D62",
", 	c #69695E",
"' 	c #B8B8A9",
") 	c #707469",
"! 	c #34342E",
"~ 	c #40403A",
"{ 	c #8D8D82",
"] 	c #BFBFB5",
"^ 	c #CFD0C1",
"/ 	c #E1E1D2",
"( 	c #E9E8D8",
"_ 	c #E8E7D8",
": 	c #D9D9CD",
"< 	c #D5D6C8",
"[ 	c #E6E5D7",
"} 	c #E5E4D3",
"| 	c #C6C6B5",
"1 	c #5B5B53",
"2 	c #1B1C18",
"3 	c #5C5C54",
"4 	c #DBDBD5",
"5 	c #EDEDE8",
"6 	c #DFDFD5",
"7 	c #D9DACD",
"8 	c #E8E7D7",
"9 	c #DFDFD0",
"0 	c #DEDDCE",
"a 	c #E3E3D5",
"b 	c #C3C3B1",
"c 	c #ABAB99",
"d 	c #BBBBAA",
"e 	c #44433B",
"f 	c #0F0F0D",
"g 	c #464640",
"h 	c #E2E2D8",
"i 	c #ECECE3",
"j 	c #EAE9DC",
"k 	c #E2E2D6",
"l 	c #E7E6D7",
"m 	c #D4D5CA",
"n 	c #E1E0D3",
"o 	c #DBDBC8",
"p 	c #9FA191",
"q 	c #A6A993",
"r 	c #ADAD9C",
"s 	c #82837C",
"t 	c #181815",
"u 	c #1A1B17",
"v 	c #D2D2CA",
"w 	c #EBEAE0",
"x 	c #ECECE4",
"y 	c #EDEDE7",
"z 	c #E9E9DA",
"A 	c #E2E1D2",
"B 	c #B9B9AD",
"C 	c #CDCCBD",
"D 	c #B4B4A7",
"E 	c #DEDDCC",
"F 	c #E1E0D1",
"G 	c #DADAC7",
"H 	c #B7B7A1",
"I 	c #9E9E8A",
"J 	c #9A9A87",
"K 	c #CDCCB9",
"L 	c #32332E",
"M 	c #707167",
"N 	c #E9E8DB",
"O 	c #EAE9DA",
"P 	c #CCCBBC",
"Q 	c #53534B",
"R 	c #151512",
"S 	c #9B9B8F",
"T 	c #585950",
"U 	c #505047",
"V 	c #B3B5A3",
"W 	c #C0C2B1",
"X 	c #BEBDA7",
"Y 	c #949482",
"Z 	c #8B8C7B",
"` 	c #ADAD98",
" .	c #DDDCC9",
"..	c #7D7E76",
"+.	c #0D0E0B",
"@.	c #0B0B0A",
"#.	c #B6B5A6",
"$.	c #E5E5D7",
"%.	c #DDDDD0",
"&.	c #3E3E39",
"*.	c #959589",
"=.	c #55564D",
"-.	c #B6B6A2",
";.	c #B6B6A1",
">.	c #AFAF9A",
",.	c #A1A28E",
"'.	c #9C9C88",
").	c #D2D1BD",
"!.	c #262721",
"~.	c #050504",
"{.	c #161613",
"].	c #CDCDC1",
"^.	c #E0DFD1",
"/.	c #D4D4C5",
"(.	c #DBDBCA",
"_.	c #1C1C1A",
":.	c #11110F",
"<.	c #96968A",
"[.	c #55564C",
"}.	c #141411",
"|.	c #AFAF9F",
"1.	c #C6C5B0",
"2.	c #C7C6B0",
"3.	c #BFBFA9",
"4.	c #A5A691",
"5.	c #BEBDA8",
"6.	c #454540",
"7.	c #292923",
"8.	c #CFCFC6",
"9.	c #E5E4D7",
"0.	c #E0E0D1",
"a.	c #D2D2C4",
"b.	c #D2D2C0",
"c.	c #D6D6C1",
"d.	c #DFDFD1",
"e.	c #1D1D1C",
"f.	c #10100E",
"g.	c #84887A",
"h.	c #484A42",
"i.	c #0B0B09",
"j.	c #535449",
"k.	c #7A7A6C",
"l.	c #707062",
"m.	c #5B5B4F",
"n.	c #383830",
"o.	c #424239",
"p.	c #2B2B25",
"q.	c #CBCCC4",
"r.	c #D3D3C7",
"s.	c #CBCBBC",
"t.	c #C7C7BA",
"u.	c #C8C8BA",
"v.	c #D4D4C9",
"w.	c #1E1E1C",
"x.	c #0E0E0C",
"y.	c #7D7F6F",
"z.	c #8C8E81",
"A.	c #373830",
"B.	c #4A4A42",
"C.	c #707067",
"D.	c #20201B",
"E.	c #454541",
"F.	c #21211D",
"G.	c #BBBDAD",
"H.	c #BFBFAE",
"I.	c #C5C5B7",
"J.	c #C6C6B9",
"K.	c #CDCEBF",
"L.	c #262622",
"M.	c #939485",
"N.	c #2A2B28",
"O.	c #090907",
"P.	c #9F9E8C",
"Q.	c #B9B8A4",
"R.	c #BBBAA7",
"S.	c #BEBDAA",
"T.	c #C6C6B7",
"U.	c #CCCDBC",
"V.	c #878778",
"W.	c #272721",
"X.	c #12120F",
"Y.	c #9D9D8E",
"Z.	c #6A6B63",
"`.	c #64665B",
" +	c #B8B7A4",
".+	c #BAB9A4",
"++	c #B9B9A4",
"@+	c #B6B6A4",
"#+	c #A8A999",
"$+	c #A5A898",
"%+	c #B1B19C",
"&+	c #8A8A7A",
"*+	c #ABAB98",
"=+	c #D1D0BE",
"-+	c #1F201C",
";+	c #1E1F1A",
">+	c #929382",
",+	c #A6A692",
"'+	c #C7C6B3",
")+	c #B0B4A1",
"!+	c #9D9F8E",
"~+	c #999B89",
"{+	c #B1B3A1",
"]+	c #C6C6B2",
"^+	c #CECEBD",
"/+	c #CCCCBA",
"(+	c #ADAD99",
"_+	c #A7A999",
":+	c #303029",
"<+	c #060605",
"[+	c #505046",
"}+	c #BDBEA9",
"|+	c #C5C4AF",
"1+	c #A4A491",
"2+	c #9B9C8B",
"3+	c #9EA18D",
"4+	c #B7B7A3",
"5+	c #C0C0AC",
"6+	c #C7C6B6",
"7+	c #C1C2AB",
"8+	c #A0A391",
"9+	c #999987",
"0+	c #BBBAA5",
"a+	c #CECDB9",
"b+	c #454842",
"c+	c #080807",
"d+	c #8A8977",
"e+	c #A4A494",
"f+	c #9A9C8B",
"g+	c #A1A28F",
"h+	c #B2B3A0",
"i+	c #B1B09C",
"j+	c #BBBAA6",
"k+	c #C8C8B6",
"l+	c #C7C6AE",
"m+	c #B3B39D",
"n+	c #A8AA97",
"o+	c #BFBEA7",
"p+	c #B8B7A3",
"q+	c #B5B6A6",
"r+	c #4F5047",
"s+	c #969784",
"t+	c #A7A793",
"u+	c #B6B5A0",
"v+	c #AEAD99",
"w+	c #C7C7B2",
"x+	c #B5B7A2",
"y+	c #90907E",
"z+	c #969786",
"A+	c #B1B19D",
"B+	c #9B9D8A",
"C+	c #8D8C7B",
"D+	c #A2A38F",
"E+	c #C1C1AF",
"F+	c #77776C",
"G+	c #21221E",
"H+	c #292823",
"I+	c #727265",
"J+	c #92927E",
"K+	c #929380",
"L+	c #878777",
"M+	c #A2A490",
"N+	c #A6A893",
"O+	c #939381",
"P+	c #868676",
"Q+	c #939583",
"R+	c #8B8C7C",
"S+	c #9EA08D",
"T+	c #B2B39F",
"U+	c #ADAD9A",
"V+	c #CCCBBB",
"W+	c #67675E",
"X+	c #3F3F3B",
"Y+	c #161612",
"Z+	c #3D3D35",
"`+	c #626255",
" @	c #7B7B6C",
".@	c #929282",
"+@	c #989A88",
"@@	c #888876",
"#@	c #8F8F7D",
"$@	c #9A9D8C",
"%@	c #A4AB9B",
"&@	c #A8AD9B",
"*@	c #A8AB98",
"=@	c #B8B8A3",
"-@	c #A1A391",
";@	c #4E4D44",
">@	c #080806",
",@	c #191915",
"'@	c #6D6D60",
")@	c #7A7A6B",
"!@	c #989987",
"~@	c #AEB19F",
"{@	c #A9B0A1",
"]@	c #A8AB97",
"^@	c #A5A690",
"/@	c #BEBEA9",
"(@	c #C9C9B4",
"_@	c #9A9B86",
":@	c #979888",
"<@	c #7D7D6E",
"[@	c #515247",
"}@	c #1D1D19",
"|@	c #65665A",
"1@	c #A4A793",
"2@	c #A8AA95",
"3@	c #BEBDA9",
"4@	c #D5D5C0",
"5@	c #C0C1AC",
"6@	c #A0A18C",
"7@	c #9FA18F",
"8@	c #848677",
"9@	c #646559",
"0@	c #414138",
"a@	c #CFD0BB",
"b@	c #898A79",
"c@	c #7D7E6E",
"d@	c #7C7E6F",
"e@	c #090908",
"f@	c #0D0D0B",
"g@	c #BDBDA9",
"h@	c #D3D2BD",
"i@	c #A2A28E",
"j@	c #868674",
"k@	c #8E8F7D",
"l@	c #BBBBAF",
"m@	c #919180",
"n@	c #727264",
"o@	c #747569",
"p@	c #5C5C4F",
"q@	c #6C6C5E",
"r@	c #10100D",
"s@	c #797A69",
"t@	c #979784",
"u@	c #252521",
"v@	c #969686",
"w@	c #BCBCA6",
"x@	c #969783",
"y@	c #AAAB95",
"z@	c #3D3D38",
"A@	c #535349",
"B@	c #676759",
"C@	c #6F6F61",
"D@	c #797969",
"E@	c #7F8070",
"F@	c #68685A",
"G@	c #6A6A5C",
"H@	c #626254",
"I@	c #888A79",
"J@	c #8A8A7B",
"K@	c #A5A591",
"L@	c #23231E",
"M@	c #24241E",
"N@	c #949484",
"O@	c #CFCFBA",
"P@	c #C3C3AD",
"Q@	c #A7A792",
"R@	c #9B9B89",
"S@	c #32342E",
"T@	c #6B6B5D",
"U@	c #959583",
"V@	c #9E9F8C",
"W@	c #7B7B6B",
"X@	c #898877",
"Y@	c #8D8D7B",
"Z@	c #A4A492",
"`@	c #979787",
" #	c #8B8D7E",
".#	c #21211C",
"+#	c #3D3D34",
"@#	c #AEAE9F",
"##	c #C3C3AE",
"$#	c #AEAE98",
"%#	c #AEAE99",
"&#	c #ADAC98",
"*#	c #A6A693",
"=#	c #30302A",
"-#	c #181814",
";#	c #707061",
">#	c #80806F",
",#	c #A4A390",
"'#	c #747364",
")#	c #979785",
"!#	c #B1B09B",
"~#	c #BBBBA3",
"{#	c #D2D1BB",
"]#	c #0A0A09",
"^#	c #959581",
"/#	c #6B6B5C",
"(#	c #535347",
"_#	c #5E5E51",
":#	c #646456",
"<#	c #888877",
"[#	c #8E8F7C",
"}#	c #8D8F7F",
"|#	c #AFAE9E",
"1#	c #1A1A17",
"2#	c #59594D",
"3#	c #717161",
"4#	c #969682",
"5#	c #8C8B7A",
"6#	c #828172",
"7#	c #B0AF9B",
"8#	c #C1C0A8",
"9#	c #C6C5AD",
"0#	c #828271",
"a#	c #22221D",
"b#	c #8E8D7B",
"c#	c #A1A18E",
"d#	c #838372",
"e#	c #727163",
"f#	c #898977",
"g#	c #7C7C6C",
"h#	c #777667",
"i#	c #7B7A69",
"j#	c #777767",
"k#	c #A0A18F",
"l#	c #5D5E57",
"m#	c #282924",
"n#	c #7E7E6D",
"o#	c #949582",
"p#	c #949380",
"q#	c #C2C1A8",
"r#	c #C6C5AB",
"s#	c #ADAC96",
"t#	c #4B4B41",
"u#	c #878878",
"v#	c #A5A592",
"w#	c #8E8E7E",
"x#	c #9B9B88",
"y#	c #8A8A78",
"z#	c #747465",
"A#	c #868675",
"B#	c #8D8F7D",
"C#	c #727263",
"D#	c #9C9B89",
"E#	c #383834",
"F#	c #414038",
"G#	c #717061",
"H#	c #8D8D7C",
"I#	c #7D7D6D",
"J#	c #B4B39D",
"K#	c #C5C4AB",
"L#	c #B6B8A2",
"M#	c #ABAB95",
"N#	c #B5B5A0",
"O#	c #C1C0A9",
"P#	c #A3A38F",
"Q#	c #8C8D7B",
"R#	c #818272",
"S#	c #8E8E7C",
"T#	c #9C9C8B",
"U#	c #444441",
"V#	c #404037",
"W#	c #9E9F8B",
"X#	c #7F7F6F",
"Y#	c #949481",
"Z#	c #B2B19B",
"`#	c #AEAF9A",
" $	c #ABAD99",
".$	c #BDBCA4",
"+$	c #989B89",
"@$	c #838474",
"#$	c #949485",
"$$	c #373731",
"%$	c #272722",
"&$	c #767769",
"*$	c #6A695B",
"=$	c #7D7C6D",
"-$	c #AFAE9A",
";$	c #C2C1A9",
">$	c #ACAC97",
",$	c #C0BFA8",
"'$	c #B8B9A4",
")$	c #A6A894",
"!$	c #B0B29E",
"~$	c #868878",
"{$	c #9D9E8C",
"]$	c #46463F",
"^$	c #3E3E36",
"/$	c #505146",
"($	c #B0AF9C",
"_$	c #9F9F8B",
":$	c #AEAD98",
"<$	c #C0C0A7",
"[$	c #A2A491",
"}$	c #9DA08E",
"|$	c #CACBB5",
"1$	c #45443F",
"2$	c #707068",
"3$	c #2C2D26",
"4$	c #969584",
"5$	c #BABBA8",
"6$	c #868576",
"7$	c #D5D4C2",
"8$	c #0F0F0C",
"9$	c #D0CFBD",
"0$	c #24241F",
"a$	c #7D7E6D",
"b$	c #CBCAB9",
"c$	c #36362E",
"d$	c #53544C",
"e$	c #A8A899",
"                                                                                                ",
"                                                                                                ",
"                                                                                                ",
"                                                                                                ",
"                                                                                                ",
"                                                                                                ",
"                                                                                                ",
"                                                                                                ",
"                                                . + @                                           ",
"                                              # $ % &                                           ",
"                                        * = - ; > , '                                           ",
"                                  ) ! ~ { ] ^ / ( _ : < [ } |                                   ",
"                                1 2 3 4 5 6 7 8 ( _ 9 0 a ( b c d                               ",
"                              e f g h i j k l ( ( ( [ m n ( o p q r                             ",
"                            s t u v w x x y z ( A B C D E F G H I J K                           ",
"                            L $ M N w w w O ( P Q R S T U V W X Y Z `  .                        ",
"                          ..+.@.#.( ( ( ( $.%.&.$ % *.=.$ =.-.;.>.,.'.).                        ",
"                          !.~.{.].( ( $.^./.(._.$ :.<.[.$ }.|.1.2.3.4.5.                        ",
"                          6.~.7.8.9.0.a.b.c.d.e.$ f.g.h.i.$ j.k.l.m.n.o.                        ",
"                          6.~.p.q.r.s.t.s.u.v.w.$ x.y.z.A.B.C.D.                                ",
"                          E.~.F.G.H.I.J.J.t.K.L.$ % M.                                          ",
"                          N.~.O.P.Q.Q.R.S.T.U.V.W.X.Y.                                          ",
"                          Z.~.~.`. +Q..+++@+#+$+%+&+*+=+                                        ",
"                            -+~.;+>+,+'+)+!+~+{+]+^+/+(+_+                                      ",
"                            :+<+~.[+}+|+1+2+3+4+5+6+7+8+9+0+a+                                  ",
"                              b+<+c+d+e+f+g+%+h+i+j+k+l+m+n+o+p+q+                              ",
"                                r+x.$ = s+*+,.t+u+v+w+x+y+z+A+B+C+D+E+                          ",
"                                  F+G+O.H+I+J+I K+L+M+N+O+P+Q+R+S+T+U+V+                        ",
"                                      W+X+{.Y+Z+`+ @.@+@@@#@$@%@&@*@=@-@                        ",
"                                            ;@<+>@,@'@)@!@~@{@]@^@/@(@_@:@                      ",
"                                              ~.O.f <@[@}@|@1@2@3@4@5@6@7@                      ",
"                                              ~.$ f.8@9@~.~.0@5.c.a@!@_@b@                      ",
"                                              ~.$ f.c@d@R e@f@g@c.h@i@j@k@                      ",
"                              l@m@n@o@p@q@    ~.$ r@s@t@u@X.% v@c.c.w@x@y@                      ",
"                        z@A@B@C@D@E@F@G@H@I@  <+$ f.J@K@# L@M@N@c.O@P@Q@R@                      ",
"                        S@<+7.T@U@V@W@X@Y@Z@  c+$ :.`@ #.#+#n.@###$#%#&#*#                      ",
"                        =#~.-#;#>#,#'#)#!#~#{#]#$ :.^#/#(#_#:#U@<#[#}#A+|#                      ",
"                          1#~.2#3#4#5#6#7#8#9#0#a#f.b#c#d#e#f#g#h#i#j#k#                        ",
"                          l#e@m#j#n#o#0#p#q#r#r#s#t#u#v#w#x#y#z#A#B#C#D#                        ",
"                            E#<+F#G#c#H#I#J#K#r#r#L#M#N#O#P#C#Q#R#S#T#                          ",
"                              U#c+V#z#W#X#Y#o+r#Z#8#`# $.$+$h#@$<@#$                            ",
"                                $$e@%$&$*$=$-$;$>$,$'$)$`#!$~$ @{$                              ",
"                                    ]${.^$/$d#($_$:$<$[$}$|$'+                                  ",
"                                          1$2$}@.#3$4$5$                                        ",
"                                              <+$ f.6$7$                                        ",
"                                              <+$ 8$j#9$                                        ",
"                                              0$$ r@a$b$                                        ",
"                                                c$d$e$                                          "};
