/* XPM */
static char * g11_xpm[] = {
"48 48 444 2",
"  	c None",
". 	c #5C6057",
"+ 	c #4F4F44",
"@ 	c #747469",
"# 	c #828177",
"$ 	c #4F5149",
"% 	c #0E0E0C",
"& 	c #282822",
"* 	c #262621",
"= 	c #747367",
"- 	c #69695C",
"; 	c #53534A",
"> 	c #545449",
", 	c #4E4F44",
"' 	c #707062",
") 	c #707064",
"! 	c #919180",
"~ 	c #D7D6C1",
"{ 	c #595A53",
"] 	c #2E2F28",
"^ 	c #2F2F28",
"/ 	c #606054",
"( 	c #878877",
"_ 	c #9FA391",
": 	c #D2D3C1",
"< 	c #E9E8D8",
"[ 	c #D8D8C3",
"} 	c #D6D5C0",
"| 	c #E0DFCF",
"1 	c #32322B",
"2 	c #23231E",
"3 	c #36362F",
"4 	c #868677",
"5 	c #9F9F8D",
"6 	c #A0A18E",
"7 	c #ABAB9B",
"8 	c #E5E4D3",
"9 	c #E3E2D0",
"0 	c #D9D9C4",
"a 	c #E4E3D1",
"b 	c #E0DFCD",
"c 	c #A4A48F",
"d 	c #AEB1A3",
"e 	c #898B7E",
"f 	c #242420",
"g 	c #1C1C18",
"h 	c #20201B",
"i 	c #727263",
"j 	c #969683",
"k 	c #A0A18D",
"l 	c #B0B1A0",
"m 	c #DADAC8",
"n 	c #D5D5C1",
"o 	c #E6E5D4",
"p 	c #AEAE9A",
"q 	c #959784",
"r 	c #AAAB97",
"s 	c #1F1F1A",
"t 	c #25251F",
"u 	c #272721",
"v 	c #5E5E54",
"w 	c #DBDBCA",
"x 	c #CFCFBD",
"y 	c #D2D1BD",
"z 	c #E8E7D7",
"A 	c #D9D8C7",
"B 	c #C5C4B5",
"C 	c #B6B6A6",
"D 	c #E3E2D2",
"E 	c #D9D8C4",
"F 	c #C6C6B1",
"G 	c #969884",
"H 	c #9B9B87",
"I 	c #5C5B52",
"J 	c #10100E",
"K 	c #1B1B17",
"L 	c #1E1E1A",
"M 	c #A7A799",
"N 	c #AEAD9D",
"O 	c #3E3E36",
"P 	c #6F6F63",
"Q 	c #62655B",
"R 	c #68685B",
"S 	c #BABAA6",
"T 	c #C3C3AC",
"U 	c #939482",
"V 	c #838372",
"W 	c #B8B8A5",
"X 	c #2C2C28",
"Y 	c #12120F",
"Z 	c #191915",
"` 	c #262620",
" .	c #D0D0BE",
"..	c #E1E0D0",
"+.	c #BEBEAC",
"@.	c #3A3A33",
"#.	c #24241F",
"$.	c #666559",
"%.	c #5C5D53",
"&.	c #1A1A16",
"*.	c #838474",
"=.	c #AEB09D",
"-.	c #AAAB96",
";.	c #9A9B86",
">.	c #A8A894",
",.	c #161613",
"'.	c #0F0F0C",
").	c #131310",
"!.	c #262622",
"~.	c #E2E2D2",
"{.	c #E7E6D5",
"].	c #CECFBF",
"^.	c #BDBDA7",
"/.	c #8D8C7A",
"(.	c #6A695D",
"_.	c #68675B",
":.	c #21211C",
"<.	c #54554A",
"[.	c #C4C4AE",
"}.	c #BFBFAD",
"|.	c #BAB9A4",
"1.	c #A4A690",
"2.	c #D6D5C1",
"3.	c #070706",
"4.	c #3B3B34",
"5.	c #E8E7D8",
"6.	c #DEDDCD",
"7.	c #C5C7B4",
"8.	c #BCBCA7",
"9.	c #BEBDA6",
"0.	c #7D7C6C",
"a.	c #22221D",
"b.	c #5D5F54",
"c.	c #5D5D50",
"d.	c #303029",
"e.	c #848374",
"f.	c #8A897A",
"g.	c #79786B",
"h.	c #A0A091",
"i.	c #979894",
"j.	c #11110F",
"k.	c #10100D",
"l.	c #393932",
"m.	c #DFDECC",
"n.	c #B9BAA6",
"o.	c #B7B6A2",
"p.	c #BCBBA6",
"q.	c #B9B8A4",
"r.	c #909080",
"s.	c #171714",
"t.	c #535448",
"u.	c #626254",
"v.	c #47473D",
"w.	c #5C5E55",
"x.	c #2C2C27",
"y.	c #0C0C0A",
"z.	c #B6B9A6",
"A.	c #B2B29E",
"B.	c #ADAD9A",
"C.	c #2F2E28",
"D.	c #23231D",
"E.	c #68685A",
"F.	c #151612",
"G.	c #090907",
"H.	c #0B0B09",
"I.	c #9DA090",
"J.	c #B7B7A4",
"K.	c #BBBAA6",
"L.	c #C6C7B1",
"M.	c #696A5D",
"N.	c #2F3028",
"O.	c #77776A",
"P.	c #242521",
"Q.	c #050504",
"R.	c #070705",
"S.	c #090908",
"T.	c #79796A",
"U.	c #B4B5A1",
"V.	c #A9A994",
"W.	c #9C9C88",
"X.	c #A5A591",
"Y.	c #A2A28F",
"Z.	c #9E9E8C",
"`.	c #51514B",
" +	c #32322C",
".+	c #898979",
"++	c #BBBBA7",
"@+	c #B3B49F",
"#+	c #959682",
"$+	c #90917F",
"%+	c #B5B5A0",
"&+	c #C8C8B0",
"*+	c #D3D3BD",
"=+	c #AEAE99",
"-+	c #9E9E8B",
";+	c #11110E",
">+	c #6F6F61",
",+	c #CECDB8",
"'+	c #A4A58F",
")+	c #91927F",
"!+	c #9A9B87",
"~+	c #B8B7A2",
"{+	c #C5C4AA",
"]+	c #C7C6AF",
"^+	c #A6A894",
"/+	c #969784",
"(+	c #C0BFA9",
"_+	c #CECDBA",
":+	c #676A5F",
"<+	c #0D0D0B",
"[+	c #292923",
"}+	c #ACAE9B",
"|+	c #939481",
"1+	c #9D9D88",
"2+	c #B0B19D",
"3+	c #B1B09B",
"4+	c #ABAD9A",
"5+	c #C4C5B1",
"6+	c #C9C8B0",
"7+	c #AEB09B",
"8+	c #A9AB99",
"9+	c #B9B9A8",
"0+	c #5B5B51",
"a+	c #181816",
"b+	c #2C2D26",
"c+	c #848473",
"d+	c #AAAA95",
"e+	c #A2A38E",
"f+	c #AEAE98",
"g+	c #AFAF9A",
"h+	c #C3C3AB",
"i+	c #B8B8A3",
"j+	c #8D8D7B",
"k+	c #9FA08E",
"l+	c #A7A692",
"m+	c #8E8E7C",
"n+	c #A09F8C",
"o+	c #484942",
"p+	c #1B1B18",
"q+	c #171713",
"r+	c #929380",
"s+	c #999A85",
"t+	c #878674",
"u+	c #959583",
"v+	c #A4A592",
"w+	c #91917F",
"x+	c #888877",
"y+	c #898A79",
"z+	c #B4B4A0",
"A+	c #B3B39F",
"B+	c #46463F",
"C+	c #20211D",
"D+	c #181815",
"E+	c #46463D",
"F+	c #69685A",
"G+	c #858574",
"H+	c #989985",
"I+	c #888978",
"J+	c #909282",
"K+	c #A0A492",
"L+	c #AEB19E",
"M+	c #ACAF9D",
"N+	c #A7A793",
"O+	c #2F312C",
"P+	c #080807",
"Q+	c #141411",
"R+	c #525247",
"S+	c #747465",
"T+	c #999A8A",
"U+	c #B2B4A2",
"V+	c #AAB0A0",
"W+	c #A9AB98",
"X+	c #C0C0A9",
"Y+	c #C2C2AC",
"Z+	c #A5A590",
"`+	c #1D1D18",
" @	c #5D5C51",
".@	c #57574D",
"+@	c #242520",
"@@	c #7E7E6F",
"#@	c #ADAE9B",
"$@	c #B5B7A3",
"%@	c #D4D4BF",
"&@	c #B9B9A6",
"*@	c #979884",
"=@	c #59594F",
"-@	c #151512",
";@	c #8D8D7D",
">@	c #D1D1BC",
",@	c #9B9C88",
"'@	c #BBBCB0",
")@	c #65675B",
"!@	c #5B5A50",
"~@	c #6E6E61",
"{@	c #D6D6C1",
"]@	c #D3D4BF",
"^@	c #BDBEAC",
"/@	c #A7A794",
"(@	c #6F7062",
"_@	c #767669",
":@	c #636355",
"<@	c #767768",
"[@	c #505049",
"}@	c #5E5E51",
"|@	c #505146",
"1@	c #33342C",
"2@	c #616154",
"3@	c #D3D3BE",
"4@	c #BDBDA8",
"5@	c #A7A893",
"6@	c #C4C5B4",
"7@	c #43443E",
"8@	c #4C4C43",
"9@	c #737465",
"0@	c #777767",
"a@	c #7B7B6B",
"b@	c #7E7E6E",
"c@	c #797969",
"d@	c #6F6E5F",
"e@	c #656558",
"f@	c #605F53",
"g@	c #0A0A08",
"h@	c #1F1F1B",
"i@	c #6C6C5F",
"j@	c #66665B",
"k@	c #4B4B40",
"l@	c #4D4E42",
"m@	c #D0CFBA",
"n@	c #BFBFA9",
"o@	c #9C9C89",
"p@	c #CFCFBE",
"q@	c #9CA096",
"r@	c #2C2C26",
"s@	c #767667",
"t@	c #ABAB95",
"u@	c #858473",
"v@	c #8F9180",
"w@	c #1D1C18",
"x@	c #7D7D70",
"y@	c #6A6A5C",
"z@	c #C6C6AF",
"A@	c #A8A995",
"B@	c #A5A793",
"C@	c #808070",
"D@	c #8C8C7B",
"E@	c #9F9F8C",
"F@	c #858676",
"G@	c #B1B19C",
"H@	c #67665A",
"I@	c #A8A895",
"J@	c #7B7B6C",
"K@	c #989885",
"L@	c #8D8E7C",
"M@	c #8B8B79",
"N@	c #90907D",
"O@	c #C0BFAA",
"P@	c #4C4D48",
"Q@	c #69695B",
"R@	c #777768",
"S@	c #A0A08B",
"T@	c #828271",
"U@	c #A9AA95",
"V@	c #C6C5B2",
"W@	c #C7C7B1",
"X@	c #545448",
"Y@	c #6A695C",
"Z@	c #AFAF9B",
"`@	c #92937F",
" #	c #838373",
".#	c #7C7C6D",
"+#	c #7A7A6B",
"@#	c #BCBCAB",
"##	c #393931",
"$#	c #7C7C6C",
"%#	c #9A9A87",
"&#	c #989884",
"*#	c #8E8F7E",
"=#	c #C7C6B2",
"-#	c #D5D4BF",
";#	c #C8C7B2",
">#	c #737263",
",#	c #9E9F8B",
"'#	c #A1A38F",
")#	c #828272",
"!#	c #606159",
"~#	c #0D0E0C",
"{#	c #656559",
"]#	c #868676",
"^#	c #A3A48F",
"/#	c #80806F",
"(#	c #B7B69F",
"_#	c #CECDB6",
":#	c #CDCDB7",
"<#	c #B1B09C",
"[#	c #B7B7A1",
"}#	c #C2C2AF",
"|#	c #949483",
"1#	c #848474",
"2#	c #848574",
"3#	c #8C8D7B",
"4#	c #B5B5A3",
"5#	c #63665E",
"6#	c #656457",
"7#	c #999986",
"8#	c #9D9C88",
"9#	c #C7C6AC",
"0#	c #BBBBA3",
"a#	c #AFB29F",
"b#	c #BDBEA8",
"c#	c #969684",
"d#	c #808071",
"e#	c #919586",
"f#	c #282A26",
"g#	c #676659",
"h#	c #757565",
"i#	c #BABBA3",
"j#	c #BFBEA5",
"k#	c #B7B6A0",
"l#	c #C3C2AA",
"m#	c #AEB09C",
"n#	c #B4B5A0",
"o#	c #AFAF99",
"p#	c #818273",
"q#	c #9D9D8C",
"r#	c #52524B",
"s#	c #616255",
"t#	c #9B9A87",
"u#	c #BAB9A1",
"v#	c #ABAC98",
"w#	c #C2C1A8",
"x#	c #B1B29C",
"y#	c #D1D1C1",
"z#	c #6C6C67",
"A#	c #30302D",
"B#	c #0E0E0B",
"C#	c #35352D",
"D#	c #7A796A",
"E#	c #252520",
"F#	c #606053",
"G#	c #393B36",
"H#	c #666659",
"I#	c #4F4E44",
"J#	c #75756A",
"K#	c #7C7C70",
"                                                                                                ",
"                                                                                                ",
"                                                                                                ",
"                                                                                                ",
"                                                                                                ",
"                                                                                                ",
"                                                                                                ",
"                                                                                                ",
"                                              . + @ #                                           ",
"                                            $ % & * =                                           ",
"                                        - ; > , ' ) ! ~                                         ",
"                                    { ] ^ / ( _ : < [ } < |                                     ",
"                                  1 2 3 4 5 6 7 8 < 9 0 a b c d                                 ",
"                              e f g h i j k l m < < < n 8 o p q r                               ",
"                              s t u v w x y 8 < z A B C D E F G H                               ",
"                            I J K L M < < < < z N O P Q R S T U V W                             ",
"                            X Y Z `  .< < < ..+.@.#.$.%.&.*.=.-.;.>.                            ",
"                            ,.'.).!.~.< {.].^./.u & (._.:.<.[.}.|.1.2.                          ",
"                            3.Y ).4.5.6.7.8.9.0.:.a.b.c.a.d.e.f.g./ h.                          ",
"                          i.3.j.k.l.m.n.o.p.q.r.h s.t.u.v.w.x.                                  ",
"                            3.y.y.u z.A.q.q.q.B.C.D.E.                                          ",
"                            F.G.H.,.I.J.q.q.K.L.M.N.O.                                          ",
"                            P.Q.R.S.T.U.q.o.V.W.X.Y.Z.                                          ",
"                            `.Q.Q.Q. +.+++@+#+$+%+&+*+=+-+                                      ",
"                              ;+Q.Q.H.>+,+'+)+!+~+{+]+^+/+(+_+                                  ",
"                              :+<+Q.Q.[+}+|+1+2+3+4+5+6+7+8+q.9+                                ",
"                                0+a+Q.Q.b+c+d+e+f+g+h+i+j+k+l+m+n+                              ",
"                                    o+p+Q.q+- r+s+t+u+v+w+x+y+j z+A+                            ",
"                                        B+C+Q.D+E+F+G+H+I+J+K+L+M+K.N+                          ",
"                                            O+Q.P+Q+R+S+T+U+V+W+X+Y+Z+                          ",
"                                            Q.P+K `+ @.@+@@@#@$@%@&@*@                          ",
"                                            Q.H.& & (.=@y.-@;@%@>@,@/+'@                        ",
"                                            Q.H.& & )@!@:.2 ~@{@]@k+r+^@                        ",
"                                  /@(@_@:@<@[@H.t t }@|@N.1@2@3@{@4@5@6@                        ",
"                          7@8@9@0@a@b@c@d@e@f@g@h@#.i@j@k@l@S+3@m@n@o@p@                        ",
"                        q@Q.G.<+r@s@t@j u@/.v@w@& & O.x@y@E.r.z@A@z+B@                          ",
"                          2 Q.Q.k.C@D@E@F@G@n@H@& & O.I@C@J@K@L@M@N@O@                          ",
"                          P@Q.Q.Q.Q@R@S@T@U@V@W@X@#.Y@Z@`@G+ #c@.#+#@#                          ",
"                            ).Q.Q.##$#%#&#*#=#-#;#T.>#=+,#'#b@V L@)#                            ",
"                            !#~#Q.H.{#]#^#/#(#_#*+:#<#[#}#|#1#2#3#4#                            ",
"                              5#j.Q.Z 6#7#8#*@9#9#n@0#a#b#c#b@d#e#                              ",
"                                  f#Q.q+g#h#C@i#j#k#l#m#n#o#p#q#                                ",
"                                    r#,.<+@.s#t#u#v#w#x#W@y#                                    ",
"                                          z#A#B#* C#D#                                          ",
"                                            Q.H.t E#H@                                          ",
"                                            Q.g@L ` F#                                          ",
"                                            G#H.h s H#                                          ",
"                                              . I#J#K#                                          "};
