/* XPM */
static char * g12_xpm[] = {
"48 48 399 2",
"  	c None",
". 	c #707368",
"+ 	c #4C4E45",
"@ 	c #7A7C6F",
"# 	c #717269",
"$ 	c #393933",
"% 	c #0E0E0B",
"& 	c #32322B",
"* 	c #5C5B4E",
"= 	c #535347",
"- 	c #8F9184",
"; 	c #5A5A4E",
"> 	c #2F2F28",
", 	c #36362E",
"' 	c #46463C",
") 	c #69695B",
"! 	c #7C7C6E",
"~ 	c #959685",
"{ 	c #595952",
"] 	c #43433A",
"^ 	c #383930",
"/ 	c #3C3D33",
"( 	c #68685A",
"_ 	c #90917E",
": 	c #B3B3A0",
"< 	c #E7E6D6",
"[ 	c #D6D6C1",
"} 	c #DADAC6",
"| 	c #91918D",
"1 	c #161613",
"2 	c #2C2D26",
"3 	c #37372F",
"4 	c #414138",
"5 	c #757566",
"6 	c #9B9B89",
"7 	c #9C9C88",
"8 	c #CACAB8",
"9 	c #E9E8D8",
"0 	c #DCDCCB",
"a 	c #DFDECC",
"b 	c #E3E2D1",
"c 	c #B3B4A1",
"d 	c #151614",
"e 	c #282922",
"f 	c #393A31",
"g 	c #37382F",
"h 	c #5D5E50",
"i 	c #929380",
"j 	c #9C9D89",
"k 	c #BBBBA7",
"l 	c #E5E4D3",
"m 	c #E6E6D5",
"n 	c #D5D5C0",
"o 	c #E7E6D5",
"p 	c #B8B8A4",
"q 	c #A0A28F",
"r 	c #373933",
"s 	c #080807",
"t 	c #43443A",
"u 	c #4B4C40",
"v 	c #B5B5A4",
"w 	c #DDDCC9",
"x 	c #DBDAC6",
"y 	c #E3E2D2",
"z 	c #D4D3BF",
"A 	c #D3D3BF",
"B 	c #E2E1CF",
"C 	c #C1C1AC",
"D 	c #979884",
"E 	c #B7B7A8",
"F 	c #181815",
"G 	c #151512",
"H 	c #404037",
"I 	c #434339",
"J 	c #525347",
"K 	c #DBDACA",
"L 	c #DBDAC9",
"M 	c #79796B",
"N 	c #858573",
"O 	c #6B6B5E",
"P 	c #AFAF9C",
"Q 	c #C0C0AA",
"R 	c #878777",
"S 	c #9E9F8D",
"T 	c #75766D",
"U 	c #070705",
"V 	c #191A15",
"W 	c #3F3F36",
"X 	c #68685B",
"Y 	c #E8E7D7",
"Z 	c #DEDDCA",
"` 	c #8A8A7A",
" .	c #424339",
"..	c #737365",
"+.	c #4D4D42",
"@.	c #6A6B5E",
"#.	c #ABAC99",
"$.	c #969784",
"%.	c #949381",
"&.	c #5A5B51",
"*.	c #050504",
"=.	c #1C1C18",
"-.	c #2F3029",
";.	c #32332B",
">.	c #707064",
",.	c #E8E7D6",
"'.	c #E8E8D7",
").	c #BDBCA6",
"!.	c #67675A",
"~.	c #757665",
"{.	c #5C5D4F",
"].	c #59594D",
"^.	c #BAB9A4",
"/.	c #B9B9A4",
"(.	c #A3A38E",
"_.	c #CBCBB7",
":.	c #3A3B33",
"<.	c #22231D",
"[.	c #33352C",
"}.	c #707165",
"|.	c #CECDB9",
"1.	c #B4B6A4",
"2.	c #BCBBA5",
"3.	c #605F52",
"4.	c #6D6D5F",
"5.	c #5B5C4F",
"6.	c #494A3F",
"7.	c #9E9E8C",
"8.	c #9B9B8A",
"9.	c #878776",
"0.	c #B1B29E",
"a.	c #2C2F28",
"b.	c #1D1D18",
"c.	c #292923",
"d.	c #2D2E27",
"e.	c #696960",
"f.	c #D5D5C2",
"g.	c #B5B5A0",
"h.	c #B9B8A4",
"i.	c #BBBAA5",
"j.	c #5D5D50",
"k.	c #2F3028",
"l.	c #5F6052",
"m.	c #6A6A5D",
"n.	c #65675E",
"o.	c #33332F",
"p.	c #3B3C33",
"q.	c #191915",
"r.	c #272721",
"s.	c #262621",
"t.	c #59594E",
"u.	c #B2B29D",
"v.	c #BCBBA6",
"w.	c #818171",
"x.	c #404137",
"y.	c #7F7F6F",
"z.	c #686B62",
"A.	c #0F0F0C",
"B.	c #171714",
"C.	c #171713",
"D.	c #383831",
"E.	c #B7B7A4",
"F.	c #B8B7A4",
"G.	c #C1C0AB",
"H.	c #AAAA96",
"I.	c #616154",
"J.	c #8F9080",
"K.	c #0A0A08",
"L.	c #10110D",
"M.	c #0F100D",
"N.	c #1B1B17",
"O.	c #B3B5A3",
"P.	c #B2B4A2",
"Q.	c #A7A893",
"R.	c #9A9A86",
"S.	c #AFAE9A",
"T.	c #A7A794",
"U.	c #161714",
"V.	c #050604",
"W.	c #0D0D0B",
"X.	c #0C0C0A",
"Y.	c #5C5C4F",
"Z.	c #A5A592",
"`.	c #92937F",
" +	c #9F9F8B",
".+	c #C2C1AA",
"++	c #ADAD9A",
"@+	c #35352F",
"#+	c #090908",
"$+	c #B8B8A3",
"%+	c #ADAD96",
"&+	c #8F907D",
"*+	c #A8A894",
"=+	c #C6C5AE",
"-+	c #C4C3AA",
";+	c #999986",
">+	c #AEAF9C",
",+	c #C5C5B5",
"'+	c #1A1A17",
")+	c #0B0B09",
"!+	c #969783",
"~+	c #A1A18C",
"{+	c #ADAE9A",
"]+	c #AAAC97",
"^+	c #C4C4B1",
"/+	c #C3C2AA",
"(+	c #A8A893",
"_+	c #AFB1A0",
":+	c #919187",
"<+	c #0C0D0B",
"[+	c #070706",
"}+	c #0A0A09",
"|+	c #7A7B6A",
"1+	c #AAAA94",
"2+	c #A5A692",
"3+	c #AEB09B",
"4+	c #B8B7A1",
"5+	c #A7A793",
"6+	c #8F8F7D",
"7+	c #8C8C7B",
"8+	c #2E2F2A",
"9+	c #10100E",
"0+	c #1D1D19",
"a+	c #747567",
"b+	c #989A86",
"c+	c #8C8C79",
"d+	c #929381",
"e+	c #9E9E89",
"f+	c #868574",
"g+	c #8B8B7A",
"h+	c #9B9C87",
"i+	c #AEAE99",
"j+	c #76766E",
"k+	c #383834",
"l+	c #060605",
"m+	c #30302A",
"n+	c #606052",
"o+	c #878877",
"p+	c #939483",
"q+	c #8A8B79",
"r+	c #9FA18D",
"s+	c #A7A791",
"t+	c #B0AF99",
"u+	c #B4B49F",
"v+	c #3B3C39",
"w+	c #080806",
"x+	c #0F0F0D",
"y+	c #7F7E6E",
"z+	c #A8AA96",
"A+	c #A8AA95",
"B+	c #A9A993",
"C+	c #C4C4AF",
"D+	c #A5A594",
"E+	c #33332B",
"F+	c #67685A",
"G+	c #3D3D35",
"H+	c #5C5D52",
"I+	c #A1A38F",
"J+	c #C5C4AE",
"K+	c #BEBEA8",
"L+	c #A2A390",
"M+	c #707161",
"N+	c #404038",
"O+	c #1E1E19",
"P+	c #8A8B7C",
"Q+	c #B3B39F",
"R+	c #898A7A",
"S+	c #242420",
"T+	c #717262",
"U+	c #616253",
"V+	c #49493E",
"W+	c #858575",
"X+	c #BAB9A6",
"Y+	c #8A8A78",
"Z+	c #B3B3A3",
"`+	c #7C7C6F",
" @	c #717265",
".@	c #5C5C50",
"+@	c #393931",
"@@	c #33332C",
"#@	c #717161",
"$@	c #5E5E51",
"%@	c #858574",
"&@	c #4D4E44",
"*@	c #6C6C5F",
"=@	c #828272",
"-@	c #898978",
";@	c #828271",
">@	c #7B7B6B",
",@	c #717163",
"'@	c #6E6E60",
")@	c #606053",
"!@	c #45453B",
"~@	c #48483D",
"{@	c #767667",
"]@	c #919180",
"^@	c #D1D1BB",
"/@	c #BAB9A3",
"(@	c #A7A896",
"_@	c #58594D",
":@	c #7E7E6D",
"<@	c #ADAD97",
"[@	c #8B8A79",
"}@	c #878676",
"|@	c #57574A",
"1@	c #90907E",
"2@	c #A2A28D",
"3@	c #8F907E",
"4@	c #B0B09C",
"5@	c #A1A28D",
"6@	c #AEB09E",
"7@	c #131310",
"8@	c #252520",
"9@	c #838472",
"0@	c #A4A491",
"a@	c #888877",
"b@	c #B3B39E",
"c@	c #BCBCA6",
"d@	c #69695A",
"e@	c #908F7E",
"f@	c #9E9F89",
"g@	c #999A85",
"h@	c #828372",
"i@	c #A8AA97",
"j@	c #232420",
"k@	c #12120F",
"l@	c #747565",
"m@	c #8C8C7A",
"n@	c #A5A591",
"o@	c #CECEBA",
"p@	c #A2A28F",
"q@	c #A9AA93",
"r@	c #91917E",
"s@	c #808170",
"t@	c #7B7A6B",
"u@	c #B3B2A2",
"v@	c #545449",
"w@	c #969583",
"x@	c #CBCAB6",
"y@	c #D3D3BE",
"z@	c #9D9D8C",
"A@	c #818373",
"B@	c #AAAD99",
"C@	c #A3A591",
"D@	c #818270",
"E@	c #858676",
"F@	c #191A17",
"G@	c #20201B",
"H@	c #7E7F6F",
"I@	c #9C9C8A",
"J@	c #8C8D7B",
"K@	c #BFBFA8",
"L@	c #D2D2BC",
"M@	c #CCCCB7",
"N@	c #B7B9A3",
"O@	c #BCBDA8",
"P@	c #9B9C8C",
"Q@	c #3F3F37",
"R@	c #838371",
"S@	c #9E9E8B",
"T@	c #A9A995",
"U@	c #D0CFBB",
"V@	c #C0BFAA",
"W@	c #BCBCA4",
"X@	c #B6B69F",
"Y@	c #A5A693",
"Z@	c #7D7C6D",
"`@	c #6D6E67",
" #	c #20201C",
".#	c #808070",
"+#	c #90907F",
"@#	c #C1C1A9",
"##	c #B9B8A2",
"$#	c #BFBFA7",
"%#	c #A7AD9B",
"&#	c #B6B6A0",
"*#	c #949688",
"=#	c #54564D",
"-#	c #21221E",
";#	c #717061",
">#	c #A9A893",
",#	c #BFBEA6",
"'#	c #B7B9A7",
")#	c #C4C5B4",
"!#	c #31312D",
"~#	c #24241F",
"{#	c #7A7B6B",
"]#	c #1E1F1A",
"^#	c #3E3F35",
"/#	c #414238",
"(#	c #727265",
"_#	c #3B3B35",
":#	c #24241E",
"<#	c #777768",
"[#	c #6C6F67",
"}#	c #484940",
"|#	c #767668",
"1#	c #75766C",
"2#	c #A3A394",
"                                                                                                ",
"                                                                                                ",
"                                                                                                ",
"                                                                                                ",
"                                                                                                ",
"                                                                                                ",
"                                                                                                ",
"                                                                                                ",
"                                              . + @ #                                           ",
"                                            $ % & * = -                                         ",
"                                          ; > , ' ) ! ~                                         ",
"                                      { ] ^ / ( _ : < [ }                                       ",
"                                  | 1 2 3 4 5 6 7 8 9 0 a b c                                   ",
"                                  d e f g h i j k l 9 m n o p q                                 ",
"                                r s t u u v w x o 9 y z A B C D E                               ",
"                                F G H I J K 9 9 9 L M N O P Q R S                               ",
"                              T U V W H X y 9 Y Z `  ...+.@.#.$.%.                              ",
"                              &.*.=.-.;.>.,.'.z ).!.H ~.{.].^./.(._.                            ",
"                              :.*.<.[.[.}.9 |.1.2.3.H 4.5.6.7.8.9.0.                            ",
"                              a.*.b.c.d.e.f.g.h.i.j.k.l.m.n.o.                                  ",
"                              p.*.q.r.s.t.u.h.h.v.w.x.y.                                        ",
"                              z.*.A.B.C.D.#.E.F.G.H.I.J.                                        ",
"                                K.s L.M.N.$.O.P.Q.R.S.T.                                        ",
"                                U.V.W.X.X.Y.Z./.`. +.+|.++                                      ",
"                                @+*.#+X.X.r.$+%+&+*+=+-+;+>+,+                                  ",
"                                  '+*.)+)+)+N !+~+{+]+^+/+(+$+_+                                ",
"                                  :+<+[+X.}+q.|+1+2+3+4+5+6+(.7+E.                              ",
"                                      8+9+)+}+0+a+b+c+d+e+f+g+h+i+                              ",
"                                        j+k+l+l+s m+n+o+p+q+r+s+t+u+                            ",
"                                            v+*.w+x+N.].y+z+A+B+C+D+                            ",
"                                            s s b.E+, F+G+H+I+J+K+L+                            ",
"                                            X.X.r.H H M+N+O+P+n Q+R+                            ",
"                                            S+X.r.H H T+U+V+W+[ X+Y+                            ",
"                                      Z+`+ @.@+@@@H H 4.#@$@%@n J+~+                            ",
"                                &@*@=@-@;@>@,@'@)@!@~@;@7+{@]@^@/@(@                            ",
"                            _@w+x+G N.@@:@<@` [@}@|@|@1@2@3@*+4@5@6@                            ",
"                              l+)+7@7@8@9@0@a@b@c@d@|@e@<@f@g@W+h@i@                            ",
"                              j@[+k@9+7@l@m@i n@o@p@~@|+q@r@s@t@5 u@                            ",
"                              > *.X.X.X.v@%@j w@x@y@z@A@B@C@D@E@W+                              ",
"                                F@s X.X.G@H@I@J@K@L@M@N@O@n@D@:@P@                              ",
"                                  X.w+l+l+Q@R@S@T@U@V@W@X@Y@Z@[@                                ",
"                                  `@ #*.*.w+J .#+#@###$#%#&#*#                                  ",
"                                      =#-#[+s 4 ;#t+>#,#'#)#                                    ",
"                                            !#w+C.^ V+W+                                        ",
"                                            X.)+~#W ' {#                                        ",
"                                            #+)+]#^#/#(#                                        ",
"                                            _#)+:#p.H <#                                        ",
"                                              [#}#|#1#2#                                        "};
