/* XPM */
static char * g14_xpm[] = {
"48 48 281 2",
"  	c None",
". 	c #6A6A5E",
"+ 	c #68695D",
"@ 	c #9FA191",
"# 	c #ADB09F",
"$ 	c #A0A490",
"% 	c #3D3E34",
"& 	c #3F4036",
"* 	c #44443A",
"= 	c #999A87",
"- 	c #AAAB98",
"; 	c #9E9E8C",
"> 	c #A6AA98",
", 	c #292A23",
"' 	c #2D2E27",
") 	c #404037",
"! 	c #5D5E51",
"~ 	c #6A6B5E",
"{ 	c #6D6C5E",
"] 	c #989986",
"^ 	c #62625B",
"/ 	c #2D2E28",
"( 	c #1A1A16",
"_ 	c #4E4E43",
": 	c #5D5C50",
"< 	c #56564A",
"[ 	c #525246",
"} 	c #7D7D6E",
"| 	c #BEBDAA",
"1 	c #282723",
"2 	c #21211C",
"3 	c #5A5A4D",
"4 	c #5E5E51",
"5 	c #6B6B5D",
"6 	c #7A796A",
"7 	c #969684",
"8 	c #C3C2AB",
"9 	c #B2B29E",
"0 	c #808075",
"a 	c #2A2B24",
"b 	c #47483E",
"c 	c #908F7D",
"d 	c #878775",
"e 	c #81816F",
"f 	c #838472",
"g 	c #A5A592",
"h 	c #C7C6AF",
"i 	c #ADAD9B",
"j 	c #45463B",
"k 	c #2E3028",
"l 	c #5A5B4E",
"m 	c #9D9E8C",
"n 	c #A4A490",
"o 	c #A7A791",
"p 	c #BEBDA7",
"q 	c #CFCFBA",
"r 	c #C8C8B3",
"s 	c #9E9E89",
"t 	c #4F4F48",
"u 	c #282822",
"v 	c #979883",
"w 	c #9D9E8D",
"x 	c #A6A691",
"y 	c #C3C3AE",
"z 	c #D1D1BC",
"A 	c #AAAA95",
"B 	c #8C8C79",
"C 	c #59594F",
"D 	c #272721",
"E 	c #505045",
"F 	c #969783",
"G 	c #9B9B87",
"H 	c #C2C3AE",
"I 	c #C2C2AF",
"J 	c #848573",
"K 	c #797969",
"L 	c #B9B9AA",
"M 	c #4C4C43",
"N 	c #55554A",
"O 	c #7C7C6C",
"P 	c #858574",
"Q 	c #8D8D7B",
"R 	c #C2C2AD",
"S 	c #AFAF9B",
"T 	c #8C8C7A",
"U 	c #898977",
"V 	c #AAAC9B",
"W 	c #4B4B43",
"X 	c #676759",
"Y 	c #8F8F7D",
"Z 	c #92927F",
"` 	c #959682",
" .	c #B9B9A3",
"..	c #9F9F8A",
"+.	c #898A79",
"@.	c #B7BBAE",
"#.	c #424239",
"$.	c #626255",
"%.	c #878878",
"&.	c #8A8A79",
"*.	c #8D8D7C",
"=.	c #A6A896",
"-.	c #9A9A86",
";.	c #393932",
">.	c #161612",
",.	c #191915",
"'.	c #505145",
").	c #7B7B6B",
"!.	c #79796A",
"~.	c #979886",
"{.	c #A0A08B",
"].	c #8A8B78",
"^.	c #454640",
"/.	c #0E0E0B",
"(.	c #0D0D0B",
"_.	c #303029",
":.	c #535347",
"<.	c #58584B",
"[.	c #868978",
"}.	c #A3A48F",
"|.	c #A2A28D",
"1.	c #3A3A36",
"2.	c #080806",
"3.	c #0A0A08",
"4.	c #393A31",
"5.	c #3A3B32",
"6.	c #3B3C33",
"7.	c #747667",
"8.	c #939482",
"9.	c #9FA08D",
"0.	c #20211C",
"a.	c #050504",
"b.	c #050604",
"c.	c #171713",
"d.	c #303129",
"e.	c #8F8F7C",
"f.	c #A7A893",
"g.	c #606358",
"h.	c #282922",
"i.	c #4B4B40",
"j.	c #92937F",
"k.	c #B0B0A2",
"l.	c #0B0B09",
"m.	c #060605",
"n.	c #1C1C18",
"o.	c #1D1D18",
"p.	c #37372F",
"q.	c #91917E",
"r.	c #9E9F89",
"s.	c #A7A793",
"t.	c #31312D",
"u.	c #181815",
"v.	c #1F1F1B",
"w.	c #92927E",
"x.	c #838372",
"y.	c #0E0E0C",
"z.	c #0C0C0A",
"A.	c #131310",
"B.	c #12120F",
"C.	c #525247",
"D.	c #7D7D6D",
"E.	c #BEBEAF",
"F.	c #3B3B33",
"G.	c #070706",
"H.	c #171714",
"I.	c #818171",
"J.	c #A2A291",
"K.	c #11110E",
"L.	c #151512",
"M.	c #24241E",
"N.	c #59594C",
"O.	c #8D8E7D",
"P.	c #2C2D26",
"Q.	c #59594D",
"R.	c #6B6C5E",
"S.	c #707062",
"T.	c #69685B",
"U.	c #878776",
"V.	c #33352C",
"W.	c #34362D",
"X.	c #777769",
"Y.	c #838475",
"Z.	c #7A7B6C",
"`.	c #818070",
" +	c #7C7C6D",
".+	c #8B8C7B",
"++	c #9C9D88",
"@+	c #868574",
"#+	c #909386",
"$+	c #3E4037",
"%+	c #676659",
"&+	c #6C6B5D",
"*+	c #7B7C6D",
"=+	c #AAAA94",
"-+	c #8F907E",
";+	c #47483F",
">+	c #2E2F28",
",+	c #808070",
"'+	c #747364",
")+	c #777767",
"!+	c #A1A18D",
"~+	c #B5B49E",
"{+	c #98988E",
"]+	c #151513",
"^+	c #141411",
"/+	c #515145",
"(+	c #545448",
"_+	c #414238",
":+	c #48473E",
"<+	c #8E8E7D",
"[+	c #ADAD9A",
"}+	c #B1B09C",
"|+	c #4D4D42",
"1+	c #57574A",
"2+	c #555549",
"3+	c #4C4C41",
"4+	c #7F7F6E",
"5+	c #9D9E8A",
"6+	c #ADAD99",
"7+	c #959583",
"8+	c #8E9080",
"9+	c #080807",
"0+	c #3E3F35",
"a+	c #4A4B3F",
"b+	c #4C4D41",
"c+	c #979784",
"d+	c #767667",
"e+	c #999B8B",
"f+	c #262722",
"g+	c #3D3E35",
"h+	c #383930",
"i+	c #727263",
"j+	c #A3A390",
"k+	c #A1A28D",
"l+	c #777768",
"m+	c #B0B0A6",
"n+	c #363631",
"o+	c #1A1B16",
"p+	c #2B2B25",
"q+	c #2A2A24",
"r+	c #5D5D51",
"s+	c #9C9C89",
"t+	c #A5A895",
"u+	c #4D4F46",
"v+	c #10100E",
"w+	c #1E1E19",
"x+	c #181814",
"y+	c #414138",
"z+	c #939481",
"A+	c #A2A48F",
"B+	c #8D8E7E",
"C+	c #0A0A09",
"D+	c #1D1C18",
"E+	c #807F6E",
"F+	c #A9A995",
"G+	c #272823",
"H+	c #090908",
"I+	c #58594C",
"J+	c #9B9C87",
"K+	c #33332C",
"L+	c #5B5B4F",
"M+	c #787869",
"N+	c #90917E",
"O+	c #2F3029",
"P+	c #6F6F61",
"Q+	c #888877",
"R+	c #2F3028",
"S+	c #35352D",
"T+	c #68675A",
"U+	c #828373",
"V+	c #828272",
"W+	c #34352D",
"X+	c #2D2D26",
"Y+	c #686759",
"Z+	c #6F6F60",
"`+	c #8F8F7E",
" @	c #5F5F53",
".@	c #5F6156",
"+@	c #898A7B",
"@@	c #AEAE9C",
"#@	c #AAA996",
"                                                                                                ",
"                                                                                                ",
"                                                                                                ",
"                                                                                                ",
"                                                                                                ",
"                                                                                                ",
"                                                                                                ",
"                                                                                                ",
"                                              . + @ # $                                         ",
"                                            % & * = - ; >                                       ",
"                                            , ' ) ! ~ { ]                                       ",
"                                        ^ / ( _ : < [ } |                                       ",
"                                        1 ( 2 3 4 5 6 7 8 9                                     ",
"                                      0 2 a b c d e f g h i                                     ",
"                                      j , k l m n o p q r s                                     ",
"                                      t u u l v w x y z A B                                     ",
"                                      C u D E B F G H I J K L                                   ",
"                                      M u D N O P Q R S T U V                                   ",
"                                      W u u X Y Z `  ...+.= @.                                  ",
"                                      #.2 2 $.%.&.*.=.-.}                                       ",
"                                      ;.>.,.'.).).!.~.{.].                                      ",
"                                      ^./.(._.[ :.<.[.}.|.                                      ",
"                                      1.2.3.2 4.5.6.7.8.9.                                      ",
"                                      0.a.b.c.d.' ' < e.f.                                      ",
"                                      g.a.a.(.D u h.i.j.G k.                                    ",
"                                        l.a.m.n.n.o.p.q.r.s.                                    ",
"                                        t.a.a.u.o.o.v.O w.x.                                    ",
"                                          y.a.z.A.B.B.C.D.!.E.                                  ",
"                                          F.G.m.z.(.z.H.$.I.J.                                  ",
"                                            u.K.3.L.M._.N.&.O.                                  ",
"                                            a P.a Q.R.S.T.).U.                                  ",
"                                            V.V.W.X.Y.Y.Z.D.`.                                  ",
"                                            V.V.%  +Y.Y..+++@+                                  ",
"                                          #+$+< %+&+!.*+.+=+-+                                  ",
"                                        ;+>+l ,+T I.'+)+!+~+.+                                  ",
"                                    {+]+z.^+/+(+_+:+P <+[+}++.                                  ",
"                                      a.G.(.|+1+2+3+4+5+6+7+8+                                  ",
"                                      z.9+l.0+a+a+b+ +c+Z d+e+                                  ",
"                                      f+a.a.P.g+h+5.i+j+k+l+m+                                  ",
"                                      n+a.a.o+p+p+q+r+s+t+K                                     ",
"                                      u+a.a.v+w+n.x+y+z+A+B+                                    ",
"                                        H.a.G.v+(.C+D+E+|.F+                                    ",
"                                          G+m.a.a.a.H+I+J+                                      ",
"                                            K+M.^+F.L+M+N+                                      ",
"                                            h+4.O+P+I.U Q+                                      ",
"                                            R+4.S+T+U+V+K                                       ",
"                                            0+W+X+Y+Z+l+`+                                      ",
"                                               @.@+@@@#@                                        "};
