/* XPM */
static char * g15_xpm[] = {
"48 48 224 2",
"  	c None",
". 	c #B1B1A1",
"+ 	c #919082",
"@ 	c #8B8D7C",
"# 	c #D6D6C3",
"$ 	c #D2D2BD",
"% 	c #A3A39B",
"& 	c #5B5B4E",
"* 	c #6B6B5D",
"= 	c #7A7A6B",
"- 	c #C9C9B2",
"; 	c #C8C8B3",
"> 	c #C7C9BB",
", 	c #999990",
"' 	c #424339",
") 	c #32322B",
"! 	c #32332B",
"~ 	c #69695B",
"{ 	c #7C7C6D",
"] 	c #929384",
"^ 	c #504F45",
"/ 	c #252520",
"( 	c #2D2D26",
"_ 	c #3F4036",
": 	c #6C6B5D",
"< 	c #656457",
"[ 	c #5E5E51",
"} 	c #B8B8AC",
"| 	c #43433A",
"1 	c #2F3028",
"2 	c #34362D",
"3 	c #43443A",
"4 	c #6C6C5E",
"5 	c #717163",
"6 	c #808070",
"7 	c #B8B8AA",
"8 	c #4E4D42",
"9 	c #4E4D43",
"0 	c #555448",
"a 	c #6E6D5E",
"b 	c #B0B099",
"c 	c #9F9F8B",
"d 	c #949381",
"e 	c #BABAAC",
"f 	c #5F5E51",
"g 	c #616053",
"h 	c #787767",
"i 	c #C6C5AB",
"j 	c #D3D3C8",
"k 	c #605F52",
"l 	c #706F60",
"m 	c #C4C3AA",
"n 	c #C6C5AC",
"o 	c #C6C6B0",
"p 	c #DCDBCE",
"q 	c #59584C",
"r 	c #B2B29B",
"s 	c #C2C2AF",
"t 	c #C7C7BA",
"u 	c #D7D7CA",
"v 	c #59584B",
"w 	c #545447",
"x 	c #A3A390",
"y 	c #ADAD9A",
"z 	c #BBBCA8",
"A 	c #D1D0BB",
"B 	c #57574A",
"C 	c #B9B8A4",
"D 	c #BFBEA7",
"E 	c #48483D",
"F 	c #4B4C40",
"G 	c #5F6052",
"H 	c #B0AF9A",
"I 	c #B6B5A0",
"J 	c #B8B7A3",
"K 	c #C4C3B4",
"L 	c #2F2F28",
"M 	c #34342C",
"N 	c #3C3D33",
"O 	c #545448",
"P 	c #A0A08B",
"Q 	c #9A9A85",
"R 	c #9A9A88",
"S 	c #B1B1A0",
"T 	c #282822",
"U 	c #262620",
"V 	c #686759",
"W 	c #6B6B5C",
"X 	c #6D6C5E",
"Y 	c #939788",
"Z 	c #1B1B16",
"` 	c #181815",
" .	c #171713",
"..	c #24241F",
"+.	c #4C4E42",
"@.	c #4B4B41",
"#.	c #4E4E43",
"$.	c #939787",
"%.	c #0D0D0B",
"&.	c #0F0F0D",
"*.	c #10100E",
"=.	c #1A1A16",
"-.	c #404137",
";.	c #414138",
">.	c #3F3F36",
",.	c #8C8C79",
"'.	c #0B0B09",
").	c #0C0C0A",
"!.	c #141411",
"~.	c #35362D",
"{.	c #36382F",
"].	c #828375",
"^.	c #1E1F1B",
"/.	c #0A0A09",
"(.	c #050504",
"_.	c #0E0E0C",
":.	c #2A2A24",
"<.	c #292923",
"[.	c #2E2F28",
"}.	c #868676",
"|.	c #2C2E27",
"1.	c #272721",
"2.	c #21211C",
"3.	c #939385",
"4.	c #45453C",
"5.	c #0A0A08",
"6.	c #171714",
"7.	c #151512",
"8.	c #12120F",
"9.	c #98988F",
"0.	c #65655C",
"a.	c #060605",
"b.	c #0E0E0B",
"c.	c #8B8B7F",
"d.	c #20201B",
"e.	c #151612",
"f.	c #1D1D19",
"g.	c #2E2E27",
"h.	c #4E4F44",
"i.	c #9E9F92",
"j.	c #47473D",
"k.	c #4C4C41",
"l.	c #7B7B6C",
"m.	c #939482",
"n.	c #A4A49C",
"o.	c #5E5D50",
"p.	c #656557",
"q.	c #999A89",
"r.	c #9C9E8E",
"s.	c #A6A896",
"t.	c #58584B",
"u.	c #626254",
"v.	c #979886",
"w.	c #9A9B8A",
"x.	c #A1A393",
"y.	c #94948A",
"z.	c #46463B",
"A.	c #3F3F35",
"B.	c #787869",
"C.	c #7D7D6D",
"D.	c #8F907D",
"E.	c #505045",
"F.	c #3C3C33",
"G.	c #7C7D6C",
"H.	c #838372",
"I.	c #B5B7A5",
"J.	c #46463F",
"K.	c #22221D",
"L.	c #37372F",
"M.	c #737263",
"N.	c #676658",
"O.	c #4F5044",
"P.	c #737466",
"Q.	c #3C3C37",
"R.	c #131310",
"S.	c #191916",
"T.	c #36362E",
"U.	c #737264",
"V.	c #6E6D5F",
"W.	c #80806E",
"X.	c #383833",
"Y.	c #191915",
"Z.	c #282923",
"`.	c #828272",
" +	c #1E1E1B",
".+	c #11110F",
"++	c #565649",
"@+	c #727263",
"#+	c #070706",
"$+	c #161613",
"%+	c #3E3F35",
"&+	c #2F3029",
"*+	c #23231E",
"=+	c #727264",
"-+	c #1A1B17",
";+	c #10100D",
">+	c #707164",
",+	c #46483F",
"'+	c #080807",
")+	c #080806",
"!+	c #9E9E96",
"~+	c #A9A9A0",
"{+	c #383830",
"]+	c #494940",
"^+	c #6D6D5E",
"/+	c #9C9C8A",
"(+	c #A7A89F",
"_+	c #5C5C4F",
":+	c #90907E",
"<+	c #9D9E89",
"[+	c #A4A48F",
"}+	c #9E9E8F",
"|+	c #888876",
"1+	c #949583",
"2+	c #969784",
"3+	c #A1A193",
"4+	c #545549",
"5+	c #91927F",
"6+	c #878776",
"7+	c #999987",
"8+	c #9E9D8F",
"9+	c #848477",
"0+	c #B3B3A0",
"a+	c #B7B7A6",
"                                                                                                ",
"                                                                                                ",
"                                                                                                ",
"                                                                                                ",
"                                                                                                ",
"                                                                                                ",
"                                                                                                ",
"                                                                                                ",
"                                            . + @ # $                                           ",
"                                          % & * = - ; >                                         ",
"                                          , ' ) ! ~ { ]                                         ",
"                                          ^ / ( _ : < [ }                                       ",
"                                          | 1 2 3 4 5 6 7                                       ",
"                                          8 9 0 a b c d e                                       ",
"                                          f f g h i i i j                                       ",
"                                          f f k l m n o p                                       ",
"                                          f f q g r s t u                                       ",
"                                          v v w g x y z A                                       ",
"                                          B B B ~ C C D A                                       ",
"                                          E F F G H I J K                                       ",
"                                          L M N O P Q R S                                       ",
"                                          T T U ) V W X Y                                       ",
"                                          Z `  ...+.@.#.$.                                      ",
"                                          %.&.*.=.-.;.>.,.                                      ",
"                                          '.).).!.~.{.2 ].                                      ",
"                                          ^./.(._.:.<.[.}.                                      ",
"                                          |.(.(.'.U 1.2.3.                                      ",
"                                          4.(.(.5.6.7.8.9.                                      ",
"                                          0.(.(.a.b.b._.                                        ",
"                                          c.d.e.%.f.g.h.                                        ",
"                                          i.E j.k.l.}.m.                                        ",
"                                          n.B o.p.q.r.s.                                        ",
"                                          n.B t.u.v.w.x.                                        ",
"                                          y.z.A.k.B.C.D.                                        ",
"                                          E.F.' j.G.H.l.I.                                      ",
"                                          J.K.K.L.M.N.O.P.                                      ",
"                                          Q.R.S.T.U.U.V.W.                                      ",
"                                          X.).Y.Z.p.p.p.`.                                      ",
"                                           +'..+d.B B ++@+                                      ",
"                                          (.#+).$+;._ %+6                                       ",
"                                          (.(.a._.&+:.*+=+                                      ",
"                                          -+(.(.5.Y.;+%.>+                                      ",
"                                          ,+'+(.(.'+)+&.!+                                      ",
"                                          ~+O {+<.]+^+/+                                        ",
"                                          (+& t._+:+<+[+                                        ",
"                                          }+O f & |+1+2+                                        ",
"                                          3+& 8 4+5+6+7+                                        ",
"                                            8+9+{ 0+a+                                          "};
