/* XPM */
static char * g4_xpm[] = {
"48 48 313 2",
"  	c None",
". 	c #757568",
"+ 	c #E9E8D8",
"@ 	c #69685D",
"# 	c #E8E7D6",
"$ 	c #E0DFCD",
"% 	c #D9D9C8",
"& 	c #66665A",
"* 	c #3D3D35",
"= 	c #6F6E63",
"- 	c #56564D",
"; 	c #47483D",
"> 	c #4D4D42",
", 	c #68695C",
"' 	c #5E5E51",
") 	c #A2A290",
"! 	c #4E5048",
"~ 	c #21211D",
"{ 	c #151613",
"] 	c #0C0C0A",
"^ 	c #090907",
"/ 	c #10100D",
"( 	c #1D1D19",
"_ 	c #6D6D5F",
": 	c #A4A490",
"< 	c #BCBCA7",
"[ 	c #252520",
"} 	c #0D0D0B",
"| 	c #0B0B09",
"1 	c #070806",
"2 	c #0A0A09",
"3 	c #282823",
"4 	c #ADAC96",
"5 	c #C5C4AA",
"6 	c #CECEB7",
"7 	c #C5C4B2",
"8 	c #12120F",
"9 	c #0E0E0C",
"0 	c #080806",
"a 	c #060605",
"b 	c #090908",
"c 	c #4B4B41",
"d 	c #D0D0BB",
"e 	c #D6D6C1",
"f 	c #D5D5C0",
"g 	c #CCCCB8",
"h 	c #3F3E38",
"i 	c #171713",
"j 	c #484840",
"k 	c #42423B",
"l 	c #070705",
"m 	c #A8A896",
"n 	c #D8D8C3",
"o 	c #DBDAC7",
"p 	c #DADAC6",
"q 	c #747369",
"r 	c #11110E",
"s 	c #2E2E27",
"t 	c #383830",
"u 	c #4F5048",
"v 	c #B1B1A0",
"w 	c #32322D",
"x 	c #68675D",
"y 	c #E6E5D4",
"z 	c #E2E2D0",
"A 	c #34352F",
"B 	c #2F2F28",
"C 	c #7A7A6A",
"D 	c #555549",
"E 	c #53534B",
"F 	c #C4C4B5",
"G 	c #909082",
"H 	c #0A0A08",
"I 	c #1F1F1B",
"J 	c #8B8A7E",
"K 	c #C9C8B7",
"L 	c #E7E6D5",
"M 	c #E7E6D7",
"N 	c #2F2F29",
"O 	c #656558",
"P 	c #999985",
"Q 	c #7C7C6C",
"R 	c #55554B",
"S 	c #BFBFAF",
"T 	c #ADB0A1",
"U 	c #272822",
"V 	c #060604",
"W 	c #52534A",
"X 	c #98978B",
"Y 	c #10100E",
"Z 	c #949485",
"` 	c #C1C1B0",
" .	c #9B9B8A",
"..	c #4F4F45",
"+.	c #B1B3A0",
"@.	c #B0B4A3",
"#.	c #808172",
"$.	c #20211C",
"%.	c #151512",
"&.	c #505049",
"*.	c #58574E",
"=.	c #0F0F0D",
"-.	c #9B9B8B",
";.	c #C9C9BB",
">.	c #A5A597",
",.	c #525348",
"'.	c #BABCA9",
").	c #BDBEAA",
"!.	c #9E9F8B",
"~.	c #A8A89F",
"{.	c #7E7D71",
"].	c #BEBEA9",
"^.	c #999986",
"/.	c #5B5B50",
"(.	c #D2D2BF",
"_.	c #CDCDBD",
":.	c #CBCBB7",
"<.	c #C6C6AD",
"[.	c #2A2A24",
"}.	c #787868",
"|.	c #676759",
"1.	c #54554C",
"2.	c #CBCBBC",
"3.	c #D1D1BF",
"4.	c #D4D4BF",
"5.	c #C7C6AD",
"6.	c #24241F",
"7.	c #161613",
"8.	c #32322B",
"9.	c #43433A",
"0.	c #979786",
"a.	c #8B8C7C",
"b.	c #9C9C8A",
"c.	c #A0A08C",
"d.	c #2E302B",
"e.	c #141411",
"f.	c #47473D",
"g.	c #727264",
"h.	c #828374",
"i.	c #8D8D7D",
"j.	c #ACAD9E",
"k.	c #66675D",
"l.	c #0D0E0B",
"m.	c #151511",
"n.	c #44443B",
"o.	c #818271",
"p.	c #8F8F7C",
"q.	c #8D8D7B",
"r.	c #9C9D8D",
"s.	c #42443D",
"t.	c #1B1B17",
"u.	c #5C5C50",
"v.	c #90917F",
"w.	c #9D9F8B",
"x.	c #A6A692",
"y.	c #C3C3B0",
"z.	c #3B3C36",
"A.	c #707062",
"B.	c #B2B29E",
"C.	c #C0C0AD",
"D.	c #CCCBB8",
"E.	c #C8C8BA",
"F.	c #717166",
"G.	c #1C1C18",
"H.	c #B1B1A1",
"I.	c #D9D9C9",
"J.	c #3A3A32",
"K.	c #0D0D0A",
"L.	c #5F5E55",
"M.	c #E7E6D6",
"N.	c #E5E4D5",
"O.	c #BDBDAA",
"P.	c #31312A",
"Q.	c #2C2D27",
"R.	c #171714",
"S.	c #D7D6C6",
"T.	c #CAC9B5",
"U.	c #B4B4A2",
"V.	c #535349",
"W.	c #AFAE9B",
"X.	c #121210",
"Y.	c #959585",
"Z.	c #E1E0D1",
"`.	c #E1E1D1",
" +	c #CACAB5",
".+	c #A5A793",
"++	c #525248",
"@+	c #B9B8A4",
"#+	c #B6B5A1",
"$+	c #54544A",
"%+	c #494941",
"&+	c #A1A190",
"*+	c #C5C6B2",
"=+	c #B3B3A1",
"-+	c #9A9A89",
";+	c #A2A392",
">+	c #C3C4B4",
",+	c #AFAE9E",
"'+	c #505046",
")+	c #B4B6A3",
"!+	c #898A7A",
"~+	c #080807",
"{+	c #0B0B0A",
"]+	c #3E3E36",
"^+	c #808171",
"/+	c #7C7E6E",
"(+	c #747465",
"_+	c #898A7B",
":+	c #35352E",
"<+	c #181814",
"[+	c #707266",
"}+	c #CCCCBC",
"|+	c #C7C7B9",
"1+	c #9D9C8C",
"2+	c #4A4A41",
"3+	c #ADAC97",
"4+	c #B0B09A",
"5+	c #A5A691",
"6+	c #1A1A17",
"7+	c #32322A",
"8+	c #737364",
"9+	c #777767",
"0+	c #8F8F7B",
"a+	c #393A33",
"b+	c #4A4A40",
"c+	c #B8BAA8",
"d+	c #B8B9A4",
"e+	c #979988",
"f+	c #57584F",
"g+	c #D3D3BD",
"h+	c #1E1E1A",
"i+	c #717061",
"j+	c #68685A",
"k+	c #6E6D5F",
"l+	c #8E9080",
"m+	c #595A52",
"n+	c #0B0C0A",
"o+	c #1F1F1A",
"p+	c #D2D1BE",
"q+	c #DFDECB",
"r+	c #B5B4A2",
"s+	c #58584D",
"t+	c #CFCFBE",
"u+	c #181815",
"v+	c #404038",
"w+	c #767666",
"x+	c #737365",
"y+	c #A4A594",
"z+	c #76766C",
"A+	c #0E0E0B",
"B+	c #747466",
"C+	c #ACAC98",
"D+	c #56574B",
"E+	c #C8C8B8",
"F+	c #808071",
"G+	c #0A0B09",
"H+	c #262620",
"I+	c #43443A",
"J+	c #69685B",
"K+	c #59594C",
"L+	c #8C8B7B",
"M+	c #33342E",
"N+	c #848372",
"O+	c #9E9D89",
"P+	c #55564A",
"Q+	c #C6C5AC",
"R+	c #B2B19F",
"S+	c #292924",
"T+	c #505044",
"U+	c #4A4A3F",
"V+	c #4E4E43",
"W+	c #5A5A4D",
"X+	c #6D6E64",
"Y+	c #3D3E35",
"Z+	c #47473E",
"`+	c #666659",
" @	c #080907",
".@	c #090A08",
"+@	c #303028",
"@@	c #535448",
"#@	c #515246",
"$@	c #515145",
"%@	c #7E7E72",
"&@	c #383831",
"*@	c #3B3C33",
"=@	c #414138",
"-@	c #4E4F46",
";@	c #373730",
">@	c #131310",
",@	c #41423C",
"'@	c #383832",
")@	c #515149",
"!@	c #35342D",
"~@	c #141511",
"{@	c #050504",
"]@	c #2C2C26",
"^@	c #58594D",
"/@	c #B9BAA6",
"(@	c #A1A290",
"_@	c #7C7F70",
":@	c #BEBDA7",
"<@	c #BFBFA8",
"[@	c #B4B49E",
"}@	c #BEBEA8",
"|@	c #55554A",
"1@	c #BCBBA6",
"2@	c #BAB9A5",
"3@	c #B7B6A2",
"4@	c #56564C",
"5@	c #C4C4B2",
"6@	c #D7D7C9",
"7@	c #C6C6B4",
"8@	c #C6C5B2",
"                                                                                                ",
"                                                                                                ",
"                                                                                                ",
"                                                                                                ",
"                                                                                                ",
"                                                                                                ",
"                                                                                                ",
"                                                                                                ",
"                                          . + + +                                               ",
"                                          @ + # $ %                                             ",
"                                        & * = - ; > , ' )                                       ",
"                                    ! ~ { ] ] ] ^ / ( _ : <                                     ",
"                                  [ } ] ] ] ] ] | 1 2 3 4 5 6 7                                 ",
"                                8 ] ] ] ] 9 ] ] ] 0 a b c d e f g                               ",
"                              h ] ] ] } i j k ] ] | a l / m n o p                               ",
"                            q r ] ] 9 s t u v w ] ] ] ^ | x y + # z                             ",
"                            A ] ] ] B C D E F G r ] ] ] H I J K L M                             ",
"                            N ] ] } O P Q R S T U ] b ] b V 2 W X                               ",
"                            Y ] ] / Z `  ...+.@.#.$./ %.&.*.                                    ",
"                            ] ] ] =.-.;.>.,.'.'.).!.                                            ",
"                          ~.] ] ] } {.].^./.(._.:.<.                                            ",
"                            ] ] ] ] [.}.|.1.2.3.4.5.                                            ",
"                            6.] ] ] ] 7.8.9.0.a.b.c.                                            ",
"                            d.] ] ] ] ] ] ] e.f.g.h.i.j.                                        ",
"                            k.l.] ] ] ] ] ] ] ] m.n.o.p.q.r.                                    ",
"                              s.] ] ] ] ] ] | 2 ] ] t.u.v.w.x.y.                                ",
"                                z.] ] ] ] ] ] ] ] ] b %.A.B.C.D.E.                              ",
"                                  F.G.| H ] ] ] ] ] ] ] I H.z + I.                              ",
"                                      J.t.K.] ] ] ] ] ] ] L.M.+ N.O.                            ",
"                                          P.Q.9 ] ] ] ] ] R.S.+ + T.U.                          ",
"                                          V.W.& X.] ] ] ] H Y.Z.`. +.+                          ",
"                                          ++@+#+$+] ] ] | | %+&+*+=+-+                          ",
"                                    ;+>+,+'+@+)+!+8 ] ] ~+{+]+^+/+(+_+                          ",
"                          ,.:+$.<+[+}+|+1+2+3+4+5+6+] ] | {+7+8+(+9+0+                          ",
"                          a+] ] | b+c+d+e+f+e g+y.h+] ] ] ] P.i+j+k+l+                          ",
"                          m+| n+] o+p+q+r+s+t+(.=+u+] ] ] H v+w+x+A.y+                          ",
"                          z+| ] ] A+B+4.C+D+|+E+F+} G+] ] ] H+I+J+K+L+                          ",
"                            M+] ] ] 7.N+O+P+Q+R+S+] | | ] 8 T+U+V+W+                            ",
"                            X+=.] ] ] =.Y+Z+`+i |  @| .@.@+@@@#@$@%@                            ",
"                              &@] ] ] ] ] ] ] |  @] ] ^ ] [.*@=@-@                              ",
"                                ;@} ] ] ] ] ] ] H ] ] n+>@<+t.,@                                ",
"                                  X+'@A+] ] ] ] H H 1 1 H 8 )@                                  ",
"                                        !@I ~@] | a {@~+]@                                      ",
"                                          ^@/@(@_@o.                                            ",
"                                          ^@:@<@[@}@                                            ",
"                                          |@1@@+2@3@                                            ",
"                                          4@#+@+@+5@                                            ",
"                                            6@7@8@                                              "};
