/* XPM */
static char * g6_xpm[] = {
"48 48 367 2",
"  	c None",
". 	c #98998D",
"+ 	c #A7A897",
"@ 	c #DEDECF",
"# 	c #86877A",
"$ 	c #9E9D8C",
"% 	c #E9E8D8",
"& 	c #DADAC6",
"* 	c #A3A398",
"= 	c #6A6B5C",
"- 	c #787869",
"; 	c #908F81",
"> 	c #79786A",
", 	c #505044",
"' 	c #56564A",
") 	c #8A8D7E",
"! 	c #707166",
"~ 	c #5F5F52",
"{ 	c #5F5F51",
"] 	c #5A5A4D",
"^ 	c #525246",
"/ 	c #525346",
"( 	c #5D5C4F",
"_ 	c #626154",
": 	c #565649",
"< 	c #3C3D34",
"[ 	c #47483D",
"} 	c #515246",
"| 	c #808071",
"1 	c #BCBBAA",
"2 	c #636457",
"3 	c #404137",
"4 	c #393A31",
"5 	c #5C5C4F",
"6 	c #5F5E51",
"7 	c #57574A",
"8 	c #555549",
"9 	c #616154",
"0 	c #49493F",
"a 	c #434339",
"b 	c #4F4F44",
"c 	c #A4A38F",
"d 	c #D4D3BE",
"e 	c #3F3F36",
"f 	c #3C3C33",
"g 	c #36372F",
"h 	c #47473C",
"i 	c #5E5D50",
"j 	c #5C5B4E",
"k 	c #59594C",
"l 	c #3A3C32",
"m 	c #44443A",
"n 	c #3D3D34",
"o 	c #58584B",
"p 	c #B0B09B",
"q 	c #D8D8C3",
"r 	c #34352D",
"s 	c #35372E",
"t 	c #45463B",
"u 	c #555649",
"v 	c #7E7D6D",
"w 	c #606053",
"x 	c #58574B",
"y 	c #44453B",
"z 	c #34362D",
"A 	c #36382F",
"B 	c #3F4036",
"C 	c #6C6B5D",
"D 	c #CECEBB",
"E 	c #E6E5D4",
"F 	c #7A7A6D",
"G 	c #49493E",
"H 	c #494A3F",
"I 	c #515145",
"J 	c #666658",
"K 	c #48483D",
"L 	c #777768",
"M 	c #7C7C6D",
"N 	c #373730",
"O 	c #404037",
"P 	c #46473D",
"Q 	c #45463C",
"R 	c #424239",
"S 	c #3C3D33",
"T 	c #9B9B8A",
"U 	c #E8E7D7",
"V 	c #5F6052",
"W 	c #7B7B6C",
"X 	c #5D5D50",
"Y 	c #57574C",
"Z 	c #777667",
"` 	c #B7B7A4",
" .	c #868777",
"..	c #4D4E43",
"+.	c #4E4F42",
"@.	c #4C4D41",
"#.	c #4E4F43",
"$.	c #4C4C41",
"%.	c #43443A",
"&.	c #6B6B5D",
"*.	c #D3D2C0",
"=.	c #929385",
"-.	c #535447",
";.	c #555548",
">.	c #4B4B40",
",.	c #55564B",
"'.	c #A0A08D",
").	c #9A9B87",
"!.	c #8F9080",
"~.	c #7D7D6F",
"{.	c #AFAF9B",
"].	c #A4A48F",
"^.	c #919185",
"/.	c #4E4E43",
"(.	c #2D2D26",
"_.	c #1A1A16",
":.	c #191915",
"<.	c #3B3A33",
"[.	c #A2A192",
"}.	c #636355",
"|.	c #4D4E42",
"1.	c #5F5F53",
"2.	c #BDBCA6",
"3.	c #ABAB99",
"4.	c #6B6B5C",
"5.	c #9E9F8A",
"6.	c #959582",
"7.	c #34342C",
"8.	c #12120F",
"9.	c #10100D",
"0.	c #161612",
"a.	c #3E3F37",
"b.	c #3F3F3A",
"c.	c #43433A",
"d.	c #4B4C40",
"e.	c #46463C",
"f.	c #C4C3AA",
"g.	c #B6B59F",
"h.	c #77786A",
"i.	c #707062",
"j.	c #AAAC97",
"k.	c #A3A48F",
"l.	c #83847F",
"m.	c #44453A",
"n.	c #57574B",
"o.	c #C0C0AB",
"p.	c #C0BFAA",
"q.	c #D6D7CA",
"r.	c #828274",
"s.	c #8E8F7C",
"t.	c #CFCEBA",
"u.	c #BEBDA8",
"v.	c #5C5C50",
"w.	c #414138",
"x.	c #4A4B3F",
"y.	c #6C6C5D",
"z.	c #858675",
"A.	c #909181",
"B.	c #747568",
"C.	c #858575",
"D.	c #CDCDB9",
"E.	c #BFBEAA",
"F.	c #7A7E71",
"G.	c #3E3F35",
"H.	c #3D3E34",
"I.	c #3A3B32",
"J.	c #6E6D5E",
"K.	c #737363",
"L.	c #9EA191",
"M.	c #A5A594",
"N.	c #4C4D43",
"O.	c #393931",
"P.	c #3D3E35",
"Q.	c #33352C",
"R.	c #46473C",
"S.	c #4F5043",
"T.	c #545447",
"U.	c #656558",
"V.	c #8E8E7C",
"W.	c #9B9D8A",
"X.	c #AFB1A2",
"Y.	c #505045",
"Z.	c #35362D",
"`.	c #37382F",
" +	c #32342B",
".+	c #515245",
"++	c #80816F",
"@+	c #9E9F8B",
"#+	c #B7B7A3",
"$+	c #6D6F64",
"%+	c #373930",
"&+	c #3E3E35",
"*+	c #4F5044",
"=+	c #3A3A32",
"-+	c #4A4B40",
";+	c #4F4F43",
">+	c #666659",
",+	c #91917E",
"'+	c #B0B3A1",
")+	c #696A61",
"!+	c #3B3C33",
"~+	c #414238",
"{+	c #47473D",
"]+	c #383930",
"^+	c #484A3E",
"/+	c #646456",
"(+	c #9B9F8E",
"_+	c #B7B8A7",
":+	c #68685C",
"<+	c #383830",
"[+	c #32332B",
"}+	c #2E2F27",
"|+	c #3A3C33",
"1+	c #3B3B32",
"2+	c #44463B",
"3+	c #68685A",
"4+	c #D2D2C0",
"5+	c #5D6056",
"6+	c #4F4F48",
"7+	c #2B2C25",
"8+	c #2B2B25",
"9+	c #3F4037",
"0+	c #494A3E",
"a+	c #6E6E61",
"b+	c #E0E0CF",
"c+	c #3D3D35",
"d+	c #414239",
"e+	c #45493E",
"f+	c #45453B",
"g+	c #B2B2A1",
"h+	c #7B7B6D",
"i+	c #777769",
"j+	c #888777",
"k+	c #3B3B33",
"l+	c #3E4036",
"m+	c #505145",
"n+	c #6C6D60",
"o+	c #E7E6D6",
"p+	c #7A7A6C",
"q+	c #B9B8A4",
"r+	c #ABAB95",
"s+	c #525348",
"t+	c #424238",
"u+	c #424339",
"v+	c #9E9D8B",
"w+	c #CBCBB6",
"x+	c #BABAAD",
"y+	c #767667",
"z+	c #A8A893",
"A+	c #8C8F82",
"B+	c #383A30",
"C+	c #414137",
"D+	c #757566",
"E+	c #999A89",
"F+	c #9DA091",
"G+	c #5B5B50",
"H+	c #6C6D63",
"I+	c #515247",
"J+	c #535448",
"K+	c #A9A895",
"L+	c #B6B5A1",
"M+	c #6D6E5F",
"N+	c #ACAD98",
"O+	c #A2A38E",
"P+	c #616053",
"Q+	c #7B7B6B",
"R+	c #989A8B",
"S+	c #727267",
"T+	c #35362E",
"U+	c #31322A",
"V+	c #2C2D26",
"W+	c #282822",
"X+	c #ADAC98",
"Y+	c #A8A995",
"Z+	c #848578",
"`+	c #8C8D7B",
" @	c #D5D5C0",
".@	c #C0BFAB",
"+@	c #6B6A5C",
"@@	c #4E4E42",
"#@	c #707061",
"$@	c #9B9C8B",
"%@	c #BABAA9",
"&@	c #D9D8C6",
"*@	c #D4D4C1",
"=@	c #8B8B81",
"-@	c #91927F",
";@	c #D6D6C1",
">@	c #4A4A40",
",@	c #848474",
"'@	c #2E2E27",
")@	c #33342C",
"!@	c #32332A",
"~@	c #303129",
"{@	c #838375",
"]@	c #E1E0CE",
"^@	c #DCDCCD",
"/@	c #8A8A80",
"(@	c #91917F",
"_@	c #77796C",
":@	c #4D4D42",
"<@	c #4B4C41",
"[@	c #ACAF9E",
"}@	c #535449",
"|@	c #8E8D7D",
"1@	c #CECEB9",
"2@	c #CECEB8",
"3@	c #6E6F60",
"4@	c #8D8E7C",
"5@	c #D4D4BF",
"6@	c #A2A290",
"7@	c #4D4D43",
"8@	c #42443A",
"9@	c #67685C",
"0@	c #37372F",
"a@	c #48493E",
"b@	c #676758",
"c@	c #9E9F8C",
"d@	c #808170",
"e@	c #8B8A7A",
"f@	c #31332A",
"g@	c #2E2F28",
"h@	c #30322A",
"i@	c #616153",
"j@	c #919180",
"k@	c #82837C",
"l@	c #4B4D42",
"m@	c #2F3129",
"n@	c #33332B",
"o@	c #65665B",
"p@	c #82847B",
"q@	c #4B4B41",
"r@	c #2F3028",
"s@	c #45473C",
"t@	c #23231E",
"u@	c #4B4D45",
"v@	c #5F6157",
"w@	c #494B3F",
"x@	c #46483D",
"y@	c #272721",
"z@	c #141411",
"A@	c #383731",
"B@	c #747569",
"C@	c #6D6E62",
"D@	c #24241E",
"E@	c #1D1D19",
"F@	c #32342E",
"G@	c #6F7066",
"H@	c #6D6D5F",
"I@	c #6C6C5E",
"J@	c #7A7A6B",
"K@	c #626458",
"L@	c #797970",
"M@	c #6C6D67",
"N@	c #828273",
"O@	c #828372",
"P@	c #C2C2AA",
"Q@	c #A0A18C",
"R@	c #807F6F",
"S@	c #C5C4AB",
"T@	c #AEAE97",
"U@	c #7E7F70",
"V@	c #C1C0A8",
"W@	c #B4B39D",
"X@	c #8D8F80",
"Y@	c #878776",
"Z@	c #CACABE",
"                                                                                                ",
"                                                                                                ",
"                                                                                                ",
"                                                                                                ",
"                                                                                                ",
"                                                                                                ",
"                                                                                                ",
"                                                                                                ",
"                                            . + @                                               ",
"                                            # $ % &                                             ",
"                                          * = - ; > , ' )                                       ",
"                                    ! ~ { ] ^ / ( _ : < [ } | 1                                 ",
"                                2 3 4 ^ 5 6 7 8 7 { 9 0 4 a b c d                               ",
"                              e f g h ( 6 6 i ' j 6 ] k l m n o p q                             ",
"                            3 r s t u ( 6 j ( v w k o x y z A B C D E                           ",
"                          F G H I 7 7 ( J I K L M N O P Q R e S I T U                           ",
"                          V 8 7 7 7 : - W X Y Z `  ...+.@.#.$.%.[ &.*.%                         ",
"                        =.#.-.' ;.>.,.'.).!.~.L {.].^.I /.>.R (._.:.<.[.                        ",
"                        }.+.;.|.R O 1.2.3.  ~.4.5.6.  7.8.9.0.a.b.c.                            ",
"                        d.@.e.O O O w f.g.  h.i.j.k.  l.                                        ",
"                        d.m.O O O O n.o.p.q.r.s.t.u.                                            ",
"                        v.< O O O w.x.y.z.A.B.C.D.E.                                            ",
"                        F.e O O O G.H.I.$.J.5 K.L.M.                                            ",
"                          N.O.%.P.z Q.P.R.S.T.G 3 U.V.W.X.                                      ",
"                          Y.Z.e.`. +z O t d.x.e I.[ .+}.++@+#+                                  ",
"                            $+G.Q.%+&+O O w.#.*+R.=+-+d.H ;+>+,+'+                              ",
"                              )+I.B !+P.R ~+|.{+]+Z.^+%.n %+m./+(+_+                            ",
"                                :+%.<+]+[+}+G.O < Q.|+`.1+2+-+t 3+4+%                           ",
"                                    5+6+7+8+`.< 4 A n 9+0+d.P /.>.a+b+%                         ",
"                                          c+~+H.!+O d+e+R.R.*+i f+m g+%                         ",
"                                            h+i+j+k+l+y w.m+i ( /.O n+D o+                      ",
"                                            ~.p+q+r+  s+8 6 6 t+u+a u+v+w+                      ",
"                                    x+      ~.y+#+z+  A+6 6 6 {+B+C+t D+E+                      ",
"                      F+w G+H+I+H.J+K+L+    ~.M+N+O+    P+6 6 o B G.Q Q+R+                      ",
"                      S+T+e U+V+W+b X+Y+    Z+`+ @.@    +@6 6 ( @@f+|.#@$@                      ",
"                      ,.8+f U+`.n 0 %@&@*@  =@-@;@.@    ] i I |.' <+>@- ,@                      ",
"                        '@)@!@~@P.[ {@E ]@^@/@(@;@.@  _@:@e.2+Q : K n <@[@                      ",
"                        }@8+H.}+< H @.|@1@2@3@4@5@6@7@T+Q. +T+4 8@.+^ 9@                        ",
"                          0@7.<+U+a@d.d.b@c@2 d@e@~+&+f@g@h@]+U+r Y.i@j@                        ",
"                          k@g n ~@G.d.d.d.d.l@*+^ >.4 m@T+4 < ~@U+n@o@                          ",
"                            p@q@r@7.x.d.c.0+%.s@} m '@r !+r f T+t@u@                            ",
"                                v@]+G.d.e.x.w@2+x@d.`.r@Q.Q.y@z@A@                              ",
"                                    B@C@y e.d.m O a@[ [+D@E@F@G@                                ",
"                                            H@I@J@K@L@M@                                        ",
"                                            N@O@P@Q@                                            ",
"                                            ~.R@S@T@                                            ",
"                                            U@- V@W@                                            ",
"                                            X@Y@L+Z@                                            "};
