/* XPM */
static char * g7_xpm[] = {
"48 48 393 2",
"  	c None",
". 	c #949585",
"+ 	c #AAAD9D",
"@ 	c #D8D8C9",
"# 	c #6F7061",
"$ 	c #999989",
"% 	c #E5E5D4",
"& 	c #A6A694",
"* 	c #838374",
"= 	c #6C6C5D",
"- 	c #868575",
"; 	c #A4A492",
"> 	c #878777",
", 	c #8D8D7D",
"' 	c #9A9A8B",
") 	c #707062",
"! 	c #606154",
"~ 	c #6E6D5F",
"{ 	c #808071",
"] 	c #848575",
"^ 	c #7A7969",
"/ 	c #777667",
"( 	c #868676",
"_ 	c #8C8C7B",
": 	c #606053",
"< 	c #626254",
"[ 	c #717163",
"} 	c #87877B",
"| 	c #5C5C4F",
"1 	c #5D5D50",
"2 	c #4E4E43",
"3 	c #535447",
"4 	c #787869",
"5 	c #838475",
"6 	c #878778",
"7 	c #828272",
"8 	c #808070",
"9 	c #7C7C6D",
"0 	c #8B8B7A",
"a 	c #7B7B6C",
"b 	c #5A5A4C",
"c 	c #969683",
"d 	c #CDCDBE",
"e 	c #7A7A6D",
"f 	c #535247",
"g 	c #56574A",
"h 	c #505145",
"i 	c #6E6E5F",
"j 	c #828374",
"k 	c #868777",
"l 	c #8A8A7A",
"m 	c #8B8C7B",
"n 	c #878776",
"o 	c #7E7E6F",
"p 	c #656557",
"q 	c #59594C",
"r 	c #5E5E50",
"s 	c #676758",
"t 	c #A9A995",
"u 	c #D1D0BA",
"v 	c #7F7F75",
"w 	c #4D4E42",
"x 	c #545447",
"y 	c #5C5C4E",
"z 	c #757566",
"A 	c #7C7D6D",
"B 	c #7A7A6B",
"C 	c #737364",
"D 	c #828273",
"E 	c #828373",
"F 	c #838474",
"G 	c #4F5044",
"H 	c #515245",
"I 	c #7D7D6D",
"J 	c #BABAA7",
"K 	c #A5A69A",
"L 	c #727262",
"M 	c #777666",
"N 	c #7C7B6A",
"O 	c #848576",
"P 	c #525246",
"Q 	c #7D7C6B",
"R 	c #616154",
"S 	c #2C2B25",
"T 	c #606052",
"U 	c #646356",
"V 	c #616153",
"W 	c #5A5A4D",
"X 	c #636355",
"Y 	c #989986",
"Z 	c #D2D2BD",
"` 	c #8D8D7E",
" .	c #7B7A6A",
"..	c #777769",
"+.	c #89897B",
"@.	c #5E5F52",
"#.	c #787867",
"$.	c #A5A490",
"%.	c #51524A",
"&.	c #36362E",
"*.	c #6D6C5E",
"=.	c #706F61",
"-.	c #737264",
";.	c #69695B",
">.	c #7E7E6D",
",.	c #BABAA5",
"'.	c #DEDECF",
").	c #7E7D6D",
"!.	c #757565",
"~.	c #6A695B",
"{.	c #777768",
"].	c #9A9B88",
"^.	c #676859",
"/.	c #767768",
"(.	c #ADAF9D",
"_.	c #35352E",
":.	c #6B6B5D",
"<.	c #7A796A",
"[.	c #777868",
"}.	c #5F5F53",
"|.	c #434339",
"1.	c #393931",
"2.	c #414138",
"3.	c #9F9F91",
"4.	c #B9BAB2",
"5.	c #747365",
"6.	c #7B7A69",
"7.	c #797868",
"8.	c #6A6A5B",
"9.	c #646456",
"0.	c #888876",
"a.	c #BAB9A6",
"b.	c #636356",
"c.	c #A1A491",
"d.	c #848475",
"e.	c #21211C",
"f.	c #23231E",
"g.	c #191916",
"h.	c #161613",
"i.	c #262620",
"j.	c #4F5048",
"k.	c #353530",
"l.	c #47483E",
"m.	c #AEB1A2",
"n.	c #B1B0A3",
"o.	c #6E6D5E",
"p.	c #5F5E51",
"q.	c #616053",
"r.	c #666658",
"s.	c #848473",
"t.	c #BFBFAB",
"u.	c #606054",
"v.	c #727363",
"w.	c #B0B09C",
"x.	c #696A63",
"y.	c #A3A698",
"z.	c #69685B",
"A.	c #5B5B4E",
"B.	c #605F52",
"C.	c #787868",
"D.	c #BAB9A4",
"E.	c #6C6C5E",
"F.	c #898977",
"G.	c #CBCAB2",
"H.	c #A1A493",
"I.	c #58584B",
"J.	c #5E5E51",
"K.	c #68685A",
"L.	c #8D8D7C",
"M.	c #A5A591",
"N.	c #6D6D5E",
"O.	c #888777",
"P.	c #C9C8B1",
"Q.	c #5E5D50",
"R.	c #636255",
"S.	c #56564A",
"T.	c #555548",
"U.	c #747364",
"V.	c #7A7A6A",
"W.	c #A3A38F",
"X.	c #B1B0A0",
"Y.	c #5E5E52",
"Z.	c #4D4D42",
"`.	c #545548",
" +	c #4B4C40",
".+	c #4E4F42",
"++	c #787767",
"@+	c #68675A",
"#+	c #696A5C",
"$+	c #999987",
"%+	c #A1A18E",
"&+	c #B1B19E",
"*+	c #7A7A6E",
"=+	c #3C3D34",
"-+	c #666659",
";+	c #515145",
">+	c #48493E",
",+	c #535347",
"'+	c #656457",
")+	c #6C6B5D",
"!+	c #545448",
"~+	c #717162",
"{+	c #797869",
"]+	c #888877",
"^+	c #9D9D8B",
"/+	c #B2B29F",
"(+	c #5B5C51",
"_+	c #505144",
":+	c #4F5043",
"<+	c #676759",
"[+	c #717062",
"}+	c #767566",
"|+	c #57574B",
"1+	c #686759",
"2+	c #727163",
"3+	c #838272",
"4+	c #5B5D55",
"5+	c #3C3C33",
"6+	c #555549",
"7+	c #5A594C",
"8+	c #707061",
"9+	c #6F6F60",
"0+	c #B8B9A7",
"a+	c #4D4E44",
"b+	c #3C3D35",
"c+	c #46463C",
"d+	c #515246",
"e+	c #45453B",
"f+	c #626154",
"g+	c #4C4D41",
"h+	c #57574A",
"i+	c #6F6F61",
"j+	c #A9A996",
"k+	c #D1D1C3",
"l+	c #696960",
"m+	c #33352E",
"n+	c #393A32",
"o+	c #33332C",
"p+	c #3D3D35",
"q+	c #4C4C41",
"r+	c #5F5F51",
"s+	c #AAAA97",
"t+	c #DEDDCC",
"u+	c #606359",
"v+	c #343630",
"w+	c #383930",
"x+	c #4F5145",
"y+	c #69695A",
"z+	c #828171",
"A+	c #CECDB9",
"B+	c #777869",
"C+	c #717467",
"D+	c #34352D",
"E+	c #838373",
"F+	c #7E7E6E",
"G+	c #5D5D4F",
"H+	c #9E9E8A",
"I+	c #7A7B6C",
"J+	c #BCBCAA",
"K+	c #50544B",
"L+	c #43443A",
"M+	c #6F6E60",
"N+	c #818273",
"O+	c #58584C",
"P+	c #656658",
"Q+	c #AAAA99",
"R+	c #B0B09A",
"S+	c #66675B",
"T+	c #707164",
"U+	c #878677",
"V+	c #ADAF9F",
"W+	c #797B6D",
"X+	c #6B6A5D",
"Y+	c #646458",
"Z+	c #56554A",
"`+	c #3E3F35",
" @	c #B7B6A3",
".@	c #727263",
"+@	c #ACAC98",
"@@	c #59594E",
"#@	c #6E6E60",
"$@	c #565649",
"%@	c #6B6A5C",
"&@	c #969688",
"*@	c #767668",
"=@	c #414239",
"-@	c #3E3E35",
";@	c #36382F",
">@	c #757667",
",@	c #B3B3A1",
"'@	c #8A8977",
")@	c #CBCBB3",
"!@	c #4F5045",
"~@	c #727162",
"{@	c #75786B",
"]@	c #44443A",
"^@	c #5D5C4F",
"/@	c #C3C3B0",
"(@	c #E4E3D3",
"_@	c #747465",
":@	c #908F7C",
"<@	c #CCCBB3",
"[@	c #6A6E63",
"}@	c #5A5B50",
"|@	c #79796A",
"1@	c #6D6D5F",
"2@	c #595A4D",
"3@	c #58594C",
"4@	c #424239",
"5@	c #ADAD9A",
"6@	c #E3E2D1",
"7@	c #DFDECC",
"8@	c #3E4039",
"9@	c #6F6E5F",
"0@	c #515146",
"a@	c #7F7F73",
"b@	c #3C3D33",
"c@	c #767567",
"d@	c #A9A895",
"e@	c #D1D1BC",
"f@	c #C5C5B2",
"g@	c #636456",
"h@	c #8D8C79",
"i@	c #C4C3AA",
"j@	c #4A4A40",
"k@	c #414237",
"l@	c #4B4D42",
"m@	c #4C4E42",
"n@	c #4C4D42",
"o@	c #4F4F44",
"p@	c #4C4F43",
"q@	c #6D6D61",
"r@	c #5E5F54",
"s@	c #46473C",
"t@	c #47473D",
"u@	c #898878",
"v@	c #A4A590",
"w@	c #7F7E6E",
"x@	c #828271",
"y@	c #5F5E52",
"z@	c #525447",
"A@	c #484C41",
"B@	c #45473D",
"C@	c #4D4F44",
"D@	c #484B40",
"E@	c #48483E",
"F@	c #737263",
"G@	c #616254",
"H@	c #45473C",
"I@	c #4E4F44",
"J@	c #545549",
"K@	c #525347",
"L@	c #46493E",
"M@	c #3B3D34",
"N@	c #81837A",
"O@	c #525247",
"P@	c #424339",
"Q@	c #757464",
"R@	c #474A3F",
"S@	c #525346",
"T@	c #4D4F43",
"U@	c #57584B",
"V@	c #373830",
"W@	c #6B7065",
"X@	c #67685D",
"Y@	c #4E4F43",
"Z@	c #676658",
"`@	c #666558",
" #	c #5C5D50",
".#	c #494C41",
"+#	c #404239",
"@#	c #373930",
"##	c #7A7B74",
"$#	c #6E6F66",
"%#	c #5D5D51",
"&#	c #626255",
"*#	c #717063",
"=#	c #5F6053",
"-#	c #3B3C34",
";#	c #66665F",
">#	c #656558",
",#	c #7C7B6C",
"'#	c #7F8075",
")#	c #61615C",
"!#	c #818171",
"~#	c #B4B8A8",
"{#	c #7B7B6B",
"]#	c #BDBDAB",
"^#	c #757465",
"/#	c #BBBBA9",
"(#	c #868677",
"_#	c #898979",
":#	c #B1B19F",
"                                                                                                ",
"                                                                                                ",
"                                                                                                ",
"                                                                                                ",
"                                                                                                ",
"                                                                                                ",
"                                                                                                ",
"                                                                                                ",
"                                              . + @                                             ",
"                                              # $ %                                             ",
"                                          & * = - ; > , '                                       ",
"                                    ) ! ~ { ] ^ / ( _ > : < [ }                                 ",
"                                | 1 2 3 4 5 6 7 8 9 0 _ a b < 1 c d                             ",
"                              e f g h i j 5 k l 9 8 m n o p q r s t u                           ",
"                            v w x y z j 5 j A B 0 C D E F B g G H I J                           ",
"                          K / L M N { 5 O z P P Q R S g T U p V W X Y Z                         ",
"                          `  .N N N Q o 7 ..+.@.#.$.%.&.= *.=.-.;.V >.,.'.                      ",
"                          ).^ N N !.~.{.].    ^./.(.  _.:.z <.[.}.|.1.2.3.                      ",
"                        4.5.6.7.8.X 9.0.a.    b.= c.  d.e.f.g.h.i.j.k.l.m.                      ",
"                        n.5.o.p.q.r.r.s.t.    u.v.w.    x.                                      ",
"                        y.z.A.B.< 9.r.C.D.    E.F.G.                                            ",
"                        H.I.J.p.B.< K.~ !.L.M.N.O.P.                                            ",
"                          Q.p.p.p.R.J.S.T.K.8 U.V.W.X.                                          ",
"                          Y.Z.`.r.W  +.+B.K.5.++@+W #+$+%+&+                                    ",
"                          *+=+-+R.;+>+,+'+;.=.)+9.!+1 ~+{+]+^+/+                                ",
"                            (+: _+:+A.V < R.<+[+}+[+|+1+2+~ ;.[+3+,.                            ",
"                              4+5+6+p.7+T p T 8+~ T >+J.9.T |+q 9+_ 0+                          ",
"                                a+b+c+,+I.d+e+A.q.f+g+h h+,+Q.K.*.i+j+k+                        ",
"                                    l+m+n+o+p+q+W I.w g r+b.r.r.K.B p s+t+                      ",
"                                          u+v+w+x+h q.r.r.r.p y+z+o p / A+                      ",
"                                              R B+C+D+d+r.r.;.E+0 F+<+G+H+                      ",
"                                              ^.I+J+  K+L+M+N+k 9 | b.O+P+Q+                    ",
"                                              ^.#.R+    S+T+5 5 B A.W q.< U+                    ",
"                      V+W+X+K.Y+Z+`+8+ @      P+.@+@      @@5 5 5 #@$@r.%@&@                    ",
"                      *@e+q ;+=@-@;@>@,@      :.'@)@      !@5 5 5 I ~.)+)+~@                    ",
"                      {@|.!+h+]@| ^@i /@(@    _@:@<@    [@}@j |@1@/ o.2@1+3.                    ",
"                        S.>+3@4@q X i+5@6@7@  _@:@<@    8@*.1+X 9.9@V.J.0@                      ",
"                        a@b@`.6+c+9.[+c@d@e@f@g@h@i@F.j@k@l@m@n@o@p@{.K.q@                      ",
"                          r@s@| t@S.~ -.-.u@v@~ w@x@$@y@z@A@B@3 C@D@h <                         ",
"                            j@q+q E@r.-.-.-.[+<+:.C F@G@H@I@3 J@K@L@M@N@                        ",
"                              O+O@P@S.#@-.%@#@X+@+9+Q@J@R@S@T@U@J@V@W@                          ",
"                                X@Y@>+'+2+Z@1@2+`@Z@F@ #R@.#C@+#@###                            ",
"                                    $#%#u.&#<+*#=#b.:.%@d+M@-#;#                                ",
"                                              >#,#d.'#)#                                        ",
"                                              :.!#~#                                            ",
"                                              r.{#]#                                            ",
"                                              <+^#/#                                            ",
"                                              (#_#:#                                            "};
