/* XPM */
static char * image_fleche_haut_xpm[] = {
"10 10 6 1",
" 	c None",
".	c #000000",
"+	c #0000C0",
"@	c #FFFF00",
"#	c #C00000",
"$	c #00FFFF",
"          ",
"    ..    ",
"   .++.   ",
"   .@@.   ",
"  .#@@#.  ",
"  .@$$@.  ",
" .+@$$@+. ",
" .@#++#@. ",
" ........ ",
"          "};
