/* XPM */
static char *import_xpm[] = {
/* columns rows colors chars-per-pixel */
"16 16 90 1",
"  c black",
". c #171614",
"X c #1A1A16",
"o c #25261F",
"O c #3C3D32",
"+ c #403F3B",
"@ c #404135",
"# c #404236",
"$ c #424337",
"% c #434437",
"& c #41403B",
"* c #48493C",
"= c #4B4D3F",
"- c #4D4F40",
"; c #53514B",
": c #53524E",
"> c #54534D",
", c #5F5D56",
"< c #5F6152",
"1 c #67655F",
"2 c #666858",
"3 c #6D705F",
"4 c #686661",
"5 c #6C6A65",
"6 c #6E6D6B",
"7 c #78756C",
"8 c #767573",
"9 c #767671",
"0 c #7B7973",
"q c #7B7A75",
"w c #7C7A72",
"e c #7D7B75",
"r c #807F7A",
"t c #848672",
"y c #80817B",
"u c #838078",
"i c #86847D",
"p c #878A70",
"a c #878A75",
"s c #8B8F75",
"d c #8B8E7A",
"f c #8A8C7D",
"g c #8D907B",
"h c #8E917B",
"j c #90937D",
"k c #91947F",
"l c #92957E",
"z c #898781",
"x c #888980",
"c c #8C8A85",
"v c #8E8C85",
"b c #919480",
"n c #97958F",
"m c #96968D",
"M c #979B84",
"N c #97998D",
"B c #989B86",
"V c #999B87",
"C c #989C80",
"Z c #9A9992",
"A c #9B9993",
"S c #9A9996",
"D c #9FA19A",
"F c #A7AB8C",
"G c #A2A394",
"H c #A2A09B",
"J c #A3A39D",
"K c #B0B594",
"L c #BBBF9D",
"P c #B1B4A2",
"I c #B7B6B3",
"U c #C7CCA7",
"Y c #C6C6BE",
"T c #C6C7BE",
"R c #CDD2AC",
"E c #D1D3BD",
"W c #D6DABB",
"Q c #D5D6CB",
"! c #D6D7CA",
"~ c #DDE0C7",
"^ c #E3E5D1",
"/ c #E4E5DF",
"( c #E7E9DA",
") c #EAECDB",
"_ c #EDEFE2",
"` c #EFF0E5",
"' c #F1F2E9",
"] c #F5F6F0",
"[ c gray97",
"{ c None",
/* pixels */
"{      {{{{{{{{{",
"  /QQJ  {{{{{{{{",
" ]gllM3      {{{",
" )fgbdVbVlPG {{{",
" [a2=-@@&%@O*X {",
" Tto'~WRRRRRUC {",
" T<x~RRRRRRRFp {",
" Do`WRRRKs      ",
" ym^RRRR   r    ",
" N_RRRRR Dnxvr  ",
" 8(ELLL  w1+4w  ",
"        6A>.8A; ",
"{{{{{{{  qiSIe  ",
"{{{{{{{{ v57,>  ",
"{{{{{{{{   &    ",
"{{{{{{{{{{   {{{"
};
