/* XPM */
static char * liste_0_xpm[] = {
"10 10 3 1",
" 	c None",
".	c #0000FF",
"+	c #000000",
"........  ",
"          ",
"          ",
"      ++  ",
"     +  + ",
"     +  + ",
"     +  + ",
"     +  + ",
"     +  + ",
"      ++  "};
