/* XPM */
static char *liste_ope[]={
"10 10 4 1",
". c None",
"# c #000000",
"b c #0000c0",
"a c #ffff00",
"..........",
"#########.",
"aa#aaa#a#.",
"bb#bbb#b#.",
"..#...#.#.",
"..#...#.#.",
"bb#bbb#b#.",
"..#...#.#.",
"..#...#.#.",
"bb#bbb#b#."};
