/* XPM */
static char * liste_1_xpm[] = {
"10 10 3 1",
" 	c None",
".	c #0000FF",
"+	c #000000",
"........  ",
" .        ",
" ....     ",
"       +  ",
"      ++  ",
"     +++  ",
"       +  ",
"       +  ",
"       +  ",
"      +++ "};
