/* XPM */
static char * ope_3_xpm[] = {
"10 10 3 1",
" 	c None",
".	c #0000FF",
"+	c #FEFEFE",
"......... ",
"......... ",
"......... ",
"+++++++++ ",
"+++++++++ ",
"+++++++++ ",
"......... ",
"......... ",
"......... ",
"+++++++++ "};
