/* XPM */
static char *ope_simples[]={
"10 10 3 1",
"# c None",
". c #0000ff",
"a c #ffffff",
".........#",
"aaaaaaaaa#",
".........#",
"aaaaaaaaa#",
".........#",
"aaaaaaaaa#",
".........#",
"aaaaaaaaa#",
".........#",
"aaaaaaaaa#"};
