/* XPM */
static char * ope_2_xpm[] = {
"10 10 4 1",
" 	c None",
".	c #0000FF",
"+	c #FFFFFF",
"@	c #FEFEFE",
"......... ",
"......... ",
"+++++++++ ",
"@@@@@@@@@ ",
"......... ",
"......... ",
"+++++++++ ",
"@@@@@@@@@ ",
"......... ",
"......... "};
