/* XPM */
static char *ope_sans_r[]={
"10 10 3 1",
"# c None",
"a c #000000",
". c #0000c0",
".########.",
"#.aaaa##.#",
"##.###a.##",
"##a.##.###",
"##aa..####",
"##a#..a###",
"##a.##.###",
"##.###a.##",
"#.aa##aa.#",
".########."};
