/* XPM */
static char * ope_completes[] = {
"10 10 3 1",
" 	g None",
".	g #7053E2",
"+	g #FEFEFE",
"......... ",
"......... ",
"......... ",
"+++++++++ ",
"+++++++++ ",
"+++++++++ ",
"......... ",
"......... ",
"......... ",
"+++++++++ "};
