/* XPM */
static char *ope_avec_r[]={
"10 10 2 1",
". c None",
"# c #000000",
"..........",
".#####....",
"..#...#...",
"..#...#...",
"..####....",
"..#...#...",
"..#...#...",
"..#...#...",
".###..##..",
".........."};
